<svg xmlns="http://www.w3.org/2000/svg" width="48" height="48" fill="none" viewBox="0 0 48 48"><rect width="48" height="48" fill="#4B57A2" rx="24"/><path fill="#F6F7FD" fill-rule="evenodd" d="M24 12c6.627 0 12 5.373 12 12s-5.373 12-12 12-12-5.373-12-12 5.373-12 12-12Zm9.732 13.306c-1.156.601-2.68 1.104-4.41 1.45-.245 2.512-.827 4.729-1.672 6.362a9.83 9.83 0 0 0 6.082-7.812Zm-6.474-.428c.01-.289.015-.582.015-.878 0-5.472-1.739-9.818-3.273-9.818S20.727 18.528 20.727 24c0 .313.006.623.017.928 1.023.107 2.117.163 3.256.163 1.122 0 2.222-.079 3.258-.213Zm2.192-.382c.003-.165.005-.33.005-.496 0-3.63-.661-6.908-1.805-9.117a9.829 9.829 0 0 1 6.09 7.874c-.513.576-2.132 1.26-4.29 1.739Zm-8.527 2.643c.978.088 2.009.134 3.077.134 1.05 0 2.086-.06 3.082-.17-.492 3.924-1.853 6.715-3.082 6.715-1.226 0-2.582-2.773-3.078-6.679Zm-2.371-2.538a16.833 16.833 0 0 1-1.743-.44c-1.353-.425-2.238-.946-2.556-1.353a9.828 9.828 0 0 1 6.097-7.925c-1.144 2.209-1.805 5.487-1.805 9.117 0 .201.002.402.006.6Zm.134 2.248c.251 2.473.829 4.656 1.665 6.269a9.83 9.83 0 0 1-6.057-7.628c1.138.593 2.64 1.054 4.392 1.359Z" clip-rule="evenodd"/></svg>