<svg xmlns="http://www.w3.org/2000/svg" width="48" height="48" fill="none" viewBox="0 0 48 48"><rect width="48" height="48" fill="#4B57A2" rx="24"/><path fill="#F6F7FD" fill-rule="evenodd" d="M18.04 16.8c.353-2.622 2.973-4.8 5.96-4.8s5.607 2.178 5.96 4.8h3.457a2.4 2.4 0 0 1 2.376 2.74l-2.058 14.4A2.4 2.4 0 0 1 31.36 36H16.64a2.4 2.4 0 0 1-2.376-2.06l-2.057-14.4a2.4 2.4 0 0 1 2.376-2.74h3.457Zm9.474 0c-.365-1.274-1.836-2.4-3.514-2.4-1.677 0-3.148 1.126-3.513 2.4h7.027Zm-12.93 2.4H18v2.4h2.4v-2.4h7.2v2.4H30v-2.4h3.417l-2.058 14.4H16.642l-2.057-14.4Z" clip-rule="evenodd"/></svg>