<svg xmlns="http://www.w3.org/2000/svg" width="48" height="48" fill="none" viewBox="0 0 48 48"><rect width="48" height="48" fill="#4B57A2" rx="24"/><path fill="#F6F7FD" fill-rule="evenodd" d="M23.994 36c-6.546-2.916-9.819-5.825-9.819-8.727v-10.91c0-.837.322-1.031 1.211-1.57.27-.163.59-.358.971-.611.177-.118 3.887-2.182 7.637-2.182 3.267 0 6 1.09 7.636 2.182.38.253.701.448.97.611.89.539 1.212.733 1.212 1.57.021.238.01 5.276.004 8.502v.007a1616.16 1616.16 0 0 0-.004 2.4c0 2.91-3.273 5.819-9.818 8.728Zm7.636-8.727.002-1.359.004-2.13.004-1.846c.004-2.435.003-4.525 0-5.171l-.15-.093a48.543 48.543 0 0 1-1.07-.677c-1.61-1.073-3.96-1.815-6.427-1.815-2.358 0-5.423 1.147-6.426 1.815-.258.172-.718.458-1.07.677l-.14.086v10.513c0 1.645 2.432 3.893 7.637 6.33 5.206-2.432 7.636-4.678 7.636-6.33Zm-4.044-7.317-4.683 4.683-2.502-2.501-1.543 1.543 4.045 4.044 6.226-6.226-1.543-1.543Z" clip-rule="evenodd"/></svg>