<svg xmlns="http://www.w3.org/2000/svg" width="190" height="146" fill="none" viewBox="0 0 190 146"><path fill="#fff" d="M126.8 13.7C118.25 5.15 107 .5 95 .5S71.75 5.15 63.2 13.7C54.65 22.25 50 33.5 50 45.5s4.65 23.25 13.2 31.8C71.75 85.85 83 90.5 95 90.5s23.25-4.65 31.8-13.2c8.55-8.55 13.2-19.8 13.2-31.8s-4.65-23.25-13.2-31.8Zm9.993 29.306a.788.788 0 0 1-.789.844h-7.527a.804.804 0 0 1-.801-.777c-.199-5.207-1.071-10.186-2.418-14.938-.171-.603.38-1.17.984-1 2.639.744 5.077 1.517 7.312 2.485.19.082.34.238.415.431 1.62 4.15 2.484 8.429 2.824 12.955Zm-5.908-19.062c.377.618-.223 1.346-.912 1.125-1.977-.632-4.013-1.228-6.053-1.678a.815.815 0 0 1-.579-.49c-1.331-3.295-3.067-6.311-4.941-9.051a58.283 58.283 0 0 0-1.703-2.17c-.589-.712.259-1.85 1.034-1.346 5.305 3.449 9.815 8.128 13.154 13.61ZM108.846 43.85a.8.8 0 0 1-.798-.797c-.04-6.516-.567-12.655-1.355-18.305a.795.795 0 0 1 .861-.905c4.573.442 8.91 1.13 13.12 2.062.266.059.482.25.572.506 1.782 5.058 2.908 10.634 3.26 16.605a.789.789 0 0 1-.79.834h-14.87Zm14.739 3.3c.447 0 .807.368.79.815-.222 5.996-1.354 11.708-3.273 16.649a.782.782 0 0 1-.557.48c-4.093.933-8.548 1.62-13.141 2.063a.795.795 0 0 1-.861-.904c.788-5.65 1.315-11.79 1.355-18.306a.8.8 0 0 1 .798-.797h14.889Zm-4.698-26.185c.303.584-.212 1.246-.858 1.124a97.259 97.259 0 0 0-11.468-1.45.803.803 0 0 1-.732-.64 129.34 129.34 0 0 0-1.229-5.549c-.91-3.3-1.907-5.996-2.99-8.087-.337-.651.255-1.434.943-1.18 6.668 2.458 12.369 8.134 16.334 15.782ZM85.897 43.85a.793.793 0 0 1-.795-.797c.04-6.804.595-13.21 1.543-18.977a.792.792 0 0 1 .739-.661c2.51-.137 5.126-.265 7.616-.265 2.621 0 5.116.127 7.6.264.378.02.69.305.743.68.816 5.757 1.369 12.151 1.539 18.943a.795.795 0 0 1-.795.813h-18.19Zm18.207 3.3c.439 0 .796.357.794.797-.041 6.804-.595 13.21-1.543 18.977a.791.791 0 0 1-.739.661c-2.509.138-5.126.265-7.616.265-2.484 0-5.096-.127-7.6-.264a.793.793 0 0 1-.743-.68c-.816-5.757-1.369-12.151-1.538-18.943a.794.794 0 0 1 .794-.813h18.191ZM95 3.65c1.65 0 4.35 3 6.6 11.55.368 1.35.636 2.698.967 4.212a.813.813 0 0 1-.829.984C99.539 20.3 97.325 20.3 95 20.3c-2.22 0-4.554 0-6.803.099a.789.789 0 0 1-.82-.931A59.74 59.74 0 0 1 88.4 15.2C90.65 6.65 93.35 3.65 95 3.65Zm-7.669 1.418c.68-.266 1.282.493.95 1.144-1.098 2.165-2.109 4.86-3.031 8.088-.41 1.774-.819 3.671-1.228 5.58a.798.798 0 0 1-.702.627c-3.907.388-7.805.883-11.517 1.483-.644.105-1.136-.563-.826-1.138 4.082-7.539 9.79-13.217 16.354-15.784Zm-5.379 37.986a.8.8 0 0 1-.799.796H66.415a.788.788 0 0 1-.79-.815c.222-5.996 1.354-11.708 3.273-16.649a.783.783 0 0 1 .556-.48c4.087-.931 8.533-1.618 13.117-2.061.52-.05.943.408.86.924-.907 5.654-1.438 11.898-1.478 18.285Zm1.356 23.199c.07.509-.35.954-.862.904-4.573-.442-8.91-1.13-13.12-2.062a.786.786 0 0 1-.572-.506c-1.782-5.058-2.909-10.634-3.26-16.605a.79.79 0 0 1 .79-.834H81.02a.8.8 0 0 1 .798.78c.167 6.4.7 12.658 1.49 18.323ZM72.52 10.22c.778-.495 1.615.64 1.025 1.349-.606.727-1.2 1.487-1.795 2.28-2.022 2.744-3.627 5.767-4.949 9.068-.096.24-.3.42-.55.482-2.119.532-4.16 1.068-6.067 1.66-.692.216-1.308-.513-.938-1.137A41.103 41.103 0 0 1 72.52 10.221ZM56.026 30.203a.78.78 0 0 1 .426-.429c2.313-.953 4.723-1.717 7.232-2.45.618-.182 1.184.412.996 1.027-1.417 4.636-2.17 9.69-2.356 14.873a.803.803 0 0 1-.8.776h-7.53a.788.788 0 0 1-.789-.843c.339-4.654 1.201-8.933 2.821-12.954Zm-2.819 17.791a.788.788 0 0 1 .79-.844h7.526c.432 0 .785.345.801.777.198 5.2 1.068 10.172 2.412 14.918.172.607-.388 1.176-.994 1.001-2.558-.738-5.07-1.506-7.296-2.466a.776.776 0 0 1-.415-.431c-1.62-4.15-2.484-8.428-2.824-12.955Zm5.908 19.062c-.377-.618.223-1.346.913-1.125 1.976.632 4.012 1.228 6.052 1.678a.815.815 0 0 1 .579.49c1.33 3.295 3.067 6.311 4.941 9.051.565.753 1.13 1.476 1.703 2.17.59.712-.259 1.85-1.034 1.346-5.305-3.449-9.815-8.129-13.154-13.61Zm11.998 2.979c-.303-.584.212-1.246.858-1.124a97.262 97.262 0 0 0 11.468 1.45c.36.024.66.285.732.64.41 2.022.82 3.91 1.229 5.549.91 3.3 1.907 5.996 2.99 8.087.337.651-.255 1.434-.943 1.18-6.668-2.458-12.369-8.134-16.334-15.782ZM95 87.35c-1.65 0-4.35-3-6.6-11.55-.368-1.35-.636-2.698-.967-4.212a.813.813 0 0 1 .83-.984c2.198.096 4.412.096 6.737.096 2.348 0 4.583 0 6.803-.099a.788.788 0 0 1 .819.931A59.795 59.795 0 0 1 101.6 75.8c-2.25 8.55-4.95 11.55-6.6 11.55Zm7.669-1.418c-.68.266-1.282-.493-.951-1.145 1.099-2.164 2.11-4.86 3.032-8.087.409-1.774.819-3.671 1.228-5.58a.799.799 0 0 1 .702-.627c3.907-.388 7.805-.883 11.517-1.483.644-.105 1.137.563.826 1.138-4.082 7.539-9.79 13.217-16.354 15.784Zm14.811-5.153c-.778.495-1.614-.64-1.025-1.349.606-.727 1.2-1.487 1.795-2.28 2.022-2.744 3.627-5.767 4.949-9.068.096-.24.3-.42.55-.482 2.119-.532 4.159-1.068 6.067-1.66.693-.216 1.308.513.938 1.137a41.097 41.097 0 0 1-13.274 13.702Zm16.494-19.982a.78.78 0 0 1-.426.429c-2.313.953-4.723 1.717-7.232 2.45-.618.181-1.184-.412-.996-1.027 1.417-4.636 2.17-9.69 2.356-14.873a.804.804 0 0 1 .801-.776h7.528c.459 0 .823.386.79.843-.339 4.654-1.201 8.933-2.821 12.954ZM10.224 145.5a9.702 9.702 0 0 1-3.295-.591c-1.066-.395-2.1-.97-3.101-1.725-1.001-.789-1.874-1.824-2.617-3.105-.743-1.282-1.146-2.81-1.211-4.584v-17.792c0-.919.323-1.675.97-2.267.677-.624 1.469-.936 2.373-.936 1.939.164 2.988 1.232 3.15 3.203v17.398c.032.789.194 1.462.485 2.021.29.525.613.952.969 1.281.355.296.71.526 1.066.69.387.131.775.197 1.163.197.387 0 .775-.066 1.162-.197.388-.164.76-.394 1.115-.69.355-.329.678-.756.969-1.281.29-.559.436-1.232.436-2.021v-17.398c0-.919.323-1.675.97-2.267.678-.624 1.469-.936 2.373-.936 1.939.164 3.005 1.232 3.199 3.203v17.398c.032.789.193 1.446.484 1.971.29.559.614 1.002.97 1.331.355.296.71.526 1.065.69.388.131.776.197 1.163.197.388 0 .775-.066 1.163-.197.388-.164.76-.394 1.114-.69.356-.329.679-.756.97-1.281.29-.559.436-1.232.436-2.021v-17.398c0-.919.323-1.675.969-2.267.678-.624 1.47-.936 2.374-.936 1.938.164 3.004 1.232 3.198 3.203v17.792c0 1.774-.387 3.302-1.163 4.584-.743 1.281-1.615 2.316-2.616 3.105a11.19 11.19 0 0 1-3.102 1.725 9.431 9.431 0 0 1-3.294.591 9.702 9.702 0 0 1-3.295-.591c-1.066-.395-2.1-.986-3.101-1.775a3.492 3.492 0 0 1-.534-.443c-.193.164-.371.312-.532.443-1.002.789-2.052 1.38-3.15 1.775a9.432 9.432 0 0 1-3.295.591ZM70.989 131.355c.613 1.315.92 2.645.92 3.992 0 1.315-.323 2.629-.969 3.943-.646 1.282-1.696 2.432-3.15 3.45-1.453.986-3.31 1.479-5.572 1.479h-.29a3.566 3.566 0 0 1-.582.049H41.867c-.872-.033-1.615-.345-2.229-.937-.581-.624-.888-1.379-.92-2.267v-22.572c.032-.887.339-1.626.92-2.218a3.186 3.186 0 0 1 2.23-.985h16.668c.193 0 .387.016.581.049h.29c2.262.066 4.12.591 5.573 1.577 1.454.986 2.504 2.119 3.15 3.401.646 1.248.969 2.513.969 3.794 0 1.315-.307 2.596-.92 3.845a.59.59 0 0 1-.098.148c1.325.952 2.294 2.037 2.908 3.252Zm-8.48 6.309c.614.033 1.114-.082 1.502-.345.42-.263.727-.559.92-.887a2.28 2.28 0 0 0 .291-1.085c0-.23-.096-.542-.29-.936a2.352 2.352 0 0 0-.921-1.035c-.388-.263-.888-.411-1.502-.444h-17.25v3.401c0 .887.452 1.331 1.357 1.331h15.893Zm-1.26-11.779c.388-.23.678-.493.872-.789.194-.328.291-.657.291-.986 0-.328-.097-.64-.29-.936-.194-.328-.501-.608-.921-.838-.388-.263-.889-.41-1.502-.443H46.616c-.905 0-1.357.443-1.357 1.33v3.105h14.44c.613-.033 1.13-.18 1.55-.443ZM91.487 144.958c-.872-.033-1.615-.345-2.229-.937a3.295 3.295 0 0 1-.969-2.267v-12.271c.032-2.333.355-4.535.97-6.605.645-2.07 1.695-3.811 3.149-5.224 1.486-1.445 3.36-2.234 5.62-2.365h18.704c.872.032 1.599.361 2.181.985.613.592.936 1.331.969 2.218 0 .92-.307 1.709-.921 2.366-.581.657-1.324 1.002-2.229 1.035H99.676c-1.228.065-2.245.542-3.053 1.429a6.259 6.259 0 0 0-1.55 3.056c-.194 1.117-.275 2.349-.242 3.696v11.68c-.033.92-.372 1.692-1.018 2.317-.646.591-1.422.887-2.326.887Zm5.62-12.962c0-.92.324-1.692.97-2.316.614-.657 1.373-.986 2.277-.986h16.378c.905 0 1.664.329 2.278.986.646.624.969 1.396.969 2.316 0 .92-.307 1.709-.921 2.366a3.228 3.228 0 0 1-2.326.936h-16.378c-.904 0-1.68-.312-2.326-.936-.613-.657-.92-1.446-.92-2.366ZM121.386 118.591c0-.92.307-1.692.92-2.317.646-.657 1.422-.985 2.326-.985h28.201c.905 0 1.68.312 2.326.936.614.657.921 1.446.921 2.366 0 .92-.307 1.692-.921 2.316a3.913 3.913 0 0 1-.582.493l-20.544 16.264h18.8c.905 0 1.68.312 2.326.936.614.657.921 1.446.921 2.366a3.25 3.25 0 0 1-.97 2.365c-.613.625-1.372.937-2.277.937h-28.201c-.904 0-1.663-.329-2.277-.986-.646-.624-.969-1.396-.969-2.316 0-.854.274-1.594.823-2.218h-.048l.194-.148c.194-.197.404-.361.63-.493l20.787-16.214h-19.14c-.904 0-1.663-.329-2.277-.986-.646-.624-.969-1.396-.969-2.316ZM168.147 115.289h18.703c.905.032 1.648.377 2.229 1.035.614.657.921 1.445.921 2.365-.162 1.972-1.211 3.039-3.15 3.204h-17.056c-1.227.065-2.245.542-3.052 1.429a8.526 8.526 0 0 0-1.793 3.056 11.292 11.292 0 0 0-.533 3.45c0 1.182.177 2.349.533 3.499a8.608 8.608 0 0 0 1.793 3.006c.807.887 1.825 1.364 3.052 1.429h17.056c.905.033 1.648.378 2.229 1.035.614.657.921 1.446.921 2.366a3.293 3.293 0 0 1-.969 2.267c-.582.591-1.308.904-2.181.936h-18.703c-2.261-.131-4.135-1.002-5.621-2.612a15.1 15.1 0 0 1-3.15-5.569 22.272 22.272 0 0 1-.92-6.357c0-2.169.323-4.288.969-6.358a14.667 14.667 0 0 1 3.149-5.52c1.454-1.643 3.312-2.53 5.573-2.661Zm21.756 14.341c0 .92-.323 1.692-.969 2.317-.614.657-1.373.985-2.277.985h-14.634a3.23 3.23 0 0 1-2.326-.936c-.613-.657-.92-1.446-.92-2.366 0-.92.307-1.708.92-2.365a3.227 3.227 0 0 1 2.326-.937h14.634c.904 0 1.663.329 2.277.986.646.624.969 1.396.969 2.316Z"/></svg>