<svg xmlns="http://www.w3.org/2000/svg" width="396" height="113" fill="none"><path fill="#fff" d="M96.427 16.573C85.692 5.838 71.567 0 56.5 0S27.308 5.838 16.573 16.573 0 41.433 0 56.5s5.838 29.192 16.573 39.927S41.433 113 56.5 113s29.192-5.838 39.927-16.573S113 71.567 113 56.5s-5.838-29.192-16.573-39.927Zm12.546 36.795a.989.989 0 0 1-.99 1.06h-9.451a1.01 1.01 0 0 1-1.006-.975c-.249-6.538-1.344-12.79-3.035-18.756-.215-.757.477-1.468 1.235-1.255 3.314.934 6.374 1.905 9.18 3.12a.979.979 0 0 1 .522.541c2.034 5.21 3.118 10.582 3.545 16.265Zm-7.417-23.933c.473.776-.28 1.69-1.146 1.413-2.482-.794-5.038-1.543-7.599-2.107a1.022 1.022 0 0 1-.727-.616c-1.671-4.136-3.85-7.924-6.204-11.363a72.845 72.845 0 0 0-2.138-2.724c-.74-.895.325-2.324 1.298-1.69 6.66 4.33 12.323 10.205 16.516 17.087ZM73.885 54.428c-.552 0-1-.448-1.003-1-.05-8.181-.712-15.89-1.701-22.984a.998.998 0 0 1 1.08-1.136 136.725 136.725 0 0 1 16.475 2.59.987.987 0 0 1 .718.634c2.236 6.351 3.651 13.352 4.093 20.85a.99.99 0 0 1-.993 1.046H73.885Zm18.505 4.144a.99.99 0 0 1 .992 1.023c-.279 7.528-1.7 14.7-4.11 20.904a.983.983 0 0 1-.698.602c-5.14 1.171-10.733 2.035-16.5 2.591a.999.999 0 0 1-1.082-1.136c.99-7.094 1.651-14.803 1.702-22.984.003-.552.45-1 1.003-1H92.39Zm-5.898-32.877c.38.733-.266 1.565-1.078 1.412a122.128 122.128 0 0 0-14.398-1.82 1.008 1.008 0 0 1-.92-.804c-.514-2.54-1.028-4.91-1.543-6.968C67.41 13.372 66.16 9.987 64.8 7.361c-.423-.817.32-1.8 1.184-1.481 8.372 3.085 15.53 10.213 20.509 19.815ZM45.07 54.428c-.552 0-1-.448-.997-1 .05-8.544.747-16.587 1.937-23.827a.994.994 0 0 1 .928-.83c3.15-.173 6.436-.333 9.562-.333 3.291 0 6.423.16 9.543.332a.996.996 0 0 1 .932.853c1.024 7.229 1.719 15.257 1.932 23.785a.997.997 0 0 1-.998 1.02H45.07Zm22.86 4.144c.552 0 1 .448.997 1-.05 8.544-.747 16.587-1.937 23.827a.994.994 0 0 1-.928.83c-3.15.172-6.436.333-9.562.333-3.12 0-6.398-.16-9.543-.332a.995.995 0 0 1-.932-.853c-1.024-7.229-1.718-15.257-1.932-23.785a.997.997 0 0 1 .998-1.02H67.93ZM56.5 3.955c2.072 0 5.462 3.767 8.287 14.502.462 1.694.798 3.388 1.214 5.288a1.021 1.021 0 0 1-1.042 1.235c-2.76-.12-5.54-.12-8.459-.12-2.787 0-5.717 0-8.542.124-.641.028-1.15-.539-1.028-1.169.36-1.843.821-3.664 1.283-5.358C51.038 7.722 54.428 3.955 56.5 3.955Zm-9.629 1.78c.854-.333 1.61.62 1.194 1.437-1.38 2.718-2.649 6.103-3.807 10.155a469.434 469.434 0 0 0-1.541 7.006 1.002 1.002 0 0 1-.882.787c-4.905.488-9.8 1.109-14.46 1.863-.81.13-1.427-.709-1.037-1.43C31.463 16.088 38.63 8.959 46.871 5.736Zm-6.753 47.693c-.003.553-.45 1-1.003 1H20.61a.99.99 0 0 1-.992-1.023c.279-7.528 1.7-14.7 4.11-20.904a.983.983 0 0 1 .698-.601c5.131-1.17 10.713-2.033 16.47-2.589a1.001 1.001 0 0 1 1.079 1.16c-1.14 7.098-1.806 14.939-1.857 22.957Zm1.701 29.128a.999.999 0 0 1-1.08 1.136 136.725 136.725 0 0 1-16.474-2.59.987.987 0 0 1-.719-.634c-2.236-6.351-3.651-13.352-4.093-20.85a.99.99 0 0 1 .993-1.046h18.502c.544 0 .988.435 1.002.978.209 8.037.88 15.894 1.87 23.006ZM28.275 12.205c.977-.62 2.027.804 1.287 1.694a71.924 71.924 0 0 0-2.254 2.863c-2.539 3.445-4.554 7.24-6.213 11.385-.12.3-.377.526-.69.605-2.662.669-5.223 1.341-7.619 2.086-.869.27-1.642-.646-1.177-1.429a51.61 51.61 0 0 1 16.666-17.204ZM7.566 37.294a.978.978 0 0 1 .535-.539c2.904-1.197 5.93-2.156 9.08-3.077.776-.227 1.486.518 1.25 1.29-1.779 5.821-2.724 12.168-2.958 18.674-.02.542-.462.975-1.005.975H5.016a.99.99 0 0 1-.991-1.059c.425-5.843 1.507-11.215 3.541-16.264Zm-3.54 22.338a.99.99 0 0 1 .991-1.06h9.451c.543 0 .985.433 1.006.975.248 6.529 1.34 12.772 3.028 18.73.216.763-.487 1.478-1.248 1.258-3.211-.927-6.366-1.892-9.16-3.097a.975.975 0 0 1-.522-.541c-2.034-5.21-3.118-10.582-3.545-16.265Zm7.418 23.933c-.473-.776.28-1.69 1.146-1.413 2.482.794 5.038 1.543 7.599 2.108.329.072.601.303.727.615 1.671 4.136 3.85 7.924 6.204 11.363a72.845 72.845 0 0 0 2.138 2.724c.74.895-.325 2.324-1.298 1.691-6.66-4.33-12.323-10.206-16.516-17.088Zm15.064 3.74c-.38-.733.266-1.565 1.078-1.412 4.614.871 9.377 1.478 14.398 1.82.453.031.83.36.92.804.514 2.54 1.028 4.91 1.543 6.968 1.143 4.143 2.394 7.528 3.754 10.154.423.817-.32 1.8-1.184 1.482-8.372-3.086-15.53-10.214-20.509-19.816Zm29.992 21.74c-2.072 0-5.462-3.767-8.287-14.502-.462-1.694-.798-3.388-1.214-5.288a1.021 1.021 0 0 1 1.042-1.235c2.76.12 5.54.12 8.459.12 2.948 0 5.754 0 8.542-.124.641-.028 1.15.539 1.028 1.169-.36 1.843-.821 3.664-1.283 5.358-2.825 10.735-6.215 14.502-8.287 14.502Zm9.629-1.781c-.855.334-1.61-.619-1.194-1.436 1.38-2.718 2.649-6.103 3.807-10.155a472.34 472.34 0 0 0 1.541-7.006c.092-.426.448-.744.882-.787 4.905-.488 9.8-1.109 14.46-1.863.81-.13 1.427.709 1.037 1.43-5.125 9.465-12.291 16.595-20.533 19.817Zm18.596-6.469c-.977.621-2.027-.804-1.287-1.694a71.924 71.924 0 0 0 2.254-2.863c2.539-3.445 4.554-7.24 6.213-11.385.12-.3.377-.526.69-.605 2.662-.669 5.223-1.341 7.619-2.086.869-.27 1.642.646 1.177 1.429a51.603 51.603 0 0 1-16.666 17.204Zm20.709-25.089a.982.982 0 0 1-.535.539c-2.904 1.197-5.93 2.156-9.08 3.077-.776.227-1.487-.518-1.25-1.29 1.779-5.822 2.724-12.168 2.958-18.674.02-.542.462-.975 1.005-.975h9.452a.99.99 0 0 1 .991 1.059c-.425 5.843-1.507 11.215-3.541 16.264Zm45.467 1.627a13.32 13.32 0 0 1-4.48-.795c-1.449-.53-2.855-1.302-4.216-2.318-1.362-1.06-2.548-2.451-3.558-4.173-1.01-1.723-1.559-3.776-1.647-6.161V39.972c0-1.236.439-2.252 1.318-3.047.922-.839 1.998-1.258 3.228-1.258 2.635.22 4.063 1.656 4.282 4.305v23.384c.044 1.06.264 1.965.659 2.716.395.707.835 1.28 1.318 1.722.483.398.966.707 1.449.928a4.947 4.947 0 0 0 1.581.265c.527 0 1.054-.089 1.581-.265a6.09 6.09 0 0 0 1.516-.928c.483-.441.922-1.015 1.317-1.722.396-.75.593-1.656.593-2.716V39.972c0-1.236.439-2.252 1.318-3.047.922-.839 1.998-1.258 3.228-1.258 2.635.22 4.085 1.656 4.348 4.305v23.384c.044 1.06.264 1.943.659 2.65.395.75.835 1.347 1.318 1.788.483.398.966.707 1.449.928a4.947 4.947 0 0 0 1.581.265c.527 0 1.054-.089 1.582-.265a6.085 6.085 0 0 0 1.515-.928c.483-.441.922-1.015 1.317-1.722.396-.75.593-1.656.593-2.716V39.972c0-1.236.44-2.252 1.318-3.047.922-.839 1.998-1.258 3.228-1.258 2.636.22 4.085 1.656 4.348 4.305v23.914c0 2.385-.527 4.438-1.581 6.16-1.01 1.723-2.196 3.114-3.557 4.174a15.218 15.218 0 0 1-4.217 2.318c-1.449.53-2.943.795-4.48.795-1.493 0-2.986-.265-4.48-.795-1.449-.53-2.855-1.325-4.216-2.384a4.736 4.736 0 0 1-.725-.597c-.263.221-.505.42-.725.597-1.361 1.06-2.789 1.854-4.282 2.384-1.449.53-2.943.795-4.48.795Zm82.619-19.011c.834 1.766 1.252 3.555 1.252 5.365 0 1.767-.44 3.533-1.318 5.3-.878 1.722-2.306 3.268-4.282 4.637-1.977 1.325-4.502 1.987-7.577 1.987h-.395a4.787 4.787 0 0 1-.791.066h-26.484c-1.186-.044-2.196-.464-3.031-1.258-.79-.84-1.208-1.855-1.252-3.048V41.032c.044-1.192.462-2.186 1.252-2.98a4.36 4.36 0 0 1 3.031-1.326h22.663a4.8 4.8 0 0 1 .791.067h.395c3.074.088 5.6.794 7.576 2.12 1.977 1.324 3.404 2.848 4.283 4.57.878 1.678 1.317 3.379 1.317 5.1 0 1.767-.417 3.49-1.251 5.168a.77.77 0 0 1-.132.199c1.801 1.28 3.118 2.738 3.953 4.372ZM221.99 66.8c.835.044 1.516-.11 2.043-.464.571-.353.988-.75 1.252-1.192.263-.486.395-.972.395-1.458 0-.309-.132-.728-.395-1.258a3.176 3.176 0 0 0-1.252-1.392c-.527-.353-1.208-.551-2.043-.596h-23.454v4.571c0 1.192.615 1.789 1.845 1.789h21.609Zm-1.712-15.832c.527-.31.922-.663 1.185-1.06.264-.442.396-.883.396-1.325a2.24 2.24 0 0 0-.396-1.259c-.263-.441-.68-.817-1.251-1.126-.527-.353-1.208-.552-2.043-.596h-17.788c-1.23 0-1.845.596-1.845 1.788v4.174h19.633c.835-.044 1.538-.243 2.109-.596Zm41.113 25.637c-1.186-.044-2.196-.464-3.031-1.259-.834-.84-1.274-1.855-1.318-3.047V55.804c.044-3.135.484-6.094 1.318-8.876.878-2.782 2.306-5.123 4.282-7.022 2.021-1.943 4.568-3.003 7.643-3.18h25.43c1.186.045 2.174.486 2.965 1.325.834.795 1.274 1.789 1.318 2.981 0 1.237-.418 2.297-1.252 3.18-.791.883-1.801 1.347-3.031 1.39h-23.19c-1.669.09-3.053.73-4.151 1.922-1.098 1.192-1.801 2.561-2.108 4.107-.264 1.502-.373 3.158-.329 4.968v15.7c-.044 1.236-.506 2.274-1.384 3.113-.878.795-1.933 1.193-3.162 1.193Zm7.642-17.422c0-1.237.439-2.275 1.318-3.114.834-.883 1.866-1.325 3.096-1.325h22.268c1.23 0 2.262.442 3.097 1.325.878.84 1.317 1.877 1.317 3.114 0 1.236-.417 2.296-1.251 3.18-.879.839-1.933 1.258-3.163 1.258h-22.268c-1.23 0-2.284-.42-3.162-1.259-.835-.883-1.252-1.943-1.252-3.18Zm33.009-18.018c0-1.237.418-2.275 1.252-3.114.879-.883 1.933-1.325 3.163-1.325H344.8c1.23 0 2.284.42 3.162 1.259.835.883 1.252 1.943 1.252 3.18 0 1.236-.417 2.274-1.252 3.113a5.234 5.234 0 0 1-.79.663L319.238 66.8H344.8c1.23 0 2.284.42 3.162 1.258.835.883 1.252 1.943 1.252 3.18 0 1.236-.439 2.296-1.318 3.18-.834.839-1.866 1.258-3.096 1.258h-38.343c-1.23 0-2.262-.441-3.097-1.325-.878-.839-1.318-1.877-1.318-3.113 0-1.148.374-2.142 1.12-2.981h-.065l.263-.199c.264-.265.549-.486.857-.662l28.263-21.794h-26.023c-1.23 0-2.262-.442-3.097-1.325-.878-.839-1.318-1.877-1.318-3.113Zm63.579-4.439h25.431c1.23.045 2.24.508 3.03 1.392.835.883 1.252 1.943 1.252 3.18-.22 2.649-1.647 4.084-4.282 4.305h-23.191c-1.669.088-3.052.729-4.15 1.921a11.453 11.453 0 0 0-2.438 4.107 15.051 15.051 0 0 0-.725 4.637c0 1.59.242 3.158.725 4.703a11.568 11.568 0 0 0 2.438 4.041c1.098 1.192 2.481 1.833 4.15 1.921h23.191c1.23.044 2.24.508 3.03 1.391.835.883 1.252 1.943 1.252 3.18-.044 1.192-.483 2.208-1.318 3.047-.79.795-1.778 1.215-2.964 1.259h-25.431c-3.074-.177-5.622-1.347-7.642-3.511a20.239 20.239 0 0 1-4.282-7.486 29.57 29.57 0 0 1-1.252-8.545 28.2 28.2 0 0 1 1.318-8.545 19.635 19.635 0 0 1 4.282-7.42c1.976-2.208 4.502-3.4 7.576-3.577Zm29.581 19.277c0 1.237-.439 2.274-1.317 3.114-.835.883-1.867 1.324-3.097 1.324h-19.896c-1.23 0-2.284-.42-3.163-1.258-.834-.883-1.251-1.943-1.251-3.18 0-1.236.417-2.296 1.251-3.18.879-.839 1.933-1.258 3.163-1.258h19.896c1.23 0 2.262.441 3.097 1.325.878.839 1.317 1.877 1.317 3.113Z"/></svg>