<svg width="120" height="120" viewBox="0 0 120 120" fill="none" xmlns="http://www.w3.org/2000/svg">
    <path fill-rule="evenodd" clip-rule="evenodd"
          d="M47.0352 39C48.9267 44.3355 54.0239 48.1667 60 48.1667C65.976 48.1667 71.0732 44.3355 72.9647 39H78.2942C83.3784 39 89.7848 42.4273 92.6068 46.6603L105.833 66.5L90.2499 78.875L87.5 75.6667V116.938C87.5 119.457 85.411 121.5 82.9053 121.5H37.0946C34.5571 121.5 32.5 119.412 32.5 116.938V75.6667L30.2083 78.875L14.1666 66.4999L27.3931 46.6602C30.2135 42.4296 36.6339 39 41.7057 39H47.0352ZM73.75 66.5C71.2225 66.5 69.1666 68.5559 69.1666 71.0833C69.1666 73.6108 71.2225 75.6667 73.75 75.6667C76.2774 75.6667 78.3333 73.6108 78.3333 71.0833C78.3333 68.5559 76.2774 66.5 73.75 66.5Z"
          fill="#4B57A2"/>
</svg>
