<svg xmlns="http://www.w3.org/2000/svg" width="120" height="120" fill="none" viewBox="0 0 120 120"><path fill="#4B57A2" d="M60 62.364a21.09 21.09 0 1 0 0 42.182 21.09 21.09 0 0 0 0-42.182Zm0 25.045a3.955 3.955 0 1 1 0-7.91 3.955 3.955 0 0 1 0 7.91Z"/><path fill="#4B57A2" d="M86.364 36H33.636a7.91 7.91 0 0 0-7.909 7.91v71.181a7.907 7.907 0 0 0 7.91 7.909h52.727a7.906 7.906 0 0 0 7.909-7.909V43.909A7.91 7.91 0 0 0 86.363 36Zm-50.091 7.91a2.636 2.636 0 1 1 0 5.271 2.636 2.636 0 0 1 0-5.272Zm0 71.181a2.641 2.641 0 0 1-2.436-1.628 2.634 2.634 0 0 1 1.921-3.594 2.63 2.63 0 0 1 2.707 1.121 2.635 2.635 0 0 1-2.192 4.101ZM60 108.5a25.046 25.046 0 1 1 0-50.092 25.046 25.046 0 0 1 0 50.092Zm23.727 6.591a2.642 2.642 0 0 1-2.435-1.628 2.635 2.635 0 0 1 4.627-2.473 2.635 2.635 0 0 1-2.192 4.101Zm0-65.91a2.636 2.636 0 1 1 0-5.272 2.636 2.636 0 0 1 0 5.273Z"/></svg>