<svg xmlns="http://www.w3.org/2000/svg" width="120" height="120" fill="none" viewBox="0 0 120 120"><path fill="#4B57A2" d="M56.581 89.16c-2.692-5.176-6.966-13.123-13.384-14.416-1.104 1.698-2.578 2.278-4.42 1.738-6.671 9.408-10.625 22.526-9.454 34.074 6.423 11.486 6.925 47.098 28.788 36.498 9.349-4.532 6.855-15.857 4.296-23.808-4.159-12.904-5.917-20.415-5.826-34.087-.027 3.902-.909-1.745 0 0Z"/><path fill="#4B57A2" d="M27.309 94.859c1.73-7.211 4.628-14.9 9.164-20.845-1.186-4.153 4.806-6.337 6.73-2.65 5.092.703 9.554 5.254 13.21 10.895-.787-13.788-5.877-35.225-24.003-25.545-17.326 9.251-13.518 32.835-6.518 47.44.179-2.982.647-6.083 1.417-9.295 1.397-5.83-.77 3.212 0 0ZM65.77 69.542c1.633-5.6 4.266-14.228 10.31-16.752 1.415 1.45 2.974 1.73 4.676.841 8.38 7.924 14.822 20.014 15.928 31.57-3.717 11.482 1.084 52.77-23.677 40.469-8.222-4.083-7.085-15.468-6.112-22.986 1.676-12.966 1.54-20.233-1.125-33.142.789 3.823.55-1.887 0 0Z"/><path fill="#4B57A2" d="M95.59 69.413c-3.104-6.735-7.45-13.71-13.06-18.654.359-4.305-5.952-5.273-7.119-1.282-4.855 1.682-8.343 7.02-10.826 13.266-1.922-13.677-1.12-35.695 18.548-29.745 18.8 5.69 19.674 29.562 15.666 45.252-.759-2.888-1.825-5.839-3.209-8.837 1.385 2.998-2.508-5.444 0 0Z"/></svg>