<svg xmlns="http://www.w3.org/2000/svg" width="120" height="120" fill="none" viewBox="0 0 120 120"><path fill="#4B57A2" d="M79.773 24H39.227a9.16 9.16 0 0 0-6.518 2.735A9.431 9.431 0 0 0 30 33.343v82.315a9.432 9.432 0 0 0 2.71 6.607A9.162 9.162 0 0 0 39.226 125h40.546a9.162 9.162 0 0 0 6.518-2.735A9.433 9.433 0 0 0 89 115.658V33.342a9.432 9.432 0 0 0-2.71-6.607A9.16 9.16 0 0 0 79.774 24ZM59.5 119.173a3.43 3.43 0 0 1-1.927-.594 3.502 3.502 0 0 1-1.276-1.581 3.562 3.562 0 0 1-.194-2.034 3.531 3.531 0 0 1 .954-1.799 3.423 3.423 0 0 1 3.782-.75 3.476 3.476 0 0 1 1.551 1.304 3.55 3.55 0 0 1 .575 1.958 3.54 3.54 0 0 1-1.022 2.473 3.44 3.44 0 0 1-2.443 1.023Zm6.91-83.927H52.59a1.914 1.914 0 0 1-1.02-.695 1.961 1.961 0 0 1 0-2.359 1.913 1.913 0 0 1 1.02-.695h13.82c.406.112.764.356 1.02.695a1.96 1.96 0 0 1 0 2.36 1.914 1.914 0 0 1-1.02.694Z"/></svg>