<svg xmlns="http://www.w3.org/2000/svg" width="120" height="120" fill="none" viewBox="0 0 120 120"><path fill="#4B57A2" d="M103.017 90.996H69.192l-3.375-26.072c2.09-1.207 3.516-3.441 3.516-6.024a6.99 6.99 0 0 0-6.982-6.982c-3.83 0-6.981 3.132-6.981 6.982 0 2.595 1.448 4.838 3.555 6.041l-3.392 26.055h-38.81A6.726 6.726 0 0 0 10 97.718v15.64a6.725 6.725 0 0 0 6.722 6.722h86.295a6.726 6.726 0 0 0 6.723-6.722v-15.64a6.726 6.726 0 0 0-6.723-6.722Zm-43.461-.006 2.813-21.612 2.799 21.612h-5.612ZM44.3 111.522c-3.291 0-5.984-2.693-5.984-5.984a5.99 5.99 0 0 1 5.984-5.984 5.977 5.977 0 0 1 5.984 5.984 5.989 5.989 0 0 1-5.984 5.984Zm17.794 0a5.989 5.989 0 0 1-5.985-5.984 5.977 5.977 0 0 1 5.985-5.984 5.99 5.99 0 0 1 5.984 5.984c0 3.291-2.693 5.984-5.984 5.984Zm17.773 0c-3.291 0-5.984-2.693-5.984-5.984a5.99 5.99 0 0 1 5.984-5.984 5.977 5.977 0 0 1 5.985 5.984 5.99 5.99 0 0 1-5.985 5.984ZM51.874 48.326a1.987 1.987 0 0 0 0 2.813 2.01 2.01 0 0 0 2.833 0c4.268-4.27 11.23-4.27 15.5 0 .398.399.917.578 1.416.578a1.987 1.987 0 0 0 1.416-3.391c-5.845-5.845-15.34-5.845-21.165 0ZM43.416 39.85c5.067-5.068 11.83-7.86 19.03-7.86 7.222 0 13.964 2.792 19.05 7.86a1.98 1.98 0 0 0 1.417.597c.499 0 1.017-.2 1.396-.598a1.952 1.952 0 0 0 0-2.813C78.485 31.212 70.725 28 62.447 28c-8.259 0-16.019 3.212-21.864 9.036a1.987 1.987 0 0 0 0 2.813c.799.798 2.055.798 2.833 0Z"/><path fill="#4B57A2" d="M77.268 46.093c.518 0 1.017-.2 1.416-.599a1.986 1.986 0 0 0 0-2.812c-8.957-8.937-23.499-8.957-32.455 0a1.986 1.986 0 0 0 0 2.812 2.01 2.01 0 0 0 2.832 0c7.381-7.38 19.41-7.38 26.79 0a1.98 1.98 0 0 0 1.417.599Z"/></svg>