<svg xmlns="http://www.w3.org/2000/svg" width="32" height="33" fill="none" viewBox="0 0 32 33"><path fill="#4B57A2" fill-rule="evenodd" d="M14.475 11.617c.691-.93.939-1.912.158-2.778-1.754-2.453-2.933-3.97-3.672-4.7-1.406-1.39-3.72-1.202-4.937-.002-.654.645-.876.866-1.547 1.548C.736 9.428 3.017 17.34 9.082 23.411c6.063 6.07 13.975 8.352 17.723 4.601a49.439 49.439 0 0 0 1.559-1.56c1.193-1.261 1.374-3.472-.008-4.909-.709-.736-2.156-1.858-4.712-3.687-.783-.7-1.711-.548-2.563.01-.409.269-.707.54-1.27 1.104l-1.021 1.022c-.135.134-1.962-.78-3.736-2.556-1.774-1.777-2.689-3.604-2.555-3.738l1.022-1.023c.179-.178.264-.265.374-.38.228-.24.417-.457.58-.678Zm6.2 10.26 1.021-1.022c.31-.31.51-.5.674-.632 2.24 1.608 3.536 2.62 4.066 3.17.318.33.269.934-.008 1.226-.382.404-.88.902-1.49 1.49-2.424 2.425-8.81.583-13.971-4.583C5.804 16.358 3.963 9.97 6.368 7.563c.67-.679.881-.89 1.526-1.526.242-.238.9-.292 1.194-.001.57.562 1.626 1.915 3.18 4.08-.08.1-.181.212-.304.34-.09.095-.164.17-.328.334l-1.02 1.022c-1.738 1.738-.259 4.694 2.553 7.51 2.81 2.812 5.768 4.293 7.505 2.555Z" clip-rule="evenodd"/></svg>