<svg xmlns="http://www.w3.org/2000/svg" width="24" height="24" fill="none" viewBox="0 0 24 24"><path fill="red" d="M12 0C5.383 0 0 5.383 0 12s5.383 12 12 12 12-5.383 12-12S18.617 0 12 0Zm0 22.222C6.364 22.222 1.778 17.636 1.778 12 1.778 6.364 6.364 1.778 12 1.778c5.636 0 10.222 4.586 10.222 10.222 0 5.636-4.586 10.222-10.222 10.222Z"/><path fill="red" d="M12 18.222a1.18 1.18 0 1 0 0-2.36 1.18 1.18 0 0 0 0 2.36ZM12 15.02c.614 0 1.11-.497 1.11-1.11V7.555a1.11 1.11 0 1 0-2.221 0v6.355c0 .613.497 1.11 1.11 1.11Z"/></svg>