<svg width="127" height="130" viewBox="0 0 127 130" fill="none" xmlns="http://www.w3.org/2000/svg">
<path d="M121.641 36.9373V106.367L22.933 73.4673L22.252 4.71729L121.641 36.9373Z" fill="white" stroke="#7D95EA" stroke-width="1.39018"/>
<path d="M25.0229 0.287109L21.5479 3.76709L122.336 36.4271V107.327L126.507 103.157V32.2571L25.0229 0.287109Z" fill="#7D95EA"/>
<path d="M110.52 48.0573V117.487L11.8169 84.5873V15.1572L110.52 48.0573Z" fill="white" stroke="#657CCC" stroke-width="1.39018"/>
<path d="M14.597 10.7173L11.1221 14.1873L111.215 47.5573V118.457L115.385 114.277V43.3872L14.597 10.7173Z" fill="#657CCC"/>
<path d="M99.3983 59.1771V128.607L0.695312 95.7072V26.2771L99.3983 59.1771Z" fill="white" stroke="#405BB8" stroke-width="1.39018"/>
<path d="M3.47501 21.8372L0 25.3071L100.093 58.6771V129.577L104.264 125.407V54.5071L3.47501 21.8372Z" fill="#405BB8"/>
<path d="M65 66.8671L56.833 64.2871V82.7671L43.222 70.6171V78.2471L30 66.4871V94.9171L65 106.287V66.8671ZM43.87 93.6271L37.13 91.4271V88.4572L43.87 90.6471V93.6271ZM43.87 87.6771L37.13 85.4771V82.5071L43.87 84.7072V87.6771ZM53.593 96.7271L46.852 94.5271V91.5571L53.593 93.7471V96.7271ZM53.593 90.9071L46.852 88.7072V85.7371L53.593 87.9371V90.9071Z" fill="#6CB6E1"/>
<path d="M13.9023 89.2571L86.1913 113.357" stroke="#405BB8" stroke-width="1.5"/>
</svg>
