<svg width="127" height="130" viewBox="0 0 127 130" fill="none" xmlns="http://www.w3.org/2000/svg">
<path d="M121.641 36.9373V106.367L22.933 73.4673L22.252 4.71729L121.641 36.9373Z" fill="white" stroke="#7D95EA" stroke-width="1.39018"/>
<path d="M25.0229 0.287109L21.5479 3.76709L122.336 36.4271V107.327L126.507 103.157V32.2571L25.0229 0.287109Z" fill="#7D95EA"/>
<path d="M110.52 48.0573V117.487L11.8169 84.5873V15.1572L110.52 48.0573Z" fill="white" stroke="#657CCC" stroke-width="1.39018"/>
<path d="M14.597 10.7173L11.1221 14.1873L111.215 47.5573V118.457L115.385 114.277V43.3872L14.597 10.7173Z" fill="#657CCC"/>
<path d="M99.3983 59.1771V128.607L0.695312 95.7072V26.2771L99.3983 59.1771Z" fill="white" stroke="#405BB8" stroke-width="1.39018"/>
<path d="M3.47501 21.8372L0 25.3071L100.093 58.6771V129.577L104.264 125.407V54.5071L3.47501 21.8372Z" fill="#405BB8"/>
<path d="M13.9023 89.2571L86.1913 113.357" stroke="#405BB8" stroke-width="1.5"/>
<path d="M54.176 86.987C52.892 85.337 51.057 84.047 49.222 83.497C47.387 82.947 45.735 83.127 44.267 83.867L49.222 90.2871L54.176 86.987ZM63.902 80.5571C55.828 69.9171 42.799 65.6971 34.725 71.0171L39.496 77.4471C44.818 73.9571 53.626 76.7071 58.947 83.6771L63.902 80.5571ZM73.627 73.9571C60.232 56.3371 38.395 49.1871 25 58.1771L29.771 64.5971C40.597 57.4371 57.846 63.1271 68.673 77.2571L73.627 73.9571Z" fill="#6CB6E1"/>
<path d="M44 90.2871V98.7371L54 102.287V93.8871L44 90.2871Z" fill="#6CB6E1"/>
</svg>
