<svg width="127" height="130" viewBox="0 0 127 130" fill="none" xmlns="http://www.w3.org/2000/svg">
<path d="M121.641 36.6501V106.08L22.933 73.1801L22.252 4.43018L121.641 36.6501Z" fill="white" stroke="#7D95EA" stroke-width="1.39018"/>
<path d="M25.0229 0L21.5479 3.47998L122.336 36.14V107.04L126.507 102.87V31.97L25.0229 0Z" fill="#7D95EA"/>
<path d="M110.52 47.7701V117.2L11.8169 84.3002V14.8701L110.52 47.7701Z" fill="white" stroke="#657CCC" stroke-width="1.39018"/>
<path d="M14.597 10.4302L11.1221 13.9001L111.215 47.2701V118.17L115.385 113.99V43.1001L14.597 10.4302Z" fill="#657CCC"/>
<path d="M99.3983 58.87V128.3L0.695312 95.3999V25.96L99.3983 58.87Z" fill="white" stroke="#405BB8" stroke-width="1.39018"/>
<path d="M3.47501 21.55L0 25.02L100.093 58.39V129.29L104.264 125.12V54.22L3.47501 21.55Z" fill="#405BB8"/>
<path d="M67.587 79.71L63 66C63 66 61.323 65.43 60.875 65.28L52.698 62.52C52.576 60.64 51.112 59.26 49.281 59.26C48.183 59.26 47.329 59.76 46.597 60.51L35 57L32.929 63.02L30.122 71.1799C30 71.7699 30 72.3499 30 72.9299C30 76.0699 32.197 78.96 35.247 79.21C40.306 79.75 42.976 75.46 41.593 70.8L37.932 60.26L45.864 62.9C45.987 64.15 46.597 65.16 47.573 65.78V92.8799L40.5 91C40.486 91.71 40.495 92.4199 40.495 93.1299L34 93.5C34 93.5 34 94.25 34 95C34 95.75 34.027 95.52 34.881 95.77L37.566 96.6499C38.664 96.8999 41.349 97.8999 42.57 98.1499L57.458 103.3L63 105C63 105 62.965 102.8 63 103L56.5 97.5C56.5 96.93 56.5 95.5 56.5 95.5C55.402 95 50.136 93.51 50.136 93.51V89.24V66.1599C50.868 65.9099 51.478 65.53 51.844 65.03L60.02 67.9199L59.044 70.8L58.8 71.6799L55.871 79.71C55.871 79.83 55.749 80.21 55.749 80.21C55.749 80.21 54.61 85.38 60.875 87.46C65.024 88.84 69.376 84.69 67.587 79.71ZM33.173 69.4199L35.736 61.89L39.031 71.4299L33.173 69.4199ZM49.281 64.3999C48.305 64.3999 47.573 63.65 47.573 62.65C47.573 61.64 48.305 60.89 49.281 60.89C50.258 60.89 50.99 61.64 50.99 62.65C50.99 63.65 50.258 64.3999 49.281 64.3999ZM59.166 78.3301L61.729 70.8L65.024 80.3401L59.166 78.3301Z" fill="#6CB6E1"/>
<path d="M13.9023 88.97L86.1913 113.07" stroke="#405BB8" stroke-width="1.5"/>
</svg>
