<svg width="127" height="130" viewBox="0 0 127 130" fill="none" xmlns="http://www.w3.org/2000/svg">
<path d="M121.641 36.6499V106.08L22.9329 73.1799L22.252 4.42993L121.641 36.6499Z" fill="white" stroke="#7D95EA" stroke-width="1.39018"/>
<path d="M25.0229 0L21.5479 3.47998L122.336 36.1399V107.04L126.507 102.87V31.97L25.0229 0Z" fill="#7D95EA"/>
<path d="M110.52 47.77V117.2L11.8169 84.3V14.8701L110.52 47.77Z" fill="white" stroke="#657CCC" stroke-width="1.39018"/>
<path d="M14.597 10.4299L11.1221 13.8999L111.215 47.27V118.17L115.385 113.99V43.1001L14.597 10.4299Z" fill="#657CCC"/>
<path d="M99.3983 58.8899V128.32L0.695312 95.4199V25.99L99.3983 58.8899Z" fill="white" stroke="#405BB8" stroke-width="1.39018"/>
<path d="M3.47498 21.55L0 25.02L100.093 58.3899V129.29L104.264 125.12V54.22L3.47498 21.55Z" fill="#405BB8"/>
<path d="M13.9019 88.97L86.1909 113.07" stroke="#405BB8" stroke-width="1.5"/>
<path d="M66.991 73.4399C67.157 72.7699 67.5 71 67.5 71C67.5 71 46.715 59.85 40.5 56.5C40.5 56.5 40.1 58.2 39.976 58.71L66.991 73.4399ZM70 70C70 70 66.567 82.18 65.692 85.72C65.457 86.64 64.447 86.9599 63.436 86.4099L62.835 86.1001V84.26L64 85C63.963 84.99 63.989 84.59 66 77L39.002 62.6799L37.781 67.6101L37.68 68L36.07 67.48L36.175 67.0901C36.748 64.7701 39.5 54 39.5 54C46.678 57.98 70 70 70 70ZM60.561 75.3501L34.274 66.8999C33.558 66.6699 32 66.05 32 66.05C32 66.05 32 67.8899 32 68.4199V83.03C32 83.73 32 85 32 85C36.03 86.33 62.835 95 62.835 95C62.835 95 62.835 93.4599 62.835 92.9399V78.3301C62.829 77.0901 61.812 75.7501 60.561 75.3501Z" fill="#6CB6E1"/>
<path d="M48.8182 86.95C47.3272 86.49 44.0852 85.48 41.0972 84.54L35.3643 82.75V81.0701L59.7502 88.6399V90.3201C56.5882 89.3401 52.4182 88.07 48.8182 86.95Z" fill="white"/>
</svg>
