<svg width="127" height="130" viewBox="0 0 127 130" fill="none" xmlns="http://www.w3.org/2000/svg">
<path d="M121.641 36.6499V106.08L22.933 73.1799L22.252 4.42993L121.641 36.6499Z" fill="white" stroke="#7D95EA" stroke-width="1.39018"/>
<path d="M25.0229 0L21.5479 3.47998L122.336 36.1399V107.04L126.507 102.87V31.97L25.0229 0Z" fill="#7D95EA"/>
<path d="M110.52 47.77V117.2L11.8169 84.3V14.8701L110.52 47.77Z" fill="white" stroke="#657CCC" stroke-width="1.39018"/>
<path d="M14.597 10.4299L11.1221 13.8999L111.215 47.27V118.17L115.385 113.99V43.1001L14.597 10.4299Z" fill="#657CCC"/>
<path d="M99.3983 58.8899V128.32L0.695312 95.4199V25.99L99.3983 58.8899Z" fill="white" stroke="#405BB8" stroke-width="1.39018"/>
<path d="M3.47501 21.55L0 25.02L100.093 58.3899V129.29L104.264 125.12V54.22L3.47501 21.55Z" fill="#405BB8"/>
<path fill-rule="evenodd" clip-rule="evenodd" d="M49 68.4199L67 85.8101V88.8701L31 77.1499V74.0901L48 68.73V60H49L56 63V68.5L49 65V68.4199ZM65 90V106.5C63.668 106.04 32 95.5 32 95.5V79L65 90ZM36.362 96.53L40.191 97.76V88.1799C40.191 87.1099 39.349 85.9599 38.277 85.6499C37.204 85.3499 36.362 85.88 36.362 86.96V96.53ZM43.255 98.75L47.085 99.98V90.3999C47.085 89.3299 46.243 88.1799 45.17 87.8799C44.098 87.5699 43.255 88.0999 43.255 89.1799V98.75ZM50.149 101.05L53.979 102.28V92.6201C53.979 91.5501 53.136 90.4801 52.064 90.1001C50.991 89.7901 50.149 90.3299 50.149 91.3999V101.05ZM57.043 103.27L60.872 104.5V94.9199C60.872 93.8499 60.03 92.6999 58.957 92.3899C57.885 92.0899 57.043 92.6199 57.043 93.7V103.27Z" fill="#6CB6E1"/>
<path d="M13.9023 88.97L86.1913 113.07" stroke="#405BB8" stroke-width="1.5"/>
</svg>
