<svg width="127" height="130" viewBox="0 0 127 130" fill="none" xmlns="http://www.w3.org/2000/svg">
<path d="M121.641 36.6499V106.08L22.933 73.1799L22.252 4.42993L121.641 36.6499Z" fill="white" stroke="#7D95EA" stroke-width="1.39018"/>
<path d="M25.0229 0L21.5479 3.47998L122.336 36.1399V107.04L126.507 102.87V31.97L25.0229 0Z" fill="#7D95EA"/>
<path d="M110.52 47.77V117.2L11.8169 84.3V14.8701L110.52 47.77Z" fill="white" stroke="#657CCC" stroke-width="1.39018"/>
<path d="M14.597 10.4299L11.1221 13.8999L111.215 47.27V118.17L115.385 113.99V43.1001L14.597 10.4299Z" fill="#657CCC"/>
<path d="M99.3983 58.8899V128.32L0.695312 95.4199V25.99L99.3983 58.8899Z" fill="white" stroke="#405BB8" stroke-width="1.39018"/>
<path d="M3.47501 21.55L0 25.02L100.093 58.3899V129.29L104.264 125.12V54.22L3.47501 21.55Z" fill="#405BB8"/>
<path d="M13.9023 88.97L86.1913 113.07" stroke="#405BB8" stroke-width="1.5"/>
<path d="M63.9242 87.96C62.1812 85.96 59.7482 85.89 58.2852 87.73L55.0952 84.0301C56.4902 81.0001 55.9032 76.7001 53.6562 74.0901C52.9542 73.3401 52.2202 72.79 51.2582 72.43C49.2732 71.73 47.2102 72.4301 45.9552 74.5601C44.9582 76.2301 44.6762 78.4301 45.0242 80.5401L41.2222 81.7801C40.2692 79.0801 37.9922 77.5 35.9292 78.2C33.6672 78.94 32.5152 82.1301 33.3092 85.2601C34.1042 88.3901 36.5662 90.3401 38.8282 89.6001C40.8902 88.9101 42.0612 86.1901 41.6192 83.3401L45.4222 82.1102C45.8002 83.2002 46.3792 84.2401 47.1022 85.0901C49.3942 87.7101 52.5452 87.72 54.4112 85.23L57.6012 88.93C56.5662 91.3 57.0382 94.5801 58.8262 96.6001C60.7552 98.7901 63.4332 98.6301 64.8892 96.2701C66.2562 93.8901 65.8542 90.16 63.9242 87.96Z" fill="#6CB6E1"/>
<path fill-rule="evenodd" clip-rule="evenodd" d="M54.266 64.9999C53.332 67.6799 51.0781 68.8999 49.0491 67.9599C48.5371 67.7199 48.393 67.6199 47.982 67.2499C46.141 65.5899 45.4201 62.4099 46.3541 59.7299C47.3731 56.8399 49.9661 55.65 52.1431 57.09C54.3211 58.53 55.285 62.1099 54.266 64.9999Z" fill="#6CB6E1"/>
<path d="M49.458 66.6399H51.063V73.0601H49.458V66.6399Z" fill="#6CB6E1"/>
</svg>
