<svg width="127" height="130" viewBox="0 0 127 130" fill="none" xmlns="http://www.w3.org/2000/svg">
<path d="M121.641 36.6501V106.08L22.933 73.1802L22.252 4.43018L121.641 36.6501Z" fill="white" stroke="#7D95EA" stroke-width="1.39018"/>
<path d="M25.0229 0L21.5479 3.47998L122.336 36.14V107.04L126.507 102.87V31.97L25.0229 0Z" fill="#7D95EA"/>
<path d="M110.52 47.7701V117.2L11.8169 84.3002V14.8701L110.52 47.7701Z" fill="white" stroke="#657CCC" stroke-width="1.39018"/>
<path d="M14.597 10.4302L11.1221 13.9001L111.215 47.2701V118.17L115.385 113.99V43.1001L14.597 10.4302Z" fill="#657CCC"/>
<path d="M100.093 58.39L0 25.02V95.92L100.093 129.29V58.39Z" fill="white"/>
<path fill-rule="evenodd" clip-rule="evenodd" d="M0 25.02V95.92L100.093 129.29V58.39L0 25.02ZM1.39001 26.95V94.92L98.703 127.36V59.39L1.39001 26.95Z" fill="#405BB8"/>
<path d="M3.47501 21.55L0 25.02L100.093 58.39V129.29L104.264 125.12V54.22L3.47501 21.55Z" fill="#405BB8"/>
<path fill-rule="evenodd" clip-rule="evenodd" d="M19 78.9V90.47L27.585 93.3199V82.04C22.15 80.48 19 78.9 19 78.9ZM39.985 97.42L30.446 94.26V82.8C33.218 83.48 36.424 84.11 39.985 84.53V97.42ZM42.846 98.37L53.338 101.84V84.8101C52.072 85.0001 50.771 85.1 49.436 85.1C47.144 85.1 44.943 84.9999 42.846 84.8199V98.37ZM66.692 106.26L56.2 102.79V84.23C60.093 83.23 63.611 81.44 66.692 79.33V106.26ZM69.554 107.21L81 111V86.91V64.26C81 64.26 76.823 71.3 69.554 77.2V107.21Z" fill="#6CB6E1"/>
<path d="M13.9023 47.27V88.97L86.1913 113.07" stroke="#405BB8" stroke-width="1.5"/>
<path d="M38.287 71.3501C38.287 70.7001 38.147 70.1001 37.867 69.5701C37.587 69.0301 37.096 68.4002 36.392 67.6602C35.689 66.9202 35.04 66.2102 34.444 65.5302C33.849 64.8502 33.336 64.1601 32.905 63.4601C32.475 62.7601 32.144 62.0501 31.915 61.3301C31.685 60.6101 31.57 59.8301 31.57 59.0001C31.57 57.6001 31.979 56.6801 32.797 56.2501C33.615 55.8101 34.706 55.9102 36.069 56.5502V53.9302L37.781 54.9102V57.5901C39.094 58.5701 40.124 59.7901 40.87 61.2501C41.623 62.7001 42 64.2202 42 65.7902L38.362 63.6901C38.362 62.8301 38.219 62.0801 37.932 61.4501C37.644 60.8201 37.235 60.3502 36.705 60.0502C36.231 59.7702 35.861 59.7402 35.596 59.9302C35.338 60.1202 35.208 60.5201 35.208 61.1201C35.208 61.7401 35.359 62.3101 35.66 62.8501C35.962 63.3801 36.446 64.0001 37.114 64.7201C37.781 65.4301 38.409 66.1301 38.997 66.8301C39.593 67.5201 40.106 68.2102 40.536 68.9102C40.967 69.6102 41.304 70.3202 41.548 71.0602C41.792 71.8002 41.914 72.5802 41.914 73.4202C41.914 74.8402 41.523 75.7701 40.741 76.2101C39.966 76.6601 38.907 76.5701 37.566 75.9401V78.4401L35.854 77.4501V74.9401C34.29 73.8501 33.088 72.5401 32.249 71.0101C31.416 69.4801 31 67.8501 31 66.1401L34.627 68.2301C34.627 69.1801 34.807 70.0001 35.165 70.7101C35.531 71.4101 36.048 71.9501 36.715 72.3301C37.203 72.6101 37.587 72.6701 37.867 72.5001C38.147 72.3201 38.287 71.9401 38.287 71.3501Z" fill="#6CB6E1"/>
</svg>
