<svg width="127" height="130" viewBox="0 0 127 130" fill="none" xmlns="http://www.w3.org/2000/svg">
<path d="M121.641 36.6499V106.08L22.933 73.1799L22.252 4.42993L121.641 36.6499Z" fill="white" stroke="#7D95EA" stroke-width="1.39018"/>
<path d="M25.0229 0L21.5479 3.47998L122.336 36.1399V107.04L126.507 102.87V31.97L25.0229 0Z" fill="#7D95EA"/>
<path d="M110.52 47.77V117.2L11.8169 84.3V14.8701L110.52 47.77Z" fill="white" stroke="#657CCC" stroke-width="1.39018"/>
<path d="M14.597 10.4299L11.1221 13.8999L111.215 47.27V118.17L115.385 113.99V43.1001L14.597 10.4299Z" fill="#657CCC"/>
<path d="M99.3983 58.8899V128.32L0.695312 95.4199V25.99L99.3983 58.8899Z" fill="white" stroke="#405BB8" stroke-width="1.39018"/>
<path d="M3.47501 21.55L0 25.02L100.093 58.3899V129.29L104.264 125.12V54.22L3.47501 21.55Z" fill="#405BB8"/>
<path d="M13.9023 47.27V88.97L86.1913 113.07" stroke="#405BB8" stroke-width="1.5"/>
<path d="M52.0002 64L54.7232 68.6201L37.7222 78.8501L34.0023 72.8201L18.8232 81.95L21.4272 86.1699L32.3562 79.6001L36.0762 85.6299L57.3272 72.8401L60.5002 77.5L64.0002 65.5L52.0002 64Z" fill="#6CB6E1"/>
<path d="M60 84V96.2L66 98V85.79L60 84Z" fill="#6CB6E1"/>
<path d="M50 86V93.2L56 95V88L50 86Z" fill="#6CB6E1"/>
<path d="M70 78V99.1699L76 101V79.8301L70 78Z" fill="#6CB6E1"/>
<path d="M80 86V103.06L86 105V87.9399L80 86Z" fill="#6CB6E1"/>
</svg>
