<svg width="197" height="141" viewBox="0 0 197 141" fill="none" xmlns="http://www.w3.org/2000/svg">
<path d="M98.2575 91.0002L50 71.5407V22.8921L98.5 3.43262L147 22.8921V71.5407L98.2575 91.0002Z" fill="white" stroke="#405BB8"/>
<path d="M98.5 42.3516V91.0002" stroke="#405BB8"/>
<path d="M50 22.8921L98.5 42.3515L147 22.8921" stroke="#405BB8"/>
<path d="M99.9551 83.1602V47.2384C99.9551 44.7896 101.443 42.5865 103.715 41.6722L140.052 27.0487C142.68 25.9908 145.545 27.926 145.545 30.7595V66.864C145.545 69.3223 144.046 71.5319 141.761 72.4398L105.432 86.8774C102.806 87.9211 99.9551 85.9862 99.9551 83.1602Z" fill="#405BB8"/>
<path d="M102.44 22.6665L117.439 16.6158C120.016 15.5761 120.774 12.2901 118.912 10.2268L118.292 9.53918C117.367 8.51431 116.117 7.83957 114.753 7.62872L100.938 5.49324C100.444 5.41699 99.9436 5.4026 99.4467 5.45039L86.0857 6.73566C84.4521 6.8928 82.9541 7.71225 81.9407 9.00316L80.9325 10.2875C79.2876 12.3828 80.112 15.4704 82.5824 16.467L97.9502 22.6664C99.3903 23.2474 101 23.2474 102.44 22.6665Z" fill="#405BB8"/>
<path d="M80.1295 31.7163L95.4974 25.5168C97.9678 24.5202 98.7922 21.4326 97.1473 19.3373L96.139 18.053C95.1256 16.7621 93.6277 15.9426 91.9941 15.7855L78.4594 14.4835C78.0772 14.4467 77.6925 14.4467 77.3103 14.4835L63.7756 15.7855C62.142 15.9426 60.6441 16.7621 59.6307 18.053L58.6224 19.3373C56.9775 21.4326 57.8019 24.5202 60.2723 25.5168L75.6402 31.7163C77.0802 32.2972 78.6895 32.2972 80.1295 31.7163Z" fill="#DDDDDD"/>
<path d="M75.6127 10.6864L63.7808 15.5274C62.1239 16.2053 62.1239 18.5516 63.7808 19.2295L75.6127 24.0705C77.0688 24.6662 78.7007 24.6662 80.1568 24.0705L91.9887 19.2295C93.6456 18.5516 93.6456 16.2053 91.9887 15.5274L80.1568 10.6864C78.7007 10.0907 77.0688 10.0907 75.6127 10.6864Z" fill="white" stroke="#DDDDDD"/>
<path d="M122.809 31.2294L138.177 25.0299C140.648 24.0334 141.472 20.9458 139.827 18.8505L138.819 17.5661C137.806 16.2752 136.308 15.4558 134.674 15.2986L121.139 13.9967C120.757 13.9599 120.372 13.9599 119.99 13.9967L106.456 15.2986C104.822 15.4558 103.324 16.2752 102.311 17.5661L101.302 18.8505C99.6575 20.9458 100.482 24.0334 102.952 25.0299L118.32 31.2294C119.76 31.8104 121.369 31.8104 122.809 31.2294Z" fill="#405BB8"/>
<path d="M100.985 39.9863L121.29 31.795L116.994 26.323C115.981 25.0321 114.483 24.2126 112.849 24.0555L99.3143 22.7535C98.9322 22.7167 98.5474 22.7167 98.1653 22.7535L84.6306 24.0555C82.997 24.2126 81.499 25.0321 80.4856 26.323L79.4774 27.6073C77.8325 29.7026 78.6569 32.7902 81.1273 33.7868L96.4952 39.9863C97.9352 40.5672 99.5444 40.5672 100.985 39.9863Z" fill="#405BB8"/>
<path d="M98.4702 1.58785L86.0388 6.51C84.3787 7.16733 84.3465 9.50536 85.9879 10.2081L97.024 14.9331C98.6545 15.6312 98.637 17.9486 96.9961 18.622L84.615 23.7025C82.9557 24.3834 82.9623 26.7356 84.6254 27.4072L97.2471 32.5043C98.2064 32.8917 99.2785 32.8923 100.238 32.5061L134.63 18.6661C136.301 17.9936 136.301 15.6279 134.63 14.9554L101.436 1.59618C100.485 1.21341 99.4234 1.21043 98.4702 1.58785Z" fill="white" stroke="#405BB8"/>
<path d="M97.9856 6.83789L115.778 14.096C117.438 14.7734 117.437 17.1251 115.776 17.8006L108.2 20.8809" stroke="#405BB8"/>
<path d="M108.685 19L108.2 20.9459L111.352 21.1892" stroke="#405BB8"/>
<path d="M146.755 139L98 119.444V70.5556L147 51L196 70.5556V119.444L146.755 139Z" fill="white" stroke="#405BB8"/>
<path d="M147 90.1113V139" stroke="#405BB8"/>
<path d="M98 70.5557L147 90.1112L196 70.5557" stroke="#405BB8"/>
<path d="M148.47 131.162V95.0104C148.47 92.5575 149.963 90.3517 152.24 89.4401L189.043 74.7075C191.671 73.6557 194.53 75.5907 194.53 78.421V114.757C194.53 117.219 193.026 119.432 190.736 120.337L153.94 134.882C151.315 135.92 148.47 133.985 148.47 131.162Z" fill="#405BB8"/>
<path d="M144.766 53.3634L106.546 68.6995C104.872 69.3711 104.872 71.7403 106.546 72.4118L144.766 87.748C146.2 88.3234 147.8 88.3234 149.234 87.748L187.454 72.4118C189.128 71.7403 189.128 69.3711 187.454 68.6995L149.234 53.3634C147.8 52.788 146.2 52.788 144.766 53.3634Z" fill="#DDDDDD"/>
<path d="M49.6935 140.143L1 120.568V71.6295L49.9382 52.0542L98.8764 71.6295V120.568L49.6935 140.143Z" fill="white" stroke="#405BB8"/>
<path d="M49.9382 91.2046V140.143" stroke="#405BB8"/>
<path d="M1 71.6294L49.9382 91.2047L98.8764 71.6294" stroke="#405BB8"/>
<path d="M51.4065 132.298V96.1012C51.4065 93.6501 52.8975 91.4454 55.1723 90.5327L91.919 75.7894C94.547 74.735 97.4084 76.6701 97.4084 79.5017V115.883C97.4084 118.343 95.9061 120.555 93.6185 121.461L56.8799 136.017C54.2542 137.057 51.4065 135.122 51.4065 132.298Z" fill="#405BB8"/>
<path d="M71.2263 83.8643V102.124C71.2263 104.55 69.7654 106.737 67.5244 107.666L51.1616 114.451" stroke="white" stroke-width="3"/>
<path d="M20.4661 104.531H21.637L23.4909 107.556L22.2224 107.8L20.4661 104.531Z" fill="#6CB6E1"/>
<path d="M21.4907 104.775L23.1007 107.361L22.3689 107.507L20.8565 104.775H21.4907ZM21.7347 104.287H20.0271L22.0762 108.093L23.8813 107.702L21.7347 104.287Z" fill="#6CB6E1"/>
<path d="M20.6125 105.995L21.7347 104.678L23.8325 108.093L29.4919 103.263L29.7358 105.019L23.2959 110.874L20.6125 105.995Z" fill="#6CB6E1"/>
<path d="M29.3455 103.751L29.5406 104.97L23.3934 110.532L20.954 106.044L21.7346 105.117L23.491 107.995L23.7837 108.483L24.2228 108.142L29.3455 103.751ZM29.687 102.824L23.8813 107.702L21.7346 104.287L20.271 105.946L23.1495 111.264L29.9797 105.117L29.687 102.824Z" fill="#6CB6E1"/>
<path d="M18.7585 105.946L20.027 104.483L22.1249 107.898L27.8818 103.068L28.1746 105.068L21.5394 111.069L18.7585 105.946Z" fill="white"/>
<path d="M27.7843 103.263L28.0283 105.02L21.5395 110.874L18.8562 105.995L19.9783 104.727L21.9298 107.849L22.0762 108.093L22.2713 107.898L27.7843 103.263ZM27.9795 102.824L22.1738 107.703L20.0271 104.288L18.5635 105.947L21.4419 111.264L28.2722 105.117L27.9795 102.824Z" fill="#6CB6E1"/>
<path d="M22.125 111.02L28.565 105.215L28.2235 103.068H29.4919L29.7359 105.019L23.1008 111.02H22.125Z" fill="#6CB6E1"/>
<path d="M29.248 103.312L29.4919 104.97L23.0032 110.825H22.7592L28.6137 105.556L28.8089 105.361L28.7601 105.068L28.5162 103.312H29.248ZM29.6871 102.824H27.9795L28.1745 105.197L21.3442 111.295L23.1983 111.313L30.0286 105.166L29.6871 102.824Z" fill="#6CB6E1"/>
<path d="M13.1968 109.982V92.6049C13.1968 91.19 14.6258 90.2225 15.9396 90.748L33.8189 97.8997C36.0969 98.8109 37.5906 101.017 37.5906 103.471V120.848C37.5906 122.263 36.1615 123.231 34.8478 122.705L16.9684 115.553C14.6905 114.642 13.1968 112.436 13.1968 109.982Z" stroke="#C4D9F8" stroke-linecap="round" stroke-dasharray="5 5"/>
<path d="M98.2575 135L50 115.667V67.3333L98.5 48L147 67.3333V115.667L98.2575 135Z" fill="white" stroke="#405BB8"/>
<path d="M98.5 86.667V135" stroke="#405BB8"/>
<path d="M50 67.3335L98.5 86.6668L147 67.3335" stroke="#405BB8"/>
<path d="M99.9551 127.187V91.558C99.9551 89.1042 101.449 86.8978 103.728 85.9868L140.06 71.4597C142.687 70.4092 145.545 72.3442 145.545 75.1738V110.984C145.545 113.447 144.04 115.66 141.749 116.565L105.424 130.907C102.799 131.944 99.9551 130.009 99.9551 127.187Z" fill="#405BB8"/>
<path d="M96.2677 50.3448L58.5118 65.4771C56.8372 66.1482 56.8372 68.5188 58.5118 69.19L96.2677 84.3222C97.7004 84.8965 99.2993 84.8965 100.732 84.3222L138.488 69.19C140.163 68.5188 140.163 66.1482 138.488 65.4771L100.732 50.3448C99.2993 49.7706 97.7004 49.7706 96.2677 50.3448Z" fill="#DDDDDD"/>
<circle r="3.44137" transform="matrix(0.866025 0.5 -2.20305e-08 1 88.0196 91.0278)" fill="#6CB6E1"/>
<circle r="2.94137" transform="matrix(0.866025 0.5 -2.20305e-08 1 87.0365 92.0112)" fill="white" stroke="#6CB6E1"/>
<circle r="15.3143" transform="matrix(0.866025 0.5 -2.20305e-08 1 72.7374 100.824)" fill="#6CB6E1"/>
<circle r="15.2404" transform="matrix(0.866025 0.5 -2.20305e-08 1 71.1985 102.335)" fill="white" stroke="#6CB6E1" stroke-width="1.39"/>
<path fill-rule="evenodd" clip-rule="evenodd" d="M63.5349 104.056C65.2031 101.903 68.0132 101.48 71.1986 103.319C74.384 105.158 77.1941 108.826 78.8623 112.905C77.1941 115.058 74.384 115.482 71.1986 113.643C68.0132 111.804 65.2031 108.135 63.5349 104.056Z" fill="#6CB6E1"/>
<circle r="4.91625" transform="matrix(0.866025 0.5 -2.20305e-08 1 71.1985 95.9442)" fill="#6CB6E1"/>
<path d="M37.876 26.3389L37.876 45.9817L4.38012 34.9734L4.38012 15.3306L37.876 26.3389Z" fill="#405BB8"/>
<path d="M4.38017 15.3306L2 16.5206L35.6198 27.5289V47.1653L38 45.9752V26.3388L4.38017 15.3306Z" fill="#405BB8"/>
<path d="M35.6199 27.5288L35.6199 47.1652L2.00002 36.1634L2.00002 16.5206L35.6199 27.5288Z" fill="#6CB6E1"/>
<circle r="5.05785" transform="matrix(0.866025 0.5 -2.20305e-08 1 8.9564 29.4691)" fill="white"/>
<circle r="1.78512" transform="matrix(0.866025 0.5 -2.20305e-08 1 31.3726 40.0312)" fill="white"/>
<circle r="1.78512" transform="matrix(0.866025 0.5 -2.20305e-08 1 26.7349 38.5434)" fill="white"/>
<circle r="1.78512" transform="matrix(0.866025 0.5 -2.20305e-08 1 22.097 37.0561)" fill="white"/>
</svg>
