<svg width="166" height="47" viewBox="0 0 166 47" fill="none" xmlns="http://www.w3.org/2000/svg">
<g clip-path="url(#clip0)">
<path d="M21.2822 40.7227C15.9827 40.7227 11.6709 38.9883 8.34668 35.5195C5.02246 32.0267 3.36035 27.3656 3.36035 21.5361V20.3076C3.36035 16.4294 4.09505 12.9727 5.56445 9.9375C7.05794 6.87826 9.12956 4.49349 11.7793 2.7832C14.4531 1.04883 17.3438 0.181641 20.4512 0.181641C25.5339 0.181641 29.4844 1.85579 32.3027 5.2041C35.1211 8.55241 36.5303 13.346 36.5303 19.585V22.3672H10.0449C10.1413 26.2214 11.2614 29.3408 13.4053 31.7256C15.5732 34.0863 18.3193 35.2666 21.6436 35.2666C24.0042 35.2666 26.0036 34.7848 27.6416 33.8213C29.2796 32.8577 30.7129 31.5811 31.9414 29.9912L36.0244 33.1709C32.7484 38.2054 27.8343 40.7227 21.2822 40.7227ZM20.4512 5.67383C17.7533 5.67383 15.4889 6.66146 13.6582 8.63672C11.8275 10.5879 10.6953 13.334 10.2617 16.875H29.8457V16.3691C29.653 12.9727 28.7376 10.347 27.0996 8.49219C25.4616 6.61328 23.2454 5.67383 20.4512 5.67383Z" fill="#007CD7"/>
<path d="M51.6504 19.5693C52.875 19.5693 53.945 19.1982 54.8604 18.4561C55.7757 17.7139 56.2829 16.7861 56.3818 15.6729H59.6289C59.5671 16.8232 59.1712 17.918 58.4414 18.957C57.7116 19.9961 56.7344 20.8249 55.5098 21.4434C54.2975 22.0618 53.0111 22.3711 51.6504 22.3711C48.9167 22.3711 46.7396 21.4619 45.1191 19.6436C43.5111 17.8128 42.707 15.3141 42.707 12.1475V11.5723C42.707 9.61784 43.0658 7.87988 43.7832 6.3584C44.5007 4.83691 45.5273 3.6556 46.8633 2.81445C48.2116 1.97331 49.8011 1.55273 51.6318 1.55273C53.8831 1.55273 55.751 2.22689 57.2354 3.5752C58.7321 4.9235 59.5299 6.67383 59.6289 8.82617H56.3818C56.2829 7.52734 55.7881 6.46354 54.8975 5.63477C54.0192 4.79362 52.9307 4.37305 51.6318 4.37305C49.8877 4.37305 48.5332 5.00391 47.5684 6.26562C46.6159 7.51497 46.1396 9.32715 46.1396 11.7021V12.3516C46.1396 14.6647 46.6159 16.446 47.5684 17.6953C48.5208 18.9447 49.8815 19.5693 51.6504 19.5693ZM62.5791 11.7764C62.5791 9.80957 62.9626 8.04069 63.7295 6.46973C64.5088 4.89876 65.585 3.68652 66.958 2.83301C68.3434 1.97949 69.9206 1.55273 71.6895 1.55273C74.4232 1.55273 76.6312 2.49902 78.3135 4.3916C80.0081 6.28418 80.8555 8.80143 80.8555 11.9434V12.1846C80.8555 14.139 80.4782 15.8955 79.7236 17.4541C78.9814 19.0003 77.9115 20.2064 76.5137 21.0723C75.1283 21.9382 73.5326 22.3711 71.7266 22.3711C69.0052 22.3711 66.7972 21.4248 65.1025 19.5322C63.4202 17.6396 62.5791 15.1348 62.5791 12.0176V11.7764ZM66.0303 12.1846C66.0303 14.4111 66.5436 16.1986 67.5703 17.5469C68.6094 18.8952 69.9948 19.5693 71.7266 19.5693C73.4707 19.5693 74.8561 18.889 75.8828 17.5283C76.9095 16.1553 77.4229 14.238 77.4229 11.7764C77.4229 9.57454 76.8971 7.79329 75.8457 6.43262C74.8066 5.05957 73.4212 4.37305 71.6895 4.37305C69.9948 4.37305 68.6279 5.0472 67.5889 6.39551C66.5498 7.74382 66.0303 9.6735 66.0303 12.1846ZM88.3887 1.92383L88.4814 4.15039C89.9535 2.41862 91.9388 1.55273 94.4375 1.55273C97.2454 1.55273 99.1566 2.62891 100.171 4.78125C100.839 3.81641 101.705 3.03711 102.769 2.44336C103.845 1.84961 105.113 1.55273 106.572 1.55273C110.976 1.55273 113.215 3.88444 113.289 8.54785V22H109.856V8.75195C109.856 7.31706 109.529 6.24707 108.873 5.54199C108.217 4.82454 107.117 4.46582 105.57 4.46582C104.296 4.46582 103.239 4.84928 102.397 5.61621C101.556 6.37077 101.068 7.39128 100.932 8.67773V22H97.4805V8.84473C97.4805 5.92546 96.0518 4.46582 93.1943 4.46582C90.943 4.46582 89.403 5.42448 88.5742 7.3418V22H85.1416V1.92383H88.3887Z" fill="#242424"/>
<path d="M50.0234 40.6367C50.0234 40.0508 49.8008 39.5977 49.3555 39.2773C48.918 38.9492 48.1484 38.668 47.0469 38.4336C45.9531 38.1992 45.082 37.918 44.4336 37.5898C43.793 37.2617 43.3164 36.8711 43.0039 36.418C42.6992 35.9648 42.5469 35.4258 42.5469 34.8008C42.5469 33.7617 42.9844 32.8828 43.8594 32.1641C44.7422 31.4453 45.8672 31.0859 47.2344 31.0859C48.6719 31.0859 49.8359 31.457 50.7266 32.1992C51.625 32.9414 52.0742 33.8906 52.0742 35.0469H49.8945C49.8945 34.4531 49.6406 33.9414 49.1328 33.5117C48.6328 33.082 48 32.8672 47.2344 32.8672C46.4453 32.8672 45.8281 33.0391 45.3828 33.3828C44.9375 33.7266 44.7148 34.1758 44.7148 34.7305C44.7148 35.2539 44.9219 35.6484 45.3359 35.9141C45.75 36.1797 46.4961 36.4336 47.5742 36.6758C48.6602 36.918 49.5391 37.207 50.2109 37.543C50.8828 37.8789 51.3789 38.2852 51.6992 38.7617C52.0273 39.2305 52.1914 39.8047 52.1914 40.4844C52.1914 41.6172 51.7383 42.5273 50.832 43.2148C49.9258 43.8945 48.75 44.2344 47.3047 44.2344C46.2891 44.2344 45.3906 44.0547 44.6094 43.6953C43.8281 43.3359 43.2148 42.8359 42.7695 42.1953C42.332 41.5469 42.1133 40.8477 42.1133 40.0977H44.2812C44.3203 40.8242 44.6094 41.4023 45.1484 41.832C45.6953 42.2539 46.4141 42.4648 47.3047 42.4648C48.125 42.4648 48.7812 42.3008 49.2734 41.9727C49.7734 41.6367 50.0234 41.1914 50.0234 40.6367ZM54.4414 37.543C54.4414 36.3008 54.6836 35.1836 55.168 34.1914C55.6602 33.1992 56.3398 32.4336 57.207 31.8945C58.082 31.3555 59.0781 31.0859 60.1953 31.0859C61.9219 31.0859 63.3164 31.6836 64.3789 32.8789C65.4492 34.0742 65.9844 35.6641 65.9844 37.6484V37.8008C65.9844 39.0352 65.7461 40.1445 65.2695 41.1289C64.8008 42.1055 64.125 42.8672 63.2422 43.4141C62.3672 43.9609 61.3594 44.2344 60.2188 44.2344C58.5 44.2344 57.1055 43.6367 56.0352 42.4414C54.9727 41.2461 54.4414 39.6641 54.4414 37.6953V37.543ZM56.6211 37.8008C56.6211 39.207 56.9453 40.3359 57.5938 41.1875C58.25 42.0391 59.125 42.4648 60.2188 42.4648C61.3203 42.4648 62.1953 42.0352 62.8438 41.1758C63.4922 40.3086 63.8164 39.0977 63.8164 37.543C63.8164 36.1523 63.4844 35.0273 62.8203 34.168C62.1641 33.3008 61.2891 32.8672 60.1953 32.8672C59.125 32.8672 58.2617 33.293 57.6055 34.1445C56.9492 34.9961 56.6211 36.2148 56.6211 37.8008ZM71.0586 44H68.8906V26H71.0586V44ZM82.3672 42.7461C81.5234 43.7383 80.2852 44.2344 78.6523 44.2344C77.3008 44.2344 76.2695 43.8438 75.5586 43.0625C74.8555 42.2734 74.5 41.1094 74.4922 39.5703V31.3203H76.6602V39.5117C76.6602 41.4336 77.4414 42.3945 79.0039 42.3945C80.6602 42.3945 81.7617 41.7773 82.3086 40.543V31.3203H84.4766V44H82.4141L82.3672 42.7461ZM90.7227 28.25V31.3203H93.0898V32.9961H90.7227V40.8594C90.7227 41.3672 90.8281 41.75 91.0391 42.0078C91.25 42.2578 91.6094 42.3828 92.1172 42.3828C92.3672 42.3828 92.7109 42.3359 93.1484 42.2422V44C92.5781 44.1562 92.0234 44.2344 91.4844 44.2344C90.5156 44.2344 89.7852 43.9414 89.293 43.3555C88.8008 42.7695 88.5547 41.9375 88.5547 40.8594V32.9961H86.2461V31.3203H88.5547V28.25H90.7227ZM97.9883 44H95.8203V31.3203H97.9883V44ZM95.6445 27.957C95.6445 27.6055 95.75 27.3086 95.9609 27.0664C96.1797 26.8242 96.5 26.7031 96.9219 26.7031C97.3438 26.7031 97.6641 26.8242 97.8828 27.0664C98.1016 27.3086 98.2109 27.6055 98.2109 27.957C98.2109 28.3086 98.1016 28.6016 97.8828 28.8359C97.6641 29.0703 97.3438 29.1875 96.9219 29.1875C96.5 29.1875 96.1797 29.0703 95.9609 28.8359C95.75 28.6016 95.6445 28.3086 95.6445 27.957ZM100.895 37.543C100.895 36.3008 101.137 35.1836 101.621 34.1914C102.113 33.1992 102.793 32.4336 103.66 31.8945C104.535 31.3555 105.531 31.0859 106.648 31.0859C108.375 31.0859 109.77 31.6836 110.832 32.8789C111.902 34.0742 112.438 35.6641 112.438 37.6484V37.8008C112.438 39.0352 112.199 40.1445 111.723 41.1289C111.254 42.1055 110.578 42.8672 109.695 43.4141C108.82 43.9609 107.812 44.2344 106.672 44.2344C104.953 44.2344 103.559 43.6367 102.488 42.4414C101.426 41.2461 100.895 39.6641 100.895 37.6953V37.543ZM103.074 37.8008C103.074 39.207 103.398 40.3359 104.047 41.1875C104.703 42.0391 105.578 42.4648 106.672 42.4648C107.773 42.4648 108.648 42.0352 109.297 41.1758C109.945 40.3086 110.27 39.0977 110.27 37.543C110.27 36.1523 109.938 35.0273 109.273 34.168C108.617 33.3008 107.742 32.8672 106.648 32.8672C105.578 32.8672 104.715 33.293 104.059 34.1445C103.402 34.9961 103.074 36.2148 103.074 37.8008ZM117.207 31.3203L117.277 32.9141C118.246 31.6953 119.512 31.0859 121.074 31.0859C123.754 31.0859 125.105 32.5977 125.129 35.6211V44H122.961V35.6094C122.953 34.6953 122.742 34.0195 122.328 33.582C121.922 33.1445 121.285 32.9258 120.418 32.9258C119.715 32.9258 119.098 33.1133 118.566 33.4883C118.035 33.8633 117.621 34.3555 117.324 34.9648V44H115.156V31.3203H117.207ZM135.781 40.6367C135.781 40.0508 135.559 39.5977 135.113 39.2773C134.676 38.9492 133.906 38.668 132.805 38.4336C131.711 38.1992 130.84 37.918 130.191 37.5898C129.551 37.2617 129.074 36.8711 128.762 36.418C128.457 35.9648 128.305 35.4258 128.305 34.8008C128.305 33.7617 128.742 32.8828 129.617 32.1641C130.5 31.4453 131.625 31.0859 132.992 31.0859C134.43 31.0859 135.594 31.457 136.484 32.1992C137.383 32.9414 137.832 33.8906 137.832 35.0469H135.652C135.652 34.4531 135.398 33.9414 134.891 33.5117C134.391 33.082 133.758 32.8672 132.992 32.8672C132.203 32.8672 131.586 33.0391 131.141 33.3828C130.695 33.7266 130.473 34.1758 130.473 34.7305C130.473 35.2539 130.68 35.6484 131.094 35.9141C131.508 36.1797 132.254 36.4336 133.332 36.6758C134.418 36.918 135.297 37.207 135.969 37.543C136.641 37.8789 137.137 38.2852 137.457 38.7617C137.785 39.2305 137.949 39.8047 137.949 40.4844C137.949 41.6172 137.496 42.5273 136.59 43.2148C135.684 43.8945 134.508 44.2344 133.062 44.2344C132.047 44.2344 131.148 44.0547 130.367 43.6953C129.586 43.3359 128.973 42.8359 128.527 42.1953C128.09 41.5469 127.871 40.8477 127.871 40.0977H130.039C130.078 40.8242 130.367 41.4023 130.906 41.832C131.453 42.2539 132.172 42.4648 133.062 42.4648C133.883 42.4648 134.539 42.3008 135.031 41.9727C135.531 41.6367 135.781 41.1914 135.781 40.6367Z" fill="#007CD7"/>
<path d="M144.153 27.6035L144.194 28.5332C144.759 27.8223 145.498 27.4668 146.409 27.4668C147.972 27.4668 148.761 28.3486 148.774 30.1123V35H147.51V30.1055C147.505 29.5723 147.382 29.1781 147.141 28.9229C146.904 28.6676 146.532 28.54 146.026 28.54C145.616 28.54 145.256 28.6494 144.946 28.8682C144.636 29.0869 144.395 29.374 144.222 29.7295V35H142.957V27.6035H144.153ZM153.751 35.1367C152.748 35.1367 151.933 34.8086 151.304 34.1523C150.675 33.4915 150.36 32.6097 150.36 31.5068V31.2744C150.36 30.5407 150.499 29.8867 150.777 29.3125C151.06 28.7337 151.452 28.2826 151.953 27.959C152.459 27.6309 153.006 27.4668 153.594 27.4668C154.555 27.4668 155.303 27.7835 155.836 28.417C156.369 29.0505 156.636 29.9574 156.636 31.1377V31.6641H151.625C151.643 32.3932 151.855 32.9834 152.261 33.4346C152.671 33.8812 153.19 34.1045 153.819 34.1045C154.266 34.1045 154.644 34.0133 154.954 33.8311C155.264 33.6488 155.535 33.4072 155.768 33.1064L156.54 33.708C155.92 34.6605 154.991 35.1367 153.751 35.1367ZM153.594 28.5059C153.083 28.5059 152.655 28.6927 152.309 29.0664C151.962 29.4355 151.748 29.9551 151.666 30.625H155.371V30.5293C155.335 29.8867 155.161 29.39 154.852 29.0391C154.542 28.6836 154.122 28.5059 153.594 28.5059ZM159.821 25.8125V27.6035H161.202V28.5811H159.821V33.168C159.821 33.4642 159.883 33.6875 160.006 33.8379C160.129 33.9837 160.339 34.0566 160.635 34.0566C160.781 34.0566 160.981 34.0293 161.236 33.9746V35C160.904 35.0911 160.58 35.1367 160.266 35.1367C159.701 35.1367 159.274 34.9658 158.987 34.624C158.7 34.2822 158.557 33.7969 158.557 33.168V28.5811H157.21V27.6035H158.557V25.8125H159.821Z" fill="#5F5F5F"/>
</g>
<defs>
<clipPath id="clip0">
<rect width="166" height="47" fill="white"/>
</clipPath>
</defs>
</svg>
