<svg width="821" height="592" viewBox="0 0 821 592" fill="none" xmlns="http://www.w3.org/2000/svg">
<!--<circle cx="161" cy="474" r="14" fill="white" stroke="#C4D9F8" stroke-dasharray="5 5"/>-->
<path d="M150.757 331.865L16.3535 397.862C14.7513 398.649 14.9039 400.981 16.5949 401.552L122.231 437.24C122.724 437.407 123.263 437.375 123.732 437.151L260.067 372.114C261.686 371.342 261.549 368.995 259.851 368.416L152.284 331.767C151.782 331.596 151.233 331.631 150.757 331.865Z" fill="#405BB8" stroke="#405BB8"/>
<path d="M150.757 326.365L16.3535 392.362C14.7513 393.149 14.9039 395.481 16.5949 396.052L122.231 431.74C122.724 431.907 123.263 431.875 123.732 431.651L260.067 366.614C261.686 365.842 261.549 363.495 259.851 362.916L152.284 326.267C151.782 326.096 151.233 326.131 150.757 326.365Z" fill="white" stroke="#405BB8"/>
<path d="M153.572 333L37 389.868L129.756 421L248 364.962L153.572 333Z" fill="white" stroke="#405BB8"/>
<ellipse cx="74" cy="408.5" rx="6" ry="2.5" fill="#405BB8"/>
<path d="M197 399L370.5 458" stroke="#C4D9F8" stroke-linecap="round" stroke-dasharray="5 5"/>
<g clip-path="url(#clip0)">
<path d="M417.4 332.9V111.8L731.8 216.6L731.9 251.3" stroke="#405BB8"/>
<path d="M431.9 362.6V142.5L745.3 246.9L745.8 467.6L431.9 362.6Z" fill="white"/>
<path d="M432.4 143.1L744.8 247.2L745.3 466.8L432.4 362.2V143.1ZM431.4 141.8V363L746.3 468.3L745.8 246.6L431.4 141.8Z" fill="#405BB8"/>
<path d="M671.2 535.1L562.2 591.3L244 483.4L301.1 455.2" stroke="#405BB8"/>
<path d="M442.9 157.5C439.6 155.6 436.9 157.1 436.9 161C436.9 164.8 439.6 169.5 442.9 171.4C446.2 173.3 448.9 171.8 448.9 167.9C448.9 164.1 446.2 159.4 442.9 157.5Z" fill="white" stroke="#405BB8"/>
<path d="M442.9 178.3C439.6 176.4 436.9 177.9 436.9 181.8C436.9 185.6 439.6 190.3 442.9 192.2C446.2 194.1 448.9 192.6 448.9 188.7C448.9 184.9 446.2 180.2 442.9 178.3Z" fill="white" stroke="#405BB8"/>
<path d="M442.9 199.2C439.6 197.3 436.9 198.8 436.9 202.7C436.9 206.5 439.6 211.2 442.9 213.1C446.2 215 448.9 213.5 448.9 209.6C448.9 205.7 446.2 201.1 442.9 199.2Z" fill="#DDDDDD"/>
<path d="M228.2 124.6C224.6 122.5 221.7 124.2 221.7 128.4C221.7 132.6 224.6 137.6 228.2 139.7C231.8 141.8 234.7 140.1 234.7 135.9C234.7 131.8 231.8 126.7 228.2 124.6Z" stroke="#C4D9F8" stroke-linecap="round" stroke-dasharray="5 5"/>
<path d="M399.6 180.3C396 178.2 393.1 179.9 393.1 184.1C393.1 188.3 396 193.3 399.6 195.4C403.2 197.5 406.1 195.8 406.1 191.6C406.2 187.4 403.2 182.3 399.6 180.3Z" stroke="#C4D9F8" stroke-linecap="round" stroke-dasharray="5 5"/>
<path d="M457 150.1V371.3" stroke="#405BB8"/>
<path d="M725 267.1V440.5C725 443.5 722 445.6 719.2 444.6L479.9 360.8C477.1 359.8 475.2 357.1 475.2 354.1V180.8C475.2 177.8 478.2 175.7 481 176.7L720.3 260.5C723.1 261.4 725 264.1 725 267.1Z" fill="white" stroke="#405BB8"/>
<path d="M485.4 187.6C484.2 186.9 483.2 187.5 483.2 188.9C483.2 190.3 484.2 192.1 485.4 192.8C486.6 193.5 487.6 192.9 487.6 191.5C487.7 190 486.7 188.3 485.4 187.6Z" fill="#6CB6E1"/>
<path d="M491.8 189.3C490.6 188.6 489.6 189.2 489.6 190.6C489.6 192 490.6 193.8 491.8 194.5C493 195.2 494 194.6 494 193.2C494.1 191.8 493.1 190 491.8 189.3Z" fill="#D0C6BB"/>
<path d="M498.1 191.4C496.9 190.7 495.9 191.3 495.9 192.7C495.9 194.1 496.9 195.9 498.1 196.6C499.3 197.3 500.3 196.7 500.3 195.3C500.3 193.8 499.3 192.1 498.1 191.4Z" fill="#405BB8"/>
<path d="M475.2 196L725 284.3" stroke="#405BB8"/>
<path d="M241.3 457.3L431.1 363.6L745.1 468.4L558.1 564.8L241.3 457.3Z" fill="white"/>
<path d="M431.1 364.1L743.7 468.4L558 564.1L242.5 457.1L431.1 364.1ZM431.1 363L240 457.4L558.2 565.3L746.4 468.3L431.1 363Z" fill="#405BB8"/>
<path d="M669.2 466.3H664.8V471.5H669.2V466.3Z" fill="#405BB8" stroke="#405BB8"/>
<path d="M395 489.3L437.5 467.1C439.3 466.2 441.3 466 443.2 466.6L507.2 488.1C509.6 488.9 509.9 492.2 507.6 493.4L464.5 516C462.7 516.9 460.6 517.1 458.7 516.4L395.3 494.6C393 493.8 392.8 490.5 395 489.3Z" fill="#DDDDDD"/>
<path d="M375.9 424.4L437.1 394.2C438.8 393.4 440.7 393.2 442.5 393.8L667.6 468.9C669.7 469.6 669.9 472.4 667.9 473.4L606.9 504.8C605.2 505.7 603.2 505.8 601.4 505.2L376.3 428.8C374.1 428.2 374 425.4 375.9 424.4Z" fill="#405BB8" stroke="#405BB8"/>
<path d="M379.6 421.3H374.5V426.7H379.6V421.3Z" fill="#405BB8" stroke="#405BB8"/>
<path d="M375.9 419.4L437.1 389.2C438.8 388.4 440.7 388.2 442.5 388.8L667.6 463.9C669.7 464.6 669.9 467.4 667.9 468.4L606.9 499.8C605.2 500.7 603.2 500.8 601.4 500.2L376.3 423.8C374.1 423.2 374 420.4 375.9 419.4Z" fill="white" stroke="#405BB8"/>
<path d="M270.1 189.1L360.1 218.8C363.4 219.9 366.9 220.2 370.3 219.4C371.2 219.2 372.2 218.9 373 218.5C380 215.3 382.7 208.2 383.1 207C385.5 200.3 384.5 191.8 379.9 186C373.3 177.6 359.7 171.9 359.7 171.9C359.6 169.6 359.3 166.1 358 162.1C357 159.1 352.6 147.9 341.6 143.7C339.6 143 335.7 141.5 331.1 142.2C327.4 142.8 322.4 144.8 322.4 144.8C322 143.5 313.9 118.3 293.3 114.6C291.6 114.3 276.9 111.8 270 120.4C267.2 123.9 264.7 130.5 265.6 137.1C265.6 137.2 265.6 137.3 265.6 137.3C265.6 137.3 261.3 137.7 257.2 139.6C251.3 142.3 248.5 148.2 248 149.4C243.1 160.6 251.3 174.4 258.4 181.4C261.2 184.2 264.2 186.2 266.6 187.6C267.7 188.2 268.8 188.7 270.1 189.1Z" fill="#405BB8" stroke="#405BB8"/>
<path d="M264.3 194.9L354.3 224.6C357.6 225.7 361.1 226 364.5 225.2C365.4 225 366.4 224.7 367.2 224.3C374.2 221.1 376.9 214 377.3 212.8C379.7 206.1 378.7 197.6 374.1 191.8C367.5 183.4 353.9 177.7 353.9 177.7C353.8 175.4 353.5 171.9 352.2 167.9C351.2 164.9 346.8 153.7 335.8 149.5C333.8 148.8 329.9 147.3 325.3 148C321.6 148.6 316.6 150.6 316.6 150.6C316.2 149.3 308.1 124.1 287.5 120.4C285.8 120.1 271.1 117.6 264.2 126.2C261.4 129.7 258.9 136.3 259.8 142.9C259.8 143 259.8 143.1 259.8 143.1C259.8 143.1 255.5 143.5 251.4 145.4C245.5 148.1 242.7 154 242.2 155.2C237.3 166.4 245.5 180.2 252.6 187.2C255.4 190 258.4 192 260.8 193.4C261.9 194 263.1 194.5 264.3 194.9Z" fill="white" stroke="#405BB8"/>
<path d="M431.4 141.8L440.7 134.5L755.1 239.3V454.8C755.1 458.4 753.5 461.9 750.8 464.3L746.3 468.3L745.8 246.6L431.4 141.8Z" fill="#405BB8"/>
<path d="M746.3 468.3V475.8C746.3 477.9 745.1 479.9 743.2 480.9L558.1 576.3L240 468.4V457.4L558.2 565.3L746.3 468.3Z" fill="#405BB8"/>
<path d="M483.2 210.5V353.8" stroke="#DDDDDD" stroke-width="2" stroke-linecap="round"/>
<path d="M490.8 254.6V357.5" stroke="#DDDDDD" stroke-width="2" stroke-linecap="round"/>
<path d="M715.7 300.4L490.8 224.8V217.7L715.7 293.3V300.4Z" fill="#DDDDDD"/>
<path d="M715.7 312.2L490.8 236.6V229.6L715.7 305.1V312.2Z" fill="#DDDDDD"/>
<path d="M715.7 323.5L490.8 247.9V240.8L715.7 316.4V323.5Z" fill="#DDDDDD"/>
<path d="M682.9 325L498.1 262.4V255.3L682.9 317.5V325Z" fill="#DDDDDD"/>
<path d="M682.9 337L498.1 274.4V267.4L682.9 329.6V337Z" fill="#DDDDDD"/>
<path d="M682.9 348.5L498.1 285.9V278.8L682.9 341V348.5Z" fill="#DDDDDD"/>
<path d="M682.9 360.6L498.1 298V290.9L682.9 353.1V360.6Z" fill="#DDDDDD"/>
<path d="M565.9 125.5V123" stroke="#C4D9F8" stroke-linecap="round"/>
<path d="M565.9 118.1V66.2002C565.9 63.5002 568.6 61.5002 571.2 62.4002L605.8 74.3002" stroke="#C4D9F8" stroke-linecap="round" stroke-dasharray="4.92 4.92"/>
<path d="M608 75.2002L610.401 76.0002" stroke="#C4D9F8" stroke-linecap="round"/>
<path d="M638.4 47.5001C622.1 38.1001 608.9 45.7001 608.9 64.5001C608.9 83.3001 622.1 106.2 638.4 115.6C654.7 125 667.9 117.4 667.9 98.6001C667.9 79.8001 654.7 56.9001 638.4 47.5001Z" stroke="#C4D9F8" stroke-linecap="round" stroke-dasharray="5 5"/>
<path d="M639.5 57.3001C628 50.6001 618.6 56.0001 618.6 69.3001C618.6 82.6001 627.9 98.8001 639.5 105.4C651 112.1 660.4 106.7 660.4 93.4001C660.4 80.1001 651.1 64.0001 639.5 57.3001Z" fill="#6CB6E1"/>
<path d="M646.7 110C643.9 110 640.8 109.1 637.6 107.2C626.3 100.7 617 84.6001 617 71.5001C617 62.6001 621.2 57.1001 628 57.1001C630.8 57.1001 633.9 58.0001 637.1 59.9001C648.5 66.5001 657.7 82.5001 657.7 95.6001C657.7 100 656.6 103.7 654.6 106.3C652.7 108.7 650 110 646.7 110ZM629 83.5001C625.9 83.5001 625.3 85.3001 625.2 86.3001V86.4001L625.3 86.5001C628.1 92.6001 632.4 97.8001 637.2 100.5C639.5 101.8 641.7 102.5 643.8 102.5C646.1 102.5 648 101.7 649.5 100.1L649.6 99.9001V99.7001C649.3 94.7001 641.1 88.0001 637.7 86.0001C635.4 84.9001 631.8 83.5001 629 83.5001ZM634.8 66.5001C632.5 66.5001 631 68.3001 631 71.2001C631 75.1001 633.7 79.8001 637.1 81.7001C638.1 82.3001 639 82.5001 639.9 82.5001C642.2 82.5001 643.7 80.7001 643.7 77.9001C643.7 74.0001 641 69.3001 637.6 67.4001C636.6 66.8001 635.7 66.5001 634.8 66.5001Z" fill="white"/>
<path d="M628.1 57.6001C630.8 57.6001 633.8 58.5001 636.9 60.3001C648.1 66.8001 657.3 82.6001 657.3 95.6001C657.3 104.2 653.3 109.5 646.8 109.5C644.1 109.5 641.1 108.6 638 106.8C626.8 100.3 617.6 84.5001 617.6 71.5001C617.5 63.0001 621.6 57.6001 628.1 57.6001ZM639.9 83.1001C642.5 83.1001 644.2 81.0001 644.2 78.0001C644.2 74.0001 641.4 69.0001 637.9 67.0001C636.8 66.4001 635.8 66.1001 634.8 66.1001C632.3 66.1001 630.5 68.2001 630.5 71.3001C630.5 75.3001 633.3 80.3001 636.8 82.3001C637.9 82.8001 639 83.1001 639.9 83.1001ZM643.7 103.1C646.1 103.1 648.2 102.2 649.8 100.5L650.1 100.2V99.8001C649.8 94.6001 641.4 87.7001 637.9 85.7001C635.6 84.4001 631.9 83.0001 629 83.0001C625.3 83.0001 624.8 85.3001 624.7 86.3001V86.5001L624.8 86.7001C627.6 92.9001 632 98.1001 636.9 100.9C639.3 102.4 641.6 103.1 643.7 103.1ZM628.1 56.6001C621.3 56.6001 616.6 62.1001 616.6 71.5001C616.6 84.8001 625.9 101 637.5 107.6C640.9 109.5 644 110.5 646.8 110.5C653.6 110.5 658.3 105 658.3 95.6001C658.3 82.3001 649 66.1001 637.4 59.5001C634 57.5001 630.9 56.6001 628.1 56.6001ZM639.9 82.1001C639.1 82.1001 638.3 81.9001 637.3 81.3001C634.1 79.5001 631.5 74.9001 631.5 71.2001C631.5 68.6001 632.8 67.0001 634.8 67.0001C635.6 67.0001 636.5 67.3001 637.4 67.8001C640.6 69.7001 643.2 74.2001 643.2 77.9001C643.2 80.5001 641.9 82.1001 639.9 82.1001ZM643.7 102.1C641.8 102.1 639.6 101.5 637.4 100.2C632.6 97.4001 628.3 92.2001 625.7 86.4001C625.8 84.7001 627.2 84.0001 629 84.0001C631.6 84.0001 635.2 85.3001 637.4 86.6001C641.2 88.8001 648.8 95.4001 649.1 99.8001C647.7 101.3 645.9 102.1 643.7 102.1Z" fill="#6CB6E1"/>
<path d="M512.7 141.3V113.2C512.7 110.5 515.4 108.5 518 109.4L614.8 142C616.4 142.5 617.5 144.1 617.5 145.8V193.6" stroke="#C4D9F8" stroke-linecap="round" stroke-dasharray="5 5"/>
<path d="M509.2 263.9V127L602 158.2V295.1L509.2 263.9Z" fill="white"/>
<path d="M509.7 127.7L601.5 158.6V294.5L509.7 263.6V127.7ZM508.7 126.3V264.3L602.5 295.8V157.8L508.7 126.3Z" fill="#405BB8"/>
<path d="M589.6 277.2L521.6 254.3V209.6L589.6 232.5V277.2Z" fill="#6CB6E1"/>
<path d="M557.4 163.8L518.6 150.7V140.8L557.4 153.9V163.8Z" fill="white" stroke="#405BB8"/>
<path d="M518.6 162.6L557.4 175.7" stroke="#405BB8"/>
<path d="M518.6 170.5L573 188.8" stroke="#405BB8"/>
<path d="M518.6 178.4L588.5 201.9" stroke="#405BB8"/>
<path d="M518.6 186.3L581.5 207.4" stroke="#405BB8"/>
<path d="M518.6 194.2L588.5 217.7" stroke="#405BB8"/>
<path d="M508.7 126.3L516.6 118.4L610.4 150V287.9L602.5 295.8V157.8L508.7 126.3Z" fill="#405BB8"/>
<path d="M399.6 195.4V246.7C399.6 249.8 396.5 252.1 393.5 251.1L231.3 197.5C229.4 196.9 228.1 195.1 228.1 193.1V140.6" stroke="#C4D9F8" stroke-linecap="round" stroke-dasharray="5 5"/>
<path d="M771 206.1V294.2C771 297.3 767.9 299.6 764.9 298.6L750.1 293.7" stroke="#C4D9F8" stroke-linecap="round" stroke-dasharray="5 5"/>
<path d="M318 330.6L285.5 320C283.6 319.4 282.3 317.6 282.3 315.5V283.5C282.3 280.3 285.4 278 288.5 279L321 289.6C322.9 290.2 324.2 292 324.2 294.1V326.1C324.2 329.4 321 331.6 318 330.6Z" stroke="#C4D9F8" stroke-linecap="round" stroke-dasharray="5 5"/>
<path d="M796.3 189.8V207.1C796.3 210.6 792.9 213 789.6 211.9L754.4 200.4C752.3 199.7 750.9 197.8 750.9 195.6V179.9V142.7C750.9 139.8 753.8 137.7 756.6 138.6L793.4 150.5C795.2 151.1 796.4 152.7 796.4 154.6V189.8H796.3Z" stroke="#C4D9F8" stroke-linecap="round" stroke-dasharray="5 5"/>
<path d="M303 221.7V284.8" stroke="#C4D9F8" stroke-linecap="round" stroke-dasharray="5 5"/>
<path d="M295 299.9H297.4L301.2 306.1L298.6 306.6L295 299.9Z" fill="#6CB6E1"/>
<path d="M297.1 300.4L300.4 305.7L298.9 306L295.8 300.4H297.1ZM297.6 299.4H294.1L298.3 307.2L302 306.4L297.6 299.4Z" fill="#6CB6E1"/>
<path d="M295.3 302.9L297.6 300.2L301.9 307.2L313.5 297.3L314 300.9L300.8 312.9L295.3 302.9Z" fill="#6CB6E1"/>
<path d="M313.2 298.3L313.6 300.8L301 312.2L296 303L297.6 301.1L301.2 307L301.8 308L302.7 307.3L313.2 298.3ZM313.9 296.4L302 306.4L297.6 299.4L294.6 302.8L300.5 313.7L314.5 301.1L313.9 296.4Z" fill="#6CB6E1"/>
<path d="M291.5 302.8L294.1 299.8L298.4 306.8L310.2 296.9L310.8 301L297.2 313.3L291.5 302.8Z" fill="white"/>
<path d="M310 297.3L310.5 300.9L297.2 312.9L291.7 302.9L294 300.3L298 306.7L298.3 307.2L298.7 306.8L310 297.3ZM310.4 296.4L298.5 306.4L294.1 299.4L291.1 302.8L297 313.7L311 301.1L310.4 296.4Z" fill="#6CB6E1"/>
<path d="M298.4 313.2L311.6 301.3L310.9 296.9H313.5L314 300.9L300.4 313.2H298.4Z" fill="#6CB6E1"/>
<path d="M313 297.4L313.5 300.8L300.2 312.8H299.7L311.7 302L312.1 301.6L312 301L311.5 297.4H313ZM313.9 296.4H310.4L311.1 301.2L297.1 313.8H300.6L314.6 301.2L313.9 296.4Z" fill="#6CB6E1"/>
<path d="M301.1 325.7V366.3C301.1 367.9 302.1 369.4 303.6 370L488 432.7" stroke="#C4D9F8" stroke-linecap="round" stroke-dasharray="5 5"/>
<path d="M488.5 447.3V399.6L529.1 414.2V460.7L488.5 447.3Z" fill="white"/>
<path d="M489 400.3L528.7 414.6V460L489 446.9V400.3ZM488 398.9V447.6L529.7 461.3V413.8L488 398.9Z" fill="#405BB8"/>
<path d="M530.1 413.5L489.2 398.8L518.3 383.5L559.5 398.3V445.2L530.1 460.5V413.5Z" fill="#405BB8"/>
<path d="M518.4 384.1L559 398.7V444.9L530.7 459.8V414V413.3L530 413.1L490.5 398.9L518.4 384.1ZM518.3 383L488 398.9L529.7 413.9V461.4L560 445.5V398L518.3 383Z" fill="#405BB8"/>
<path d="M546.5 464.9V367.3L587.1 381.9V478.4L546.5 464.9Z" fill="white"/>
<path d="M547 368L586.7 382.3V477.7L547 464.6V368ZM546 366.6V465.3L587.7 479V381.5L546 366.6Z" fill="#405BB8"/>
<path d="M588.1 381.2L547.2 366.5L576.3 351.2L617.5 366V462.8L588.1 478.2V381.2Z" fill="#405BB8"/>
<path d="M576.4 351.7L617 366.3V462.5L588.7 477.4V381.6V380.9L588 380.7L548.5 366.5L576.4 351.7ZM576.3 350.7L546 366.6L587.7 381.6V479L618 463.1V365.6L576.3 350.7Z" fill="#405BB8"/>
<path d="M605.7 484.8V337.1L646.4 351.8V498.2L605.7 484.8Z" fill="white"/>
<path d="M606.2 337.8L645.9 352.1V497.5L606.2 484.4V337.8ZM605.2 336.4V485.1L646.9 498.8V351.4L605.2 336.4Z" fill="#405BB8"/>
<path d="M647.401 351.1L606.5 336.3L635.6 321.1L676.701 335.9V482.7L647.401 498.1V351.1Z" fill="#405BB8"/>
<path d="M635.6 321.6L676.2 336.2V482.4L647.9 497.3V351.4V350.7L647.2 350.5L607.7 336.3L635.6 321.6ZM635.6 320.5L605.3 336.4L647 351.4V498.9L677.3 483V335.5L635.6 320.5Z" fill="#405BB8"/>
<path d="M665 504.9V302.2L705.7 316.9V518.3L665 504.9Z" fill="white"/>
<path d="M665.5 302.9L705.2 317.2V517.6L665.5 504.5V302.9ZM664.5 301.5V505.2L706.2 518.9V316.5L664.5 301.5Z" fill="#405BB8"/>
<path d="M706.7 316.2L665.7 301.4L694.9 286.1L736 301V502.8L706.7 518.2V316.2Z" fill="#405BB8"/>
<path d="M694.9 286.7L735.5 301.3V502.5L707.2 517.4V316.5V315.8L706.5 315.6L667 301.3L694.9 286.7ZM694.8 285.6L664.5 301.5L706.2 316.5V519L736.5 503.1V300.6L694.8 285.6Z" fill="#405BB8"/>
<path d="M529.4 466.7L486.4 452.5C484.8 452 483.7 450.4 483.7 448.7V397.6C483.7 394.8 486.4 392.9 489.1 393.8L532.1 409.3C533.7 409.9 534.7 411.4 534.7 413.1V462.9C534.7 465.6 532 467.5 529.4 466.7Z" stroke="#C4D9F8" stroke-linecap="round" stroke-dasharray="5 5"/>
<path d="M775.5 191.3C767.8 185 761.9 173.3 761.6 164L761.3 154.2C762.5 154.5 765.1 155 767.1 155.2C767.6 155.2 768.2 155.2 768.8 155.2C770.9 155.2 773.3 155 774.1 155C778.3 158.9 784.1 161 786.6 161.9C786.9 162 787.2 162.1 787.4 162.2L787.7 172.3C787.9 179.6 784.9 184.3 782.3 186.9C779.4 190 776.3 191.2 775.5 191.3Z" fill="#405BB8"/>
<path d="M761.9 154.9C763.2 155.2 765.4 155.6 767.1 155.7C767.6 155.7 768.2 155.7 768.9 155.7C770.9 155.7 773.1 155.6 774 155.5C778.3 159.3 784 161.4 786.5 162.3C786.7 162.4 786.8 162.4 787 162.5L787.3 172.3C787.6 185.4 777.6 190.3 775.7 190.7C768.2 184.5 762.4 173 762.2 164L761.9 154.9ZM760.9 153.6L761.2 164C761.4 173.4 767.5 185.4 775.4 191.7H775.5C777 191.7 788.7 186.7 788.3 172.2L788 161.8C786.8 161.3 779.3 159.2 774.4 154.5C774.4 154.5 771.5 154.7 768.9 154.7C768.3 154.7 767.7 154.7 767.2 154.7C764.6 154.5 760.9 153.6 760.9 153.6Z" fill="#405BB8"/>
<path d="M771.1 195.6C763.4 189.3 757.5 177.6 757.2 168.3L756.9 158.5C758.1 158.8 760.7 159.3 762.7 159.5C763.2 159.5 763.8 159.5 764.4 159.5C766.5 159.5 768.9 159.3 769.7 159.3C773.9 163.2 779.7 165.3 782.2 166.2C782.5 166.3 782.8 166.4 783 166.5L783.3 176.6C783.5 183.9 780.5 188.6 777.9 191.2C774.9 194.4 771.8 195.5 771.1 195.6Z" fill="white"/>
<path d="M757.5 159.2C758.8 159.5 761 159.9 762.7 160C763.2 160 763.8 160 764.5 160C766.5 160 768.7 159.9 769.6 159.8C773.9 163.6 779.6 165.7 782.1 166.6C782.3 166.7 782.4 166.7 782.6 166.8L782.9 176.6C783.2 189.7 773.2 194.6 771.3 195C763.8 188.8 758 177.3 757.8 168.3L757.5 159.2ZM756.4 158L756.7 168.4C756.9 177.8 763 189.8 770.9 196.1H771C772.5 196.1 784.2 191.1 783.8 176.6L783.5 166.2C782.3 165.7 774.8 163.6 769.9 158.9C769.9 158.9 767 159.1 764.4 159.1C763.8 159.1 763.2 159.1 762.7 159.1C760.1 158.9 756.4 158 756.4 158Z" fill="#405BB8"/>
<path d="M757.4 157.7L761 154.2L766.3 155.8L762.6 159.2L757.4 157.7Z" fill="#405BB8"/>
<path d="M761.2 154.7L765.3 156L762.5 158.6L758.4 157.4L761.2 154.7ZM760.9 153.6L756.4 158L762.7 159.8L767.2 155.6L760.9 153.6Z" fill="#405BB8"/>
<path d="M677 148L693 154V170L677 164V148Z" fill="#ECF6FB"/>
<path d="M726 104L732 106.182V112L726 109.818V104Z" fill="#ECF6FB"/>
<path d="M372 331L388 337V353L372 347V331Z" fill="#ECF6FB"/>
<path d="M698 477L714 483V499L698 493V477Z" fill="#ECF6FB"/>
<path d="M442 544L458 550V566L442 560V544Z" fill="#ECF6FB"/>
<path d="M335 90L351 96V112L335 106V90Z" fill="#ECF6FB"/>
<path d="M193 305L209 311V327L193 321V305Z" fill="#ECF6FB"/>
<path d="M587 402.962C583.148 400.723 580 402.528 580 406.973C580 411.418 583.115 416.832 587 419.038C590.852 421.277 594 419.472 594 415.027C594 410.582 590.885 405.201 587 402.962Z" fill="#ECF6FB"/>
<path d="M294 533.962C290.148 531.723 287 533.528 287 537.973C287 542.418 290.115 547.832 294 550.038C297.852 552.277 301 550.472 301 546.027C301 541.582 297.885 536.201 294 533.962Z" fill="#ECF6FB"/>
<path d="M481 80L487 82.1818V88L481 85.8182V80Z" fill="#ECF6FB"/>
<path d="M343 349L349 351.182V357L343 354.818V349Z" fill="#ECF6FB"/>
</g>
<path d="M47 430L53 432.182V438L47 435.818V430Z" fill="#ECF6FB"/>
<path d="M0 377L6 379.182V385L0 382.818V377Z" fill="#ECF6FB"/>
<path d="M581 0L587 2.18182V8L581 5.81818V0Z" fill="#ECF6FB"/>
<path d="M805 306L821 312V328L805 322V306Z" fill="#ECF6FB"/>
<path d="M52 390L155.5 339" stroke="#DDDDDD" stroke-width="2" stroke-linecap="round"/>
<defs>
<clipPath id="clip0">
<rect width="614" height="549" fill="white" transform="translate(183 43)"/>
</clipPath>
</defs>
</svg>
