<svg width="127" height="130" viewBox="0 0 127 130" fill="none" xmlns="http://www.w3.org/2000/svg">
<path d="M121.641 36.6502V106.08L22.933 73.177L22.2524 4.43457L121.641 36.6502Z" fill="white" stroke="#7D95EA" stroke-width="1.39018"/>
<path d="M25.0233 0L21.5479 3.4754L122.336 36.1447V107.044L126.507 102.873V31.9741L25.0233 0Z" fill="#7D95EA"/>
<path d="M110.52 47.7671V117.201L11.8164 84.3V14.8662L110.52 47.7671Z" fill="white" stroke="#657CCC" stroke-width="1.39018"/>
<path d="M14.597 10.4268L11.1216 13.9023L111.215 47.2666V118.165L115.385 113.995V43.0961L14.597 10.4268Z" fill="#657CCC"/>
<path d="M99.3982 58.8887V128.322L0.695312 95.4221V25.9878L99.3982 58.8887Z" fill="white" stroke="#405BB8" stroke-width="1.39018"/>
<path d="M3.4755 21.5479L0 25.0233L100.093 58.3876V129.287L104.264 125.116V54.2171L3.4755 21.5479Z" fill="#405BB8"/>
<path d="M13.9019 88.9717L86.1913 113.072" stroke="#405BB8" stroke-width="1.5"/>
<path d="M49.276 53.1287C38.626 46.9799 30 51.9601 30 64.2577C30 76.5552 38.626 91.4957 49.276 97.6447C59.926 103.794 68.552 98.8127 68.552 86.5157C68.552 74.2181 59.926 59.2775 49.276 53.1287ZM49.276 60.8077C52.2638 62.5327 54.6733 66.7617 54.6733 70.156C54.6733 73.5504 52.2156 74.9693 49.276 73.2722C46.3364 71.575 43.8787 67.3182 43.8787 63.9238C43.8787 60.5295 46.2882 59.0827 49.276 60.8077ZM49.276 90.6887C44.7943 88.1015 40.8909 83.2883 38.4814 77.9463C38.7224 74.079 45.7581 76.1379 49.276 78.1689C52.7938 80.2 59.8296 86.2653 60.0705 90.4107C57.661 92.9707 53.7576 93.2767 49.276 90.6887Z" fill="#6CB6E1"/>
<path d="M67.3511 68.7251C69.2021 70.3047 71.823 70.2723 73.2052 68.6527C74.5873 67.0331 74.2073 64.4397 72.3563 62.8601C70.5054 61.2805 67.8844 61.3129 66.5023 62.9325C65.1201 64.5521 65.5002 67.1455 67.3511 68.7251Z" fill="#6CB6E1"/>
</svg>
