<svg width="127" height="130" viewBox="0 0 127 130" fill="none" xmlns="http://www.w3.org/2000/svg">
<path d="M121.641 36.6502V106.08L22.933 73.177L22.2524 4.43457L121.641 36.6502Z" fill="white" stroke="#7D95EA" stroke-width="1.39018"/>
<path d="M25.0233 0L21.5479 3.4754L122.336 36.1447V107.044L126.507 102.873V31.9741L25.0233 0Z" fill="#7D95EA"/>
<path d="M110.52 47.7672V117.201L11.8164 84.3001V14.8662L110.52 47.7672Z" fill="white" stroke="#657CCC" stroke-width="1.39018"/>
<path d="M14.597 10.4263L11.1216 13.9017L111.215 47.2661V118.165L115.385 113.995V43.0955L14.597 10.4263Z" fill="#657CCC"/>
<path d="M99.3982 58.8887V128.322L0.695312 95.4221V25.9878L99.3982 58.8887Z" fill="white" stroke="#405BB8" stroke-width="1.39018"/>
<path d="M3.4755 21.5479L0 25.0233L100.093 58.3876V129.287L104.264 125.116V54.2171L3.4755 21.5479Z" fill="#405BB8"/>
<path d="M26.4136 69.5093V93.1342L37.535 96.6182V72.9847L26.4136 69.5093Z" fill="#6CB6E1"/>
<path d="M43.0957 58.3877V98.6951L54.2171 102.178V61.8632L43.0957 58.3877Z" fill="#6CB6E1"/>
<path d="M61.168 75.0698V105.646L72.2894 109.129V78.5453L61.168 75.0698Z" fill="#6CB6E1"/>
<path d="M13.9019 47.2661V88.9714L86.1913 113.072" stroke="#405BB8" stroke-width="1.5"/>
</svg>
