<svg width="128" height="130" viewBox="0 0 128 130" fill="none" xmlns="http://www.w3.org/2000/svg">
<path d="M122.148 36.6501V106.079L23.4399 73.177L22.7593 4.43457L122.148 36.6501Z" fill="white" stroke="#7D95EA" stroke-width="1.39018"/>
<path d="M25.5301 0L22.0547 3.47545L122.843 36.1447V107.044L127.014 102.873V31.9741L25.5301 0Z" fill="#7D95EA"/>
<path d="M111.027 47.7671V117.201L12.3232 84.3V14.8662L111.027 47.7671Z" fill="white" stroke="#657CCC" stroke-width="1.39018"/>
<path d="M15.1038 10.4263L11.6284 13.9018L111.722 47.2661V118.165L115.892 113.995V43.0956L15.1038 10.4263Z" fill="#657CCC"/>
<path d="M99.9051 58.8882V128.322L1.20215 95.4207V25.9873L99.9051 58.8882Z" fill="white" stroke="#405BB8" stroke-width="1.39018"/>
<path d="M3.98234 21.5479L0.506836 25.0233L100.6 58.3877V129.287L104.771 125.116V54.2171L3.98234 21.5479Z" fill="#405BB8"/>
<path d="M14.4087 88.9717L86.6981 113.072" stroke="#405BB8" stroke-width="1.5"/>
<path d="M48.5034 67.2158V80.2164L50.8714 81.029V68.0283L48.5034 67.2158Z" fill="white"/>
<path d="M55.6075 77.7791L43.7676 73.7164V71.2788L55.6075 75.3415V77.7791Z" fill="white"/>
<path d="M49.3672 51.5581V96.029L53.7392 97.465V53.1977L49.3672 51.5581Z" fill="#6CB6E1"/>
<path d="M29.6929 45V89.4707L34.065 90.907V46.6395L29.6929 45Z" fill="#6CB6E1"/>
<path d="M67.9487 57.0234V102.225L72.3208 103.669V58.5001L67.9487 57.0234Z" fill="#6CB6E1"/>
<path d="M65.7627 86.5352V92.6913L74.5068 95.2793V89.1573L65.7627 86.5352Z" fill="#6CB6E1"/>
<path d="M47.1812 59.209V65.3654L55.9254 67.9532V61.8312L47.1812 59.209Z" fill="#6CB6E1"/>
<path d="M27.5068 72.3257V78.4821L36.251 81.0699V74.9478L27.5068 72.3257Z" fill="#6CB6E1"/>
</svg>
