<svg width="259" height="281" viewBox="0 0 259 281" fill="none" xmlns="http://www.w3.org/2000/svg">
<g clip-path="url(#clip0)">
<rect width="259" height="281" fill="white"/>
<path d="M228.5 214.9C232.6 205 234.8 192.9 234.8 179C234.8 118.1 192.1 44.2 139.4 13.7C109.8 -3.40004 83.3999 -3.10004 65.8999 11.3" stroke="#405BB8" stroke-width="1.3902"/>
<path d="M124.9 28.3001C72.2 -2.09988 29.5 22.5001 29.5 83.4001C29.5 144.3 72.2 218.2 124.9 248.7C177.6 279.1 220.3 254.5 220.3 193.6C220.3 132.7 177.6 58.8001 124.9 28.3001Z" fill="#657CCC"/>
<path d="M117.6 35.5999C64.9002 5.19992 22.2002 29.7999 22.2002 90.6999C22.2002 151.6 64.9002 225.5 117.6 256C170.3 286.4 213 261.8 213 200.9C213 140 170.3 66.0999 117.6 35.5999Z" fill="white" stroke="#657CCC" stroke-width="1.3902"/>
<path d="M41.9999 58.2999C26.4999 49.2999 13.8999 56.5999 13.8999 74.4999C13.8999 92.3999 26.4999 114.2 41.9999 123.2C57.4999 132.2 70.0999 124.9 70.0999 107C70.1999 88.9999 57.5999 67.1999 41.9999 58.2999Z" fill="#405BB8"/>
<path d="M65.8999 60.5001C62.8999 58.8001 60.3999 60.2001 60.3999 63.6001C60.3999 67.1001 62.7999 71.3001 65.8999 73.0001C68.8999 74.7001 71.3999 73.3001 71.3999 69.9001C71.2999 66.5001 68.8999 62.3001 65.8999 60.5001Z" fill="#405BB8"/>
<path d="M64.2002 62.2C61.2002 60.5 58.7002 61.9 58.7002 65.3C58.7002 68.8 61.1002 73 64.2002 74.7C67.2002 76.4 69.7002 75 69.7002 71.6C69.7002 68.1 67.2002 63.9 64.2002 62.2Z" fill="#6CB6E1"/>
<path d="M39.1 61.2001C23.6 52.2001 11 59.5001 11 77.4001C11 95.3001 23.6 117.1 39.1 126.1C54.6 135.1 67.2 127.8 67.2 109.9C67.3 92.0001 54.7 70.1001 39.1 61.2001ZM39.1 72.4001C43.5 74.9001 47 81.1001 47 86.0001C47 91.0001 43.4 93.0001 39.1 90.5001C34.8 88.0001 31.2 81.8001 31.2 76.9001C31.3 72.0001 34.8 69.9001 39.1 72.4001ZM39.1 116C32.6 112.2 26.9 105.2 23.3 97.4001C23.7 91.8001 33.9 94.8001 39.1 97.7001C44.2 100.7 54.5 109.5 54.9 115.6C51.4 119.3 45.7 119.8 39.1 116Z" fill="#6CB6E1"/>
<path d="M174 114.3V175.7L86.7002 146.6V85.2999L174 114.3Z" fill="#6CB6E1" stroke="#6CB6E1" stroke-width="1.3902"/>
<path d="M90.3001 81.8999L86.1001 84.3999L174.6 113.9L174.7 176.6L178.3 172.7V110.2L90.3001 81.8999Z" fill="#405BB8"/>
<path d="M157.8 125.5C157.8 126.5 156.8 127.3 155.8 126.9L95.8999 106.9C95.2999 106.7 94.8999 106.1 94.8999 105.5C94.8999 104.5 95.8999 103.7 96.8999 104.1L156.8 124.1C157.3 124.2 157.8 124.8 157.8 125.5Z" fill="white"/>
<path d="M157.8 137C157.8 138 156.8 138.8 155.8 138.4L95.8999 118.4C95.2999 118.2 94.8999 117.6 94.8999 117C94.8999 116 95.8999 115.2 96.8999 115.6L156.8 135.6C157.3 135.7 157.8 136.3 157.8 137Z" fill="white"/>
<path d="M128.6 139.8C128.6 140.8 127.6 141.6 126.6 141.2L95.7998 131.4C95.1998 131.2 94.7998 130.6 94.7998 130C94.7998 129 95.7998 128.2 96.7998 128.6L127.6 138.4C128.2 138.6 128.6 139.1 128.6 139.8Z" fill="white"/>
<path d="M22.2002 159C37.8002 204.4 70.2002 248.2 107.8 269.9C116.7 275 125.3 278.6 133.4 280.7" stroke="#405BB8" stroke-width="1.3902"/>
<path d="M174 213.6V275L86.7002 245.9V184.5L174 213.6Z" fill="white" stroke="#405BB8" stroke-width="1.3902"/>
<path d="M90.5 180.4L86 183.6L174.5 213.1L174.6 275.9L178.2 271.9V209.4L90.5 180.4Z" fill="#405BB8"/>
<path d="M157.8 224.7C157.8 225.7 156.8 226.5 155.8 226.1L95.8999 206.1C95.2999 205.9 94.8999 205.3 94.8999 204.7C94.8999 203.7 95.8999 202.9 96.8999 203.3L156.8 223.3C157.3 223.5 157.8 224 157.8 224.7Z" fill="#405BB8"/>
<path d="M157.8 236.2C157.8 237.2 156.8 238 155.8 237.6L95.8999 217.6C95.2999 217.4 94.8999 216.8 94.8999 216.2C94.8999 215.2 95.8999 214.4 96.8999 214.8L156.8 234.8C157.3 235 157.8 235.6 157.8 236.2Z" fill="#405BB8"/>
<path d="M128.6 239C128.6 240 127.6 240.8 126.6 240.4L95.7998 230.6C95.1998 230.4 94.7998 229.8 94.7998 229.2C94.7998 228.2 95.7998 227.4 96.7998 227.8L127.6 237.6C128.2 237.8 128.6 238.4 128.6 239Z" fill="#405BB8"/>
<path d="M86 158.5L88.7 159.9L90.2 157.6L91.1 161L94.3 163.1L92.3 164.7L92.6 168.4L90.2 165.2L87.7 165.6V162.3L86 158.5Z" fill="#405BB8"/>
<path d="M96.6001 162L99.3001 163.3L100.7 161L101.6 164.5L104.8 166.6L102.9 168.2L103.2 171.9L100.7 168.6L98.3001 169.1V165.8L96.6001 162Z" fill="#405BB8"/>
<path d="M107.7 165.3L110.3 166.7L111.8 164.4L112.7 167.9L115.9 170L114 171.5L114.2 175.3L111.8 172L109.3 172.4V169.2L107.7 165.3Z" fill="#405BB8"/>
<path d="M118.5 168.9L121.2 170.3L122.6 168L123.5 171.4L126.7 173.5L124.8 175.1L125.1 178.8L122.6 175.6L120.2 176V172.7L118.5 168.9Z" fill="#405BB8"/>
<path d="M129.1 172.1L131.7 173.5L133.2 171.2L134.1 174.6L137.3 176.7L135.4 178.3L135.7 182L133.2 178.7L130.7 179.2V175.9L129.1 172.1Z" fill="#405BB8"/>
</g>
<defs>
<clipPath id="clip0">
<rect width="259" height="281" fill="white"/>
</clipPath>
</defs>
</svg>
