<svg width="123" height="18" viewBox="0 0 123 18" fill="none" xmlns="http://www.w3.org/2000/svg">
<path d="M39.05 12.712V4.004H40.086V8.386L41.444 7.028H43.894L45.182 8.316V12.712L43.894 14H40.338L39.05 12.712ZM43.446 13.076L44.146 12.39V8.638L43.446 7.952H41.738L40.086 9.604V12.39L40.786 13.076H43.446ZM53.0098 7.028V15.778L51.7218 17.052H48.3618L47.2838 15.974V15.12H48.3198V15.652L48.8098 16.128H51.2738L51.9738 15.442V12.516L50.4898 14H48.3618L47.0738 12.712V7.028H48.1098V12.39L48.8098 13.076H50.2097L51.9738 11.312V7.028H53.0098ZM65.5464 11.004V14H64.4824V11.298L63.1384 9.884H59.6664V14H58.6024V4.2H64.2024L65.4904 5.488V8.582L64.3564 9.716L65.5464 11.004ZM59.6664 8.96H63.7404L64.4404 8.274V5.81L63.7404 5.124H59.6664V8.96ZM67.5116 12.712V8.316L68.7996 7.028H72.3136L73.6156 8.316V10.822H68.5476V12.39L69.2476 13.076H71.8656L72.5656 12.39V11.858H73.6016V12.712L72.3136 14H68.7996L67.5116 12.712ZM72.5796 9.926V8.638L71.8796 7.952H69.2476L68.5476 8.638V9.926H72.5796ZM75.3592 12.712V8.316L76.6472 7.028H79.3352L80.4832 8.036V4.004H81.5192V14H80.5112V12.726L79.2372 14H76.6472L75.3592 12.712ZM79.0132 13.076L80.4832 11.606V9.128L79.1392 7.952H77.0952L76.3952 8.638V12.39L77.0952 13.076H79.0132ZM86.9683 12.46V5.74L88.5083 4.2H92.7083L94.1923 5.684V6.58H93.1283V6.034L92.2323 5.152H88.9843L88.0323 6.09V12.11L88.9843 13.048H92.2323L93.1283 12.166V11.62H94.1923V12.516L92.7083 14H88.5083L86.9683 12.46ZM95.7303 12.712V8.316L97.0183 7.028H100.602L101.89 8.316V12.712L100.602 14H97.0183L95.7303 12.712ZM100.154 13.076L100.854 12.39V8.638L100.154 7.952H97.4663L96.7663 8.638V12.39L97.4663 13.076H100.154ZM103.925 4.004H104.961V14H103.925V4.004ZM107.206 4.004H108.242V14H107.206V4.004ZM110.207 12.852V11.074L111.355 9.94H115.079V8.61L114.379 7.924H111.999L111.299 8.61V9.184H110.263V8.316L111.551 7.028H114.813L116.101 8.316V14H115.107V12.768L113.819 14H111.355L110.207 12.852ZM113.609 13.104L115.079 11.69V10.836H111.803L111.243 11.382V12.558L111.803 13.104H113.609ZM118.128 7.028H119.136V8.274L120.382 7.028H122.188V7.952H120.648L119.164 9.436V14H118.128V7.028Z" fill="#242424"/>
<path d="M30 4.44103L29.5473 4L15.0026 8.56888L0.452711 4L0 4.44103L10.9809 14L15.0026 9.54014L19.0191 14L30 4.44103Z" fill="#242424"/>
</svg>
