<svg width="821" height="592" viewBox="0 0 821 592" fill="none" xmlns="http://www.w3.org/2000/svg">
<path d="M670.243 331.865L804.647 397.862C806.249 398.649 806.096 400.981 804.405 401.552L698.769 437.24C698.276 437.407 697.737 437.375 697.268 437.151L560.933 372.114C559.314 371.342 559.451 368.995 561.149 368.416L668.716 331.767C669.218 331.596 669.767 331.631 670.243 331.865Z" fill="#405BB8" stroke="#405BB8"/>
<path d="M670.243 326.365L804.647 392.362C806.249 393.149 806.096 395.481 804.405 396.052L698.769 431.74C698.276 431.907 697.737 431.875 697.268 431.651L560.933 366.614C559.314 365.842 559.451 363.495 561.149 362.916L668.716 326.267C669.218 326.096 669.767 326.131 670.243 326.365Z" fill="white" stroke="#405BB8"/>
<path d="M667.428 333L784 389.868L691.244 421L573 364.962L667.428 333Z" fill="white" stroke="#405BB8"/>
<ellipse rx="6" ry="2.5" transform="matrix(-1 0 0 1 747 408.5)" fill="#405BB8"/>
<path d="M624 399L450.5 458" stroke="#C4D9F8" stroke-linecap="round" stroke-dasharray="5 5"/>
<g clip-path="url(#clip0)">
<path d="M403.6 332.9V111.8L89.2001 216.6L89.1001 251.3" stroke="#405BB8"/>
<path d="M389.1 362.6V142.5L75.7001 246.9L75.2001 467.6L389.1 362.6Z" fill="white"/>
<path d="M388.6 143.1L76.2001 247.2L75.7001 466.8L388.6 362.2V143.1ZM389.6 141.8V363L74.7001 468.3L75.2001 246.6L389.6 141.8Z" fill="#405BB8"/>
<path d="M149.8 535.1L258.8 591.3L577 483.4L519.9 455.2" stroke="#405BB8"/>
<path d="M378.1 157.5C381.4 155.6 384.1 157.1 384.1 161C384.1 164.8 381.4 169.5 378.1 171.4C374.8 173.3 372.1 171.8 372.1 167.9C372.1 164.1 374.8 159.4 378.1 157.5Z" fill="white" stroke="#405BB8"/>
<path d="M378.1 178.3C381.4 176.4 384.1 177.9 384.1 181.8C384.1 185.6 381.4 190.3 378.1 192.2C374.8 194.1 372.1 192.6 372.1 188.7C372.1 184.9 374.8 180.2 378.1 178.3Z" fill="white" stroke="#405BB8"/>
<path d="M378.1 199.2C381.4 197.3 384.1 198.8 384.1 202.7C384.1 206.5 381.4 211.2 378.1 213.1C374.8 215 372.1 213.5 372.1 209.6C372.1 205.7 374.8 201.1 378.1 199.2Z" fill="#DDDDDD"/>
<path d="M592.8 124.6C596.4 122.5 599.3 124.2 599.3 128.4C599.3 132.6 596.4 137.6 592.8 139.7C589.2 141.8 586.3 140.1 586.3 135.9C586.3 131.8 589.2 126.7 592.8 124.6Z" stroke="#C4D9F8" stroke-linecap="round" stroke-dasharray="5 5"/>
<path d="M421.4 180.3C425 178.2 427.9 179.9 427.9 184.1C427.9 188.3 425 193.3 421.4 195.4C417.8 197.5 414.9 195.8 414.9 191.6C414.8 187.4 417.8 182.3 421.4 180.3Z" stroke="#C4D9F8" stroke-linecap="round" stroke-dasharray="5 5"/>
<path d="M364 150.1V371.3" stroke="#405BB8"/>
<path d="M95.9998 267.1V440.5C95.9998 443.5 98.9998 445.6 101.8 444.6L341.1 360.8C343.9 359.8 345.8 357.1 345.8 354.1V180.8C345.8 177.8 342.8 175.7 340 176.7L100.7 260.5C97.8998 261.4 95.9998 264.1 95.9998 267.1Z" fill="white" stroke="#405BB8"/>
<path d="M335.6 187.6C336.8 186.9 337.8 187.5 337.8 188.9C337.8 190.3 336.8 192.1 335.6 192.8C334.4 193.5 333.4 192.9 333.4 191.5C333.3 190 334.3 188.3 335.6 187.6Z" fill="#6CB6E1"/>
<path d="M329.2 189.3C330.4 188.6 331.4 189.2 331.4 190.6C331.4 192 330.4 193.8 329.2 194.5C328 195.2 327 194.6 327 193.2C326.9 191.8 327.9 190 329.2 189.3Z" fill="#D0C6BB"/>
<path d="M322.9 191.4C324.1 190.7 325.1 191.3 325.1 192.7C325.1 194.1 324.1 195.9 322.9 196.6C321.7 197.3 320.7 196.7 320.7 195.3C320.7 193.8 321.7 192.1 322.9 191.4Z" fill="#405BB8"/>
<path d="M345.8 196L95.9998 284.3" stroke="#405BB8"/>
<path d="M579.7 457.3L389.9 363.6L75.9002 468.4L262.9 564.8L579.7 457.3Z" fill="white"/>
<path d="M389.9 364.1L77.3 468.4L263 564.1L578.5 457.1L389.9 364.1ZM389.9 363L581 457.4L262.8 565.3L74.6 468.3L389.9 363Z" fill="#405BB8"/>
<path d="M151.8 466.3H156.2V471.5H151.8V466.3Z" fill="#405BB8" stroke="#405BB8"/>
<path d="M426 489.3L383.5 467.1C381.7 466.2 379.7 466 377.8 466.6L313.8 488.1C311.4 488.9 311.1 492.2 313.4 493.4L356.5 516C358.3 516.9 360.4 517.1 362.3 516.4L425.7 494.6C428 493.8 428.2 490.5 426 489.3Z" fill="#DDDDDD"/>
<path d="M445.1 424.4L383.9 394.2C382.2 393.4 380.3 393.2 378.5 393.8L153.4 468.9C151.3 469.6 151.1 472.4 153.1 473.4L214.1 504.8C215.8 505.7 217.8 505.8 219.6 505.2L444.7 428.8C446.9 428.2 447 425.4 445.1 424.4Z" fill="#405BB8" stroke="#405BB8"/>
<path d="M441.4 421.3H446.5V426.7H441.4V421.3Z" fill="#405BB8" stroke="#405BB8"/>
<path d="M445.1 419.4L383.9 389.2C382.2 388.4 380.3 388.2 378.5 388.8L153.4 463.9C151.3 464.6 151.1 467.4 153.1 468.4L214.1 499.8C215.8 500.7 217.8 500.8 219.6 500.2L444.7 423.8C446.9 423.2 447 420.4 445.1 419.4Z" fill="white" stroke="#405BB8"/>
<path d="M550.9 189.1L460.9 218.8C457.6 219.9 454.1 220.2 450.7 219.4C449.8 219.2 448.8 218.9 448 218.5C441 215.3 438.3 208.2 437.9 207C435.5 200.3 436.5 191.8 441.1 186C447.7 177.6 461.3 171.9 461.3 171.9C461.4 169.6 461.7 166.1 463 162.1C464 159.1 468.4 147.9 479.4 143.7C481.4 143 485.3 141.5 489.9 142.2C493.6 142.8 498.6 144.8 498.6 144.8C499 143.5 507.1 118.3 527.7 114.6C529.4 114.3 544.1 111.8 551 120.4C553.8 123.9 556.3 130.5 555.4 137.1C555.4 137.2 555.4 137.3 555.4 137.3C555.4 137.3 559.7 137.7 563.8 139.6C569.7 142.3 572.5 148.2 573 149.4C577.9 160.6 569.7 174.4 562.6 181.4C559.8 184.2 556.8 186.2 554.4 187.6C553.3 188.2 552.2 188.7 550.9 189.1Z" fill="#405BB8" stroke="#405BB8"/>
<path d="M556.7 194.9L466.7 224.6C463.4 225.7 459.9 226 456.5 225.2C455.6 225 454.6 224.7 453.8 224.3C446.8 221.1 444.1 214 443.7 212.8C441.3 206.1 442.3 197.6 446.9 191.8C453.5 183.4 467.1 177.7 467.1 177.7C467.2 175.4 467.5 171.9 468.8 167.9C469.8 164.9 474.2 153.7 485.2 149.5C487.2 148.8 491.1 147.3 495.7 148C499.4 148.6 504.4 150.6 504.4 150.6C504.8 149.3 512.9 124.1 533.5 120.4C535.2 120.1 549.9 117.6 556.8 126.2C559.6 129.7 562.1 136.3 561.2 142.9C561.2 143 561.2 143.1 561.2 143.1C561.2 143.1 565.5 143.5 569.6 145.4C575.5 148.1 578.3 154 578.8 155.2C583.7 166.4 575.5 180.2 568.4 187.2C565.6 190 562.6 192 560.2 193.4C559.1 194 557.9 194.5 556.7 194.9Z" fill="white" stroke="#405BB8"/>
<path d="M389.6 141.8L380.3 134.5L65.9001 239.3V454.8C65.9001 458.4 67.5001 461.9 70.2001 464.3L74.7001 468.3L75.2001 246.6L389.6 141.8Z" fill="#405BB8"/>
<path d="M74.7 468.3V475.8C74.7 477.9 75.9 479.9 77.8 480.9L262.9 576.3L581 468.4V457.4L262.8 565.3L74.7 468.3Z" fill="#405BB8"/>
<path d="M337.8 210.5V353.8" stroke="#DDDDDD" stroke-width="2" stroke-linecap="round"/>
<path d="M330.2 254.6V357.5" stroke="#DDDDDD" stroke-width="2" stroke-linecap="round"/>
<path d="M105.3 300.4L330.2 224.8V217.7L105.3 293.3V300.4Z" fill="#DDDDDD"/>
<path d="M105.3 312.2L330.2 236.6V229.6L105.3 305.1V312.2Z" fill="#DDDDDD"/>
<path d="M105.3 323.5L330.2 247.9V240.8L105.3 316.4V323.5Z" fill="#DDDDDD"/>
<path d="M138.1 325L322.9 262.4V255.3L138.1 317.5V325Z" fill="#DDDDDD"/>
<path d="M138.1 337L322.9 274.4V267.4L138.1 329.6V337Z" fill="#DDDDDD"/>
<path d="M138.1 348.5L322.9 285.9V278.8L138.1 341V348.5Z" fill="#DDDDDD"/>
<path d="M138.1 360.6L322.9 298V290.9L138.1 353.1V360.6Z" fill="#DDDDDD"/>
<path d="M255.1 125.5V123" stroke="#C4D9F8" stroke-linecap="round"/>
<path d="M255.1 118.1V66.2002C255.1 63.5002 252.4 61.5002 249.8 62.4002L215.2 74.3002" stroke="#C4D9F8" stroke-linecap="round" stroke-dasharray="4.92 4.92"/>
<path d="M213 75.2002L210.599 76.0002" stroke="#C4D9F8" stroke-linecap="round"/>
<path d="M182.6 47.5001C198.9 38.1001 212.1 45.7001 212.1 64.5001C212.1 83.3001 198.9 106.2 182.6 115.6C166.3 125 153.1 117.4 153.1 98.6001C153.1 79.8001 166.3 56.9001 182.6 47.5001Z" stroke="#C4D9F8" stroke-linecap="round" stroke-dasharray="5 5"/>
<path d="M181.5 57.3001C193 50.6001 202.4 56.0001 202.4 69.3001C202.4 82.6001 193.1 98.8001 181.5 105.4C170 112.1 160.6 106.7 160.6 93.4001C160.6 80.1001 169.9 64.0001 181.5 57.3001Z" fill="#6CB6E1"/>
<path d="M174.3 110C177.1 110 180.2 109.1 183.4 107.2C194.7 100.7 204 84.6001 204 71.5001C204 62.6001 199.8 57.1001 193 57.1001C190.2 57.1001 187.1 58.0001 183.9 59.9001C172.5 66.5001 163.3 82.5001 163.3 95.6001C163.3 100 164.4 103.7 166.4 106.3C168.3 108.7 171 110 174.3 110ZM192 83.5001C195.1 83.5001 195.7 85.3001 195.8 86.3001V86.4001L195.7 86.5001C192.9 92.6001 188.6 97.8001 183.8 100.5C181.5 101.8 179.3 102.5 177.2 102.5C174.9 102.5 173 101.7 171.5 100.1L171.4 99.9001V99.7001C171.7 94.7001 179.9 88.0001 183.3 86.0001C185.6 84.9001 189.2 83.5001 192 83.5001ZM186.2 66.5001C188.5 66.5001 190 68.3001 190 71.2001C190 75.1001 187.3 79.8001 183.9 81.7001C182.9 82.3001 182 82.5001 181.1 82.5001C178.8 82.5001 177.3 80.7001 177.3 77.9001C177.3 74.0001 180 69.3001 183.4 67.4001C184.4 66.8001 185.3 66.5001 186.2 66.5001Z" fill="white"/>
<path d="M192.9 57.6001C190.2 57.6001 187.2 58.5001 184.1 60.3001C172.9 66.8001 163.7 82.6001 163.7 95.6001C163.7 104.2 167.7 109.5 174.2 109.5C176.9 109.5 179.9 108.6 183 106.8C194.2 100.3 203.4 84.5001 203.4 71.5001C203.5 63.0001 199.4 57.6001 192.9 57.6001ZM181.1 83.1001C178.5 83.1001 176.8 81.0001 176.8 78.0001C176.8 74.0001 179.6 69.0001 183.1 67.0001C184.2 66.4001 185.2 66.1001 186.2 66.1001C188.7 66.1001 190.5 68.2001 190.5 71.3001C190.5 75.3001 187.7 80.3001 184.2 82.3001C183.1 82.8001 182 83.1001 181.1 83.1001ZM177.3 103.1C174.9 103.1 172.8 102.2 171.2 100.5L170.9 100.2V99.8001C171.2 94.6001 179.6 87.7001 183.1 85.7001C185.4 84.4001 189.1 83.0001 192 83.0001C195.7 83.0001 196.2 85.3001 196.3 86.3001V86.5001L196.2 86.7001C193.4 92.9001 189 98.1001 184.1 100.9C181.7 102.4 179.4 103.1 177.3 103.1ZM192.9 56.6001C199.7 56.6001 204.4 62.1001 204.4 71.5001C204.4 84.8001 195.1 101 183.5 107.6C180.1 109.5 177 110.5 174.2 110.5C167.4 110.5 162.7 105 162.7 95.6001C162.7 82.3001 172 66.1001 183.6 59.5001C187 57.5001 190.1 56.6001 192.9 56.6001ZM181.1 82.1001C181.9 82.1001 182.7 81.9001 183.7 81.3001C186.9 79.5001 189.5 74.9001 189.5 71.2001C189.5 68.6001 188.2 67.0001 186.2 67.0001C185.4 67.0001 184.5 67.3001 183.6 67.8001C180.4 69.7001 177.8 74.2001 177.8 77.9001C177.8 80.5001 179.1 82.1001 181.1 82.1001ZM177.3 102.1C179.2 102.1 181.4 101.5 183.6 100.2C188.4 97.4001 192.7 92.2001 195.3 86.4001C195.2 84.7001 193.8 84.0001 192 84.0001C189.4 84.0001 185.8 85.3001 183.6 86.6001C179.8 88.8001 172.2 95.4001 171.9 99.8001C173.3 101.3 175.1 102.1 177.3 102.1Z" fill="#6CB6E1"/>
<path d="M308.3 141.3V113.2C308.3 110.5 305.6 108.5 303 109.4L206.2 142C204.6 142.5 203.5 144.1 203.5 145.8V193.6" stroke="#C4D9F8" stroke-linecap="round" stroke-dasharray="5 5"/>
<path d="M311.8 263.9V127L219 158.2V295.1L311.8 263.9Z" fill="white"/>
<path d="M311.3 127.7L219.5 158.6V294.5L311.3 263.6V127.7ZM312.3 126.3V264.3L218.5 295.8V157.8L312.3 126.3Z" fill="#405BB8"/>
<path d="M231.4 277.2L299.4 254.3V209.6L231.4 232.5V277.2Z" fill="#6CB6E1"/>
<path d="M263.6 163.8L302.4 150.7V140.8L263.6 153.9V163.8Z" fill="white" stroke="#405BB8"/>
<path d="M302.4 162.6L263.6 175.7" stroke="#405BB8"/>
<path d="M302.4 170.5L248 188.8" stroke="#405BB8"/>
<path d="M302.4 178.4L232.5 201.9" stroke="#405BB8"/>
<path d="M302.4 186.3L239.5 207.4" stroke="#405BB8"/>
<path d="M302.4 194.2L232.5 217.7" stroke="#405BB8"/>
<path d="M312.3 126.3L304.4 118.4L210.6 150V287.9L218.5 295.8V157.8L312.3 126.3Z" fill="#405BB8"/>
<path d="M421.4 195.4V246.7C421.4 249.8 424.5 252.1 427.5 251.1L589.7 197.5C591.6 196.9 592.9 195.1 592.9 193.1V140.6" stroke="#C4D9F8" stroke-linecap="round" stroke-dasharray="5 5"/>
<path d="M49.9999 206.1V294.2C49.9999 297.3 53.0999 299.6 56.0999 298.6L70.8999 293.7" stroke="#C4D9F8" stroke-linecap="round" stroke-dasharray="5 5"/>
<path d="M503 330.6L535.5 320C537.4 319.4 538.7 317.6 538.7 315.5V283.5C538.7 280.3 535.6 278 532.5 279L500 289.6C498.1 290.2 496.8 292 496.8 294.1V326.1C496.8 329.4 500 331.6 503 330.6Z" stroke="#C4D9F8" stroke-linecap="round" stroke-dasharray="5 5"/>
<path d="M24.7001 189.8V207.1C24.7001 210.6 28.1001 213 31.4001 211.9L66.6001 200.4C68.7001 199.7 70.1001 197.8 70.1001 195.6V179.9V142.7C70.1001 139.8 67.2001 137.7 64.4001 138.6L27.6001 150.5C25.8001 151.1 24.6001 152.7 24.6001 154.6V189.8H24.7001Z" stroke="#C4D9F8" stroke-linecap="round" stroke-dasharray="5 5"/>
<path d="M518 221.7V284.8" stroke="#C4D9F8" stroke-linecap="round" stroke-dasharray="5 5"/>
<path d="M526 299.9H523.6L519.8 306.1L522.4 306.6L526 299.9Z" fill="#6CB6E1"/>
<path d="M523.9 300.4L520.6 305.7L522.1 306L525.2 300.4H523.9ZM523.4 299.4H526.9L522.7 307.2L519 306.4L523.4 299.4Z" fill="#6CB6E1"/>
<path d="M525.7 302.9L523.4 300.2L519.1 307.2L507.5 297.3L507 300.9L520.2 312.9L525.7 302.9Z" fill="#6CB6E1"/>
<path d="M507.8 298.3L507.4 300.8L520 312.2L525 303L523.4 301.1L519.8 307L519.2 308L518.3 307.3L507.8 298.3ZM507.1 296.4L519 306.4L523.4 299.4L526.4 302.8L520.5 313.7L506.5 301.1L507.1 296.4Z" fill="#6CB6E1"/>
<path d="M529.5 302.8L526.9 299.8L522.6 306.8L510.8 296.9L510.2 301L523.8 313.3L529.5 302.8Z" fill="white"/>
<path d="M511 297.3L510.5 300.9L523.8 312.9L529.3 302.9L527 300.3L523 306.7L522.7 307.2L522.3 306.8L511 297.3ZM510.6 296.4L522.5 306.4L526.9 299.4L529.9 302.8L524 313.7L510 301.1L510.6 296.4Z" fill="#6CB6E1"/>
<path d="M522.6 313.2L509.4 301.3L510.1 296.9H507.5L507 300.9L520.6 313.2H522.6Z" fill="#6CB6E1"/>
<path d="M508 297.4L507.5 300.8L520.8 312.8H521.3L509.3 302L508.9 301.6L509 301L509.5 297.4H508ZM507.1 296.4H510.6L509.9 301.2L523.9 313.8H520.4L506.4 301.2L507.1 296.4Z" fill="#6CB6E1"/>
<path d="M519.9 325.7V366.3C519.9 367.9 518.9 369.4 517.4 370L333 432.7" stroke="#C4D9F8" stroke-linecap="round" stroke-dasharray="5 5"/>
<path d="M332.5 447.3V399.6L291.9 414.2V460.7L332.5 447.3Z" fill="white"/>
<path d="M332 400.3L292.3 414.6V460L332 446.9V400.3ZM333 398.9V447.6L291.3 461.3V413.8L333 398.9Z" fill="#405BB8"/>
<path d="M290.9 413.5L331.8 398.8L302.7 383.5L261.5 398.3V445.2L290.9 460.5V413.5Z" fill="#405BB8"/>
<path d="M302.6 384.1L262 398.7V444.9L290.3 459.8V414V413.3L291 413.1L330.5 398.9L302.6 384.1ZM302.7 383L333 398.9L291.3 413.9V461.4L261 445.5V398L302.7 383Z" fill="#405BB8"/>
<path d="M274.5 464.9V367.3L233.9 381.9V478.4L274.5 464.9Z" fill="white"/>
<path d="M274 368L234.3 382.3V477.7L274 464.6V368ZM275 366.6V465.3L233.3 479V381.5L275 366.6Z" fill="#405BB8"/>
<path d="M232.9 381.2L273.8 366.5L244.7 351.2L203.5 366V462.8L232.9 478.2V381.2Z" fill="#405BB8"/>
<path d="M244.6 351.7L204 366.3V462.5L232.3 477.4V381.6V380.9L233 380.7L272.5 366.5L244.6 351.7ZM244.7 350.7L275 366.6L233.3 381.6V479L203 463.1V365.6L244.7 350.7Z" fill="#405BB8"/>
<path d="M215.3 484.8V337.1L174.6 351.8V498.2L215.3 484.8Z" fill="white"/>
<path d="M214.8 337.8L175.1 352.1V497.5L214.8 484.4V337.8ZM215.8 336.4V485.1L174.1 498.8V351.4L215.8 336.4Z" fill="#405BB8"/>
<path d="M173.599 351.1L214.5 336.3L185.4 321.1L144.299 335.9V482.7L173.599 498.1V351.1Z" fill="#405BB8"/>
<path d="M185.4 321.6L144.8 336.2V482.4L173.1 497.3V351.4V350.7L173.8 350.5L213.3 336.3L185.4 321.6ZM185.4 320.5L215.7 336.4L174 351.4V498.9L143.7 483V335.5L185.4 320.5Z" fill="#405BB8"/>
<path d="M156 504.9V302.2L115.3 316.9V518.3L156 504.9Z" fill="white"/>
<path d="M155.5 302.9L115.8 317.2V517.6L155.5 504.5V302.9ZM156.5 301.5V505.2L114.8 518.9V316.5L156.5 301.5Z" fill="#405BB8"/>
<path d="M114.3 316.2L155.3 301.4L126.1 286.1L84.9998 301V502.8L114.3 518.2V316.2Z" fill="#405BB8"/>
<path d="M126.1 286.7L85.5 301.3V502.5L113.8 517.4V316.5V315.8L114.5 315.6L154 301.3L126.1 286.7ZM126.2 285.6L156.5 301.5L114.8 316.5V519L84.5 503.1V300.6L126.2 285.6Z" fill="#405BB8"/>
<path d="M291.6 466.7L334.6 452.5C336.2 452 337.3 450.4 337.3 448.7V397.6C337.3 394.8 334.6 392.9 331.9 393.8L288.9 409.3C287.3 409.9 286.3 411.4 286.3 413.1V462.9C286.3 465.6 289 467.5 291.6 466.7Z" stroke="#C4D9F8" stroke-linecap="round" stroke-dasharray="5 5"/>
<path d="M45.5002 191.3C53.2002 185 59.1002 173.3 59.4002 164L59.7002 154.2C58.5002 154.5 55.9002 155 53.9002 155.2C53.4002 155.2 52.8002 155.2 52.2002 155.2C50.1002 155.2 47.7002 155 46.9002 155C42.7002 158.9 36.9002 161 34.4002 161.9C34.1002 162 33.8002 162.1 33.6002 162.2L33.3002 172.3C33.1002 179.6 36.1002 184.3 38.7002 186.9C41.6002 190 44.7002 191.2 45.5002 191.3Z" fill="#405BB8"/>
<path d="M59.1001 154.9C57.8001 155.2 55.6001 155.6 53.9001 155.7C53.4001 155.7 52.8001 155.7 52.1001 155.7C50.1001 155.7 47.9001 155.6 47.0001 155.5C42.7001 159.3 37.0001 161.4 34.5001 162.3C34.3001 162.4 34.2001 162.4 34.0001 162.5L33.7001 172.3C33.4001 185.4 43.4001 190.3 45.3001 190.7C52.8001 184.5 58.6001 173 58.8001 164L59.1001 154.9ZM60.1001 153.6L59.8001 164C59.6001 173.4 53.5001 185.4 45.6001 191.7H45.5001C44.0001 191.7 32.3001 186.7 32.7001 172.2L33.0001 161.8C34.2001 161.3 41.7001 159.2 46.6001 154.5C46.6001 154.5 49.5001 154.7 52.1001 154.7C52.7001 154.7 53.3001 154.7 53.8001 154.7C56.4001 154.5 60.1001 153.6 60.1001 153.6Z" fill="#405BB8"/>
<path d="M49.9001 195.6C57.6001 189.3 63.5001 177.6 63.8001 168.3L64.1001 158.5C62.9001 158.8 60.3001 159.3 58.3001 159.5C57.8001 159.5 57.2001 159.5 56.6001 159.5C54.5001 159.5 52.1001 159.3 51.3001 159.3C47.1001 163.2 41.3001 165.3 38.8001 166.2C38.5001 166.3 38.2001 166.4 38.0001 166.5L37.7001 176.6C37.5001 183.9 40.5001 188.6 43.1001 191.2C46.1001 194.4 49.2001 195.5 49.9001 195.6Z" fill="white"/>
<path d="M63.5001 159.2C62.2001 159.5 60.0001 159.9 58.3001 160C57.8001 160 57.2001 160 56.5001 160C54.5001 160 52.3001 159.9 51.4001 159.8C47.1001 163.6 41.4001 165.7 38.9001 166.6C38.7001 166.7 38.6001 166.7 38.4001 166.8L38.1001 176.6C37.8001 189.7 47.8001 194.6 49.7001 195C57.2001 188.8 63.0001 177.3 63.2001 168.3L63.5001 159.2ZM64.6001 158L64.3001 168.4C64.1001 177.8 58.0001 189.8 50.1001 196.1H50.0001C48.5001 196.1 36.8001 191.1 37.2001 176.6L37.5001 166.2C38.7001 165.7 46.2001 163.6 51.1001 158.9C51.1001 158.9 54.0001 159.1 56.6001 159.1C57.2001 159.1 57.8001 159.1 58.3001 159.1C60.9001 158.9 64.6001 158 64.6001 158Z" fill="#405BB8"/>
<path d="M63.6001 157.7L60.0001 154.2L54.7001 155.8L58.4001 159.2L63.6001 157.7Z" fill="#405BB8"/>
<path d="M59.8001 154.7L55.7001 156L58.5001 158.6L62.6001 157.4L59.8001 154.7ZM60.1001 153.6L64.6001 158L58.3001 159.8L53.8001 155.6L60.1001 153.6Z" fill="#405BB8"/>
<path d="M144 148L128 154V170L144 164V148Z" fill="#ECF6FB"/>
<path d="M95 104L89 106.182V112L95 109.818V104Z" fill="#ECF6FB"/>
<path d="M449 331L433 337V353L449 347V331Z" fill="#ECF6FB"/>
<path d="M123 477L107 483V499L123 493V477Z" fill="#ECF6FB"/>
<path d="M379 544L363 550V566L379 560V544Z" fill="#ECF6FB"/>
<path d="M486 90L470 96V112L486 106V90Z" fill="#ECF6FB"/>
<path d="M628 305L612 311V327L628 321V305Z" fill="#ECF6FB"/>
<path d="M234 402.962C237.852 400.723 241 402.528 241 406.973C241 411.418 237.885 416.832 234 419.038C230.148 421.277 227 419.472 227 415.027C227 410.582 230.115 405.201 234 402.962Z" fill="#ECF6FB"/>
<path d="M527 533.962C530.852 531.723 534 533.528 534 537.973C534 542.418 530.885 547.832 527 550.038C523.148 552.277 520 550.472 520 546.027C520 541.582 523.115 536.201 527 533.962Z" fill="#ECF6FB"/>
<path d="M340 80L334 82.1818V88L340 85.8182V80Z" fill="#ECF6FB"/>
<path d="M478 349L472 351.182V357L478 354.818V349Z" fill="#ECF6FB"/>
</g>
<path d="M774 430L768 432.182V438L774 435.818V430Z" fill="#ECF6FB"/>
<path d="M821 377L815 379.182V385L821 382.818V377Z" fill="#ECF6FB"/>
<path d="M240 0L234 2.18182V8L240 5.81818V0Z" fill="#ECF6FB"/>
<path d="M16 306L0 312V328L16 322V306Z" fill="#ECF6FB"/>
<path d="M769 390L665.5 339" stroke="#DDDDDD" stroke-width="2" stroke-linecap="round"/>
<defs>
<clipPath id="clip0">
<rect width="614" height="549" fill="white" transform="matrix(-1 0 0 1 638 43)"/>
</clipPath>
</defs>
</svg>
