<svg width="490" height="250" viewBox="0 0 490 250" fill="none" xmlns="http://www.w3.org/2000/svg">
<path d="M117.4 167.2V191H26.4V167.2H59.2V93.8H33V75.6C40.4667 74.2667 46.8 72.6667 52 70.8C57.3333 68.9333 62.3333 66.6667 67 64H88.6V167.2H117.4ZM189.922 193.4C182.589 193.4 175.922 192 169.922 189.2C163.922 186.267 158.789 182 154.522 176.4C150.255 170.8 146.922 163.867 144.522 155.6C142.255 147.333 141.122 137.8 141.122 127C141.122 116.2 142.255 106.733 144.522 98.6C146.922 90.4667 150.255 83.6667 154.522 78.2C158.789 72.6 163.922 68.4667 169.922 65.8C175.922 63 182.589 61.6 189.922 61.6C197.255 61.6 203.922 63 209.922 65.8C215.922 68.4667 221.055 72.6 225.322 78.2C229.589 83.6667 232.855 90.4667 235.122 98.6C237.522 106.733 238.722 116.2 238.722 127C238.722 137.8 237.522 147.333 235.122 155.6C232.855 163.867 229.589 170.8 225.322 176.4C221.055 182 215.922 186.267 209.922 189.2C203.922 192 197.255 193.4 189.922 193.4ZM189.922 84.4C186.722 84.4 183.722 85.0667 180.922 86.4C178.255 87.7333 175.922 90.0667 173.922 93.4C171.922 96.6 170.322 100.933 169.122 106.4C167.922 111.867 167.322 118.733 167.322 127C167.322 135.267 167.922 142.2 169.122 147.8C170.322 153.267 171.922 157.733 173.922 161.2C175.922 164.533 178.255 166.933 180.922 168.4C183.722 169.867 186.722 170.6 189.922 170.6C193.122 170.6 196.055 169.867 198.722 168.4C201.522 166.933 203.922 164.533 205.922 161.2C207.922 157.733 209.522 153.267 210.722 147.8C211.922 142.2 212.522 135.267 212.522 127C212.522 118.733 211.922 111.867 210.722 106.4C209.522 100.933 207.922 96.6 205.922 93.4C203.922 90.0667 201.522 87.7333 198.722 86.4C196.055 85.0667 193.122 84.4 189.922 84.4ZM189.922 141.8C185.655 141.8 182.055 140.467 179.122 137.8C176.322 135 174.922 131.267 174.922 126.6C174.922 121.933 176.322 118.267 179.122 115.6C182.055 112.8 185.655 111.4 189.922 111.4C194.189 111.4 197.722 112.8 200.522 115.6C203.455 118.267 204.922 121.933 204.922 126.6C204.922 131.267 203.455 135 200.522 137.8C197.722 140.467 194.189 141.8 189.922 141.8ZM309.844 193.4C302.51 193.4 295.844 192 289.844 189.2C283.844 186.267 278.71 182 274.444 176.4C270.177 170.8 266.844 163.867 264.444 155.6C262.177 147.333 261.044 137.8 261.044 127C261.044 116.2 262.177 106.733 264.444 98.6C266.844 90.4667 270.177 83.6667 274.444 78.2C278.71 72.6 283.844 68.4667 289.844 65.8C295.844 63 302.51 61.6 309.844 61.6C317.177 61.6 323.844 63 329.844 65.8C335.844 68.4667 340.977 72.6 345.244 78.2C349.51 83.6667 352.777 90.4667 355.044 98.6C357.444 106.733 358.644 116.2 358.644 127C358.644 137.8 357.444 147.333 355.044 155.6C352.777 163.867 349.51 170.8 345.244 176.4C340.977 182 335.844 186.267 329.844 189.2C323.844 192 317.177 193.4 309.844 193.4ZM309.844 84.4C306.644 84.4 303.644 85.0667 300.844 86.4C298.177 87.7333 295.844 90.0667 293.844 93.4C291.844 96.6 290.244 100.933 289.044 106.4C287.844 111.867 287.244 118.733 287.244 127C287.244 135.267 287.844 142.2 289.044 147.8C290.244 153.267 291.844 157.733 293.844 161.2C295.844 164.533 298.177 166.933 300.844 168.4C303.644 169.867 306.644 170.6 309.844 170.6C313.044 170.6 315.977 169.867 318.644 168.4C321.444 166.933 323.844 164.533 325.844 161.2C327.844 157.733 329.444 153.267 330.644 147.8C331.844 142.2 332.444 135.267 332.444 127C332.444 118.733 331.844 111.867 330.644 106.4C329.444 100.933 327.844 96.6 325.844 93.4C323.844 90.0667 321.444 87.7333 318.644 86.4C315.977 85.0667 313.044 84.4 309.844 84.4ZM309.844 141.8C305.577 141.8 301.977 140.467 299.044 137.8C296.244 135 294.844 131.267 294.844 126.6C294.844 121.933 296.244 118.267 299.044 115.6C301.977 112.8 305.577 111.4 309.844 111.4C314.11 111.4 317.644 112.8 320.444 115.6C323.377 118.267 324.844 121.933 324.844 126.6C324.844 131.267 323.377 135 320.444 137.8C317.644 140.467 314.11 141.8 309.844 141.8ZM404.366 128.6C400.099 128.6 396.166 127.8 392.566 126.2C388.966 124.6 385.832 122.333 383.166 119.4C380.499 116.467 378.432 112.933 376.966 108.8C375.499 104.533 374.766 99.8 374.766 94.6C374.766 89.4 375.499 84.8 376.966 80.8C378.432 76.6667 380.499 73.2 383.166 70.4C385.832 67.4667 388.966 65.2667 392.566 63.8C396.166 62.2 400.099 61.4 404.366 61.4C408.632 61.4 412.566 62.2 416.166 63.8C419.766 65.2667 422.899 67.4667 425.566 70.4C428.232 73.2 430.299 76.6667 431.766 80.8C433.232 84.8 433.966 89.4 433.966 94.6C433.966 99.8 433.232 104.533 431.766 108.8C430.299 112.933 428.232 116.467 425.566 119.4C422.899 122.333 419.766 124.6 416.166 126.2C412.566 127.8 408.632 128.6 404.366 128.6ZM404.366 112.8C406.899 112.8 409.099 111.467 410.966 108.8C412.966 106.133 413.966 101.4 413.966 94.6C413.966 87.8 412.966 83.2 410.966 80.8C409.099 78.4 406.899 77.2 404.366 77.2C401.832 77.2 399.566 78.4 397.566 80.8C395.699 83.2 394.766 87.8 394.766 94.6C394.766 101.4 395.699 106.133 397.566 108.8C399.566 111.467 401.832 112.8 404.366 112.8ZM373.366 170.8L410.566 136.2L420.766 145.6L388.366 185.4L373.366 170.8ZM486.566 80.8L449.366 115.6L439.166 106L471.566 66.2L486.566 80.8ZM455.366 193.4C451.099 193.4 447.166 192.6 443.566 191C439.966 189.4 436.832 187.133 434.166 184.2C431.499 181.267 429.432 177.733 427.966 173.6C426.499 169.333 425.766 164.6 425.766 159.4C425.766 154.2 426.499 149.6 427.966 145.6C429.432 141.467 431.499 138 434.166 135.2C436.832 132.267 439.966 130.067 443.566 128.6C447.166 127 451.099 126.2 455.366 126.2C459.632 126.2 463.566 127 467.166 128.6C470.766 130.067 473.899 132.267 476.566 135.2C479.232 138 481.299 141.467 482.766 145.6C484.232 149.6 484.966 154.2 484.966 159.4C484.966 164.6 484.232 169.333 482.766 173.6C481.299 177.733 479.232 181.267 476.566 184.2C473.899 187.133 470.766 189.4 467.166 191C463.566 192.6 459.632 193.4 455.366 193.4ZM455.366 177.6C457.899 177.6 460.099 176.267 461.966 173.6C463.966 170.933 464.966 166.2 464.966 159.4C464.966 152.6 463.966 148 461.966 145.6C460.099 143.2 457.899 142 455.366 142C452.832 142 450.566 143.2 448.566 145.6C446.699 148 445.766 152.6 445.766 159.4C445.766 166.2 446.699 170.933 448.566 173.6C450.566 176.267 452.832 177.6 455.366 177.6Z" fill="#405BB8"/>
<path d="M33 76L22 85L33.5 88.5L45.5 77L33 76Z" fill="#405BB8"/>
<path d="M26.5 167L16.1983 176.09C16.1292 176.151 16.1723 176.265 16.2645 176.265H108V201.724C108 201.817 108.117 201.86 108.177 201.788L117 191.191V167H26.5Z" fill="#405BB8" stroke="#405BB8"/>
<path d="M180.936 115.053L167 126.5L191.926 146.939C191.967 146.973 192.028 146.968 192.064 146.928L203.5 134L181.064 115.054C181.027 115.023 180.973 115.022 180.936 115.053Z" fill="#405BB8" stroke="#405BB8"/>
<path d="M300.936 115.053L287 126.5L311.926 146.939C311.967 146.973 312.028 146.968 312.064 146.928L323.5 134L301.064 115.054C301.027 115.023 300.973 115.022 300.936 115.053Z" fill="#405BB8" stroke="#405BB8"/>
<path d="M15.8 201V177.2H50V103.8H21.8V85.6C26.0667 84.9333 29.8667 84.2667 33.2 83.6C36.6667 82.8 39.8 81.9333 42.6 81C45.4 80.0667 48 79.0667 50.4 78C52.9333 76.8 55.4 75.4667 57.8 74H79.4V177.2H108.2V201H15.8ZM179.922 203.4C172.589 203.4 165.922 202 159.922 199.2C153.922 196.267 148.789 192 144.522 186.4C140.255 180.8 136.922 173.867 134.522 165.6C132.255 157.333 131.122 147.8 131.122 137C131.122 126.2 132.255 116.733 134.522 108.6C136.922 100.467 140.255 93.6667 144.522 88.2C148.789 82.6 153.922 78.4667 159.922 75.8C165.922 73 172.589 71.6 179.922 71.6C187.255 71.6 193.922 73 199.922 75.8C205.922 78.4667 211.055 82.6 215.322 88.2C219.589 93.6667 222.855 100.467 225.122 108.6C227.522 116.733 228.722 126.2 228.722 137C228.722 147.8 227.522 157.333 225.122 165.6C222.855 173.867 219.589 180.8 215.322 186.4C211.055 192 205.922 196.267 199.922 199.2C193.922 202 187.255 203.4 179.922 203.4ZM179.922 180.6C183.122 180.6 186.055 179.867 188.722 178.4C191.522 176.933 193.922 174.533 195.922 171.2C197.922 167.733 199.522 163.267 200.722 157.8C201.922 152.2 202.522 145.267 202.522 137C202.522 128.733 201.922 121.867 200.722 116.4C199.522 110.933 197.922 106.6 195.922 103.4C193.922 100.067 191.522 97.7333 188.722 96.4C186.055 95.0667 183.122 94.4 179.922 94.4C176.722 94.4 173.722 95.0667 170.922 96.4C168.255 97.7333 165.922 100.067 163.922 103.4C161.922 106.6 160.322 110.933 159.122 116.4C157.922 121.867 157.322 128.733 157.322 137C157.322 145.267 157.922 152.2 159.122 157.8C160.322 163.267 161.922 167.733 163.922 171.2C165.922 174.533 168.255 176.933 170.922 178.4C173.722 179.867 176.722 180.6 179.922 180.6ZM179.922 151.8C175.655 151.8 172.055 150.467 169.122 147.8C166.322 145 164.922 141.267 164.922 136.6C164.922 131.933 166.322 128.267 169.122 125.6C172.055 122.8 175.655 121.4 179.922 121.4C184.189 121.4 187.722 122.8 190.522 125.6C193.455 128.267 194.922 131.933 194.922 136.6C194.922 141.267 193.455 145 190.522 147.8C187.722 150.467 184.189 151.8 179.922 151.8ZM299.844 203.4C292.51 203.4 285.844 202 279.844 199.2C273.844 196.267 268.71 192 264.444 186.4C260.177 180.8 256.844 173.867 254.444 165.6C252.177 157.333 251.044 147.8 251.044 137C251.044 126.2 252.177 116.733 254.444 108.6C256.844 100.467 260.177 93.6667 264.444 88.2C268.71 82.6 273.844 78.4667 279.844 75.8C285.844 73 292.51 71.6 299.844 71.6C307.177 71.6 313.844 73 319.844 75.8C325.844 78.4667 330.977 82.6 335.244 88.2C339.51 93.6667 342.777 100.467 345.044 108.6C347.444 116.733 348.644 126.2 348.644 137C348.644 147.8 347.444 157.333 345.044 165.6C342.777 173.867 339.51 180.8 335.244 186.4C330.977 192 325.844 196.267 319.844 199.2C313.844 202 307.177 203.4 299.844 203.4ZM299.844 180.6C303.044 180.6 305.977 179.867 308.644 178.4C311.444 176.933 313.844 174.533 315.844 171.2C317.844 167.733 319.444 163.267 320.644 157.8C321.844 152.2 322.444 145.267 322.444 137C322.444 128.733 321.844 121.867 320.644 116.4C319.444 110.933 317.844 106.6 315.844 103.4C313.844 100.067 311.444 97.7333 308.644 96.4C305.977 95.0667 303.044 94.4 299.844 94.4C296.644 94.4 293.644 95.0667 290.844 96.4C288.177 97.7333 285.844 100.067 283.844 103.4C281.844 106.6 280.244 110.933 279.044 116.4C277.844 121.867 277.244 128.733 277.244 137C277.244 145.267 277.844 152.2 279.044 157.8C280.244 163.267 281.844 167.733 283.844 171.2C285.844 174.533 288.177 176.933 290.844 178.4C293.644 179.867 296.644 180.6 299.844 180.6ZM299.844 151.8C295.577 151.8 291.977 150.467 289.044 147.8C286.244 145 284.844 141.267 284.844 136.6C284.844 131.933 286.244 128.267 289.044 125.6C291.977 122.8 295.577 121.4 299.844 121.4C304.11 121.4 307.644 122.8 310.444 125.6C313.377 128.267 314.844 131.933 314.844 136.6C314.844 141.267 313.377 145 310.444 147.8C307.644 150.467 304.11 151.8 299.844 151.8ZM394.566 138.6C390.299 138.6 386.366 137.8 382.766 136.2C379.166 134.6 376.032 132.333 373.366 129.4C370.699 126.467 368.632 122.933 367.166 118.8C365.699 114.667 364.966 110 364.966 104.8C364.966 99.6 365.699 94.9333 367.166 90.8C368.632 86.6667 370.699 83.2 373.366 80.4C376.032 77.4667 379.166 75.2667 382.766 73.8C386.366 72.2 390.299 71.4 394.566 71.4C398.832 71.4 402.766 72.2 406.366 73.8C409.966 75.2667 413.099 77.4667 415.766 80.4C418.432 83.2 420.499 86.6667 421.966 90.8C423.432 94.9333 424.166 99.6 424.166 104.8C424.166 110 423.432 114.667 421.966 118.8C420.499 122.933 418.432 126.467 415.766 129.4C413.099 132.333 409.966 134.6 406.366 136.2C402.766 137.8 398.832 138.6 394.566 138.6ZM394.566 122.8C397.099 122.8 399.299 121.533 401.166 119C403.166 116.333 404.166 111.6 404.166 104.8C404.166 98 403.166 93.4 401.166 91C399.299 88.4667 397.099 87.2 394.566 87.2C392.032 87.2 389.766 88.4667 387.766 91C385.899 93.4 384.966 98 384.966 104.8C384.966 111.6 385.899 116.333 387.766 119C389.766 121.533 392.032 122.8 394.566 122.8ZM378.366 195.4L363.366 180.8L400.566 146.2L410.766 155.6L378.366 195.4ZM439.366 125.6L429.166 116L461.566 76.2L476.566 90.8L439.366 125.6ZM445.166 203.4C440.899 203.4 436.966 202.6 433.366 201C429.766 199.4 426.632 197.133 423.966 194.2C421.299 191.267 419.232 187.733 417.766 183.6C416.299 179.467 415.566 174.8 415.566 169.6C415.566 164.4 416.299 159.733 417.766 155.6C419.232 151.467 421.299 148 423.966 145.2C426.632 142.267 429.766 140.067 433.366 138.6C436.966 137 440.899 136.2 445.166 136.2C449.432 136.2 453.366 137 456.966 138.6C460.566 140.067 463.699 142.267 466.366 145.2C469.032 148 471.099 151.467 472.566 155.6C474.032 159.733 474.766 164.4 474.766 169.6C474.766 174.8 474.032 179.467 472.566 183.6C471.099 187.733 469.032 191.267 466.366 194.2C463.699 197.133 460.566 199.4 456.966 201C453.366 202.6 449.432 203.4 445.166 203.4ZM445.166 187.6C447.699 187.6 449.899 186.333 451.766 183.8C453.766 181.133 454.766 176.4 454.766 169.6C454.766 162.8 453.766 158.2 451.766 155.8C449.899 153.267 447.699 152 445.166 152C442.632 152 440.366 153.267 438.366 155.8C436.499 158.2 435.566 162.8 435.566 169.6C435.566 176.4 436.499 181.133 438.366 183.8C440.366 186.333 442.632 187.6 445.166 187.6Z" fill="white"/>
<path d="M15.8 201H14.8V202H15.8V201ZM15.8 177.2V176.2H14.8V177.2H15.8ZM50 177.2V178.2H51V177.2H50ZM50 103.8H51V102.8H50V103.8ZM21.8 103.8H20.8V104.8H21.8V103.8ZM21.8 85.6L21.6456 84.612L20.8 84.7441V85.6H21.8ZM33.2 83.6L33.3961 84.5806L33.4105 84.5777L33.4249 84.5744L33.2 83.6ZM42.6 81L42.9162 81.9487H42.9162L42.6 81ZM50.4 78L50.8061 78.9138L50.8172 78.9089L50.8281 78.9037L50.4 78ZM57.8 74V73H57.5186L57.2785 73.1467L57.8 74ZM79.4 74H80.4V73H79.4V74ZM79.4 177.2H78.4V178.2H79.4V177.2ZM108.2 177.2H109.2V176.2H108.2V177.2ZM108.2 201V202H109.2V201H108.2ZM16.8 201V177.2H14.8V201H16.8ZM15.8 178.2H50V176.2H15.8V178.2ZM51 177.2V103.8H49V177.2H51ZM50 102.8H21.8V104.8H50V102.8ZM22.8 103.8V85.6H20.8V103.8H22.8ZM21.9544 86.588C26.2315 85.9197 30.0458 85.2506 33.3961 84.5806L33.0039 82.6194C29.6875 83.2827 25.9019 83.9469 21.6456 84.612L21.9544 86.588ZM33.4249 84.5744C36.9163 83.7687 40.0809 82.8938 42.9162 81.9487L42.2838 80.0513C39.5191 80.9728 36.417 81.8313 32.9751 82.6256L33.4249 84.5744ZM42.9162 81.9487C45.7431 81.0064 48.3734 79.995 50.8061 78.9138L49.9939 77.0862C47.6266 78.1383 45.0569 79.1269 42.2838 80.0513L42.9162 81.9487ZM50.8281 78.9037C53.3935 77.6885 55.8913 76.3383 58.3215 74.8533L57.2785 73.1467C54.9087 74.595 52.4731 75.9115 49.9719 77.0963L50.8281 78.9037ZM57.8 75H79.4V73H57.8V75ZM78.4 74V177.2H80.4V74H78.4ZM79.4 178.2H108.2V176.2H79.4V178.2ZM107.2 177.2V201H109.2V177.2H107.2ZM108.2 200H15.8V202H108.2V200ZM159.922 199.2L159.483 200.098L159.491 200.102L159.499 200.106L159.922 199.2ZM144.522 186.4L145.317 185.794L144.522 186.4ZM134.522 165.6L133.557 165.864L133.559 165.872L133.562 165.879L134.522 165.6ZM134.522 108.6L133.563 108.317L133.561 108.324L133.559 108.332L134.522 108.6ZM144.522 88.2L145.31 88.8153L145.317 88.806L144.522 88.2ZM159.922 75.8L160.328 76.7138L160.336 76.7101L160.345 76.7062L159.922 75.8ZM199.922 75.8L199.499 76.7062L199.507 76.7101L199.516 76.7138L199.922 75.8ZM215.322 88.2L214.526 88.8061L214.534 88.8153L215.322 88.2ZM225.122 108.6L224.159 108.868L224.161 108.876L224.163 108.883L225.122 108.6ZM225.122 165.6L224.162 165.321L224.159 165.328L224.157 165.336L225.122 165.6ZM215.322 186.4L216.117 187.006L215.322 186.4ZM199.922 199.2L200.345 200.106L200.353 200.102L200.361 200.098L199.922 199.2ZM188.722 178.4L188.258 177.514L188.249 177.519L188.24 177.524L188.722 178.4ZM195.922 171.2L196.779 171.714L196.784 171.707L196.788 171.7L195.922 171.2ZM200.722 157.8L201.699 158.014L201.7 158.01L200.722 157.8ZM200.722 116.4L199.745 116.614L200.722 116.4ZM195.922 103.4L195.064 103.914L195.069 103.922L195.074 103.93L195.922 103.4ZM188.722 96.4L188.275 97.2944L188.283 97.2987L188.292 97.3029L188.722 96.4ZM170.922 96.4L170.492 95.4971L170.483 95.5013L170.475 95.5056L170.922 96.4ZM163.922 103.4L164.77 103.93L164.775 103.922L164.779 103.914L163.922 103.4ZM159.122 116.4L160.099 116.614L159.122 116.4ZM159.122 157.8L158.144 158.01L158.145 158.014L159.122 157.8ZM163.922 171.2L163.056 171.7L163.06 171.707L163.064 171.714L163.922 171.2ZM170.922 178.4L170.44 179.276L170.449 179.281L170.458 179.286L170.922 178.4ZM169.122 147.8L168.415 148.507L168.432 148.524L168.449 148.54L169.122 147.8ZM169.122 125.6L169.812 126.324L169.812 126.323L169.122 125.6ZM190.522 125.6L189.815 126.307L189.832 126.324L189.849 126.34L190.522 125.6ZM190.522 147.8L191.212 148.524L191.212 148.523L190.522 147.8ZM179.922 202.4C172.719 202.4 166.199 201.026 160.345 198.294L159.499 200.106C165.645 202.974 172.458 204.4 179.922 204.4V202.4ZM160.361 198.302C154.509 195.44 149.495 191.277 145.317 185.794L143.726 187.006C148.082 192.723 153.335 197.093 159.483 200.098L160.361 198.302ZM145.317 185.794C141.14 180.311 137.855 173.495 135.482 165.321L133.562 165.879C135.988 174.238 139.371 181.289 143.726 187.006L145.317 185.794ZM135.486 165.336C133.248 157.174 132.122 147.733 132.122 137H130.122C130.122 147.867 131.262 157.493 133.557 165.864L135.486 165.336ZM132.122 137C132.122 126.267 133.249 116.894 135.485 108.868L133.559 108.332C131.262 116.573 130.122 126.133 130.122 137H132.122ZM135.481 108.883C137.853 100.844 141.136 94.1635 145.31 88.8153L143.734 87.5847C139.374 93.1698 135.991 100.089 133.563 108.317L135.481 108.883ZM145.317 88.806C149.49 83.3298 154.493 79.3073 160.328 76.7138L159.516 74.8862C153.351 77.626 148.087 81.8702 143.726 87.594L145.317 88.806ZM160.345 76.7062C166.199 73.9743 172.719 72.6 179.922 72.6V70.6C172.458 70.6 165.645 72.0256 159.499 74.8938L160.345 76.7062ZM179.922 72.6C187.125 72.6 193.645 73.9743 199.499 76.7062L200.345 74.8938C194.199 72.0256 187.385 70.6 179.922 70.6V72.6ZM199.516 76.7138C205.351 79.3073 210.354 83.3298 214.526 88.806L216.117 87.594C211.756 81.8702 206.493 77.626 200.328 74.8862L199.516 76.7138ZM214.534 88.8153C218.704 94.1591 221.92 100.834 224.159 108.868L226.085 108.332C223.791 100.099 220.473 93.1742 216.11 87.5847L214.534 88.8153ZM224.163 108.883C226.529 116.903 227.722 126.271 227.722 137H229.722C229.722 126.129 228.514 116.563 226.081 108.317L224.163 108.883ZM227.722 137C227.722 147.729 226.53 157.165 224.162 165.321L226.082 165.879C228.514 157.502 229.722 147.871 229.722 137H227.722ZM224.157 165.336C221.918 173.505 218.701 180.316 214.526 185.794L216.117 187.006C220.477 181.285 223.793 174.229 226.086 165.864L224.157 165.336ZM214.526 185.794C210.349 191.277 205.335 195.44 199.483 198.302L200.361 200.098C206.509 197.093 211.762 192.723 216.117 187.006L214.526 185.794ZM199.499 198.294C193.645 201.026 187.125 202.4 179.922 202.4V204.4C187.385 204.4 194.199 202.974 200.345 200.106L199.499 198.294ZM179.922 181.6C183.281 181.6 186.382 180.828 189.204 179.276L188.24 177.524C185.729 178.905 182.962 179.6 179.922 179.6V181.6ZM189.186 179.286C192.182 177.716 194.707 175.169 196.779 171.714L195.064 170.686C193.137 173.897 190.861 176.15 188.258 177.514L189.186 179.286ZM196.788 171.7C198.855 168.117 200.485 163.545 201.699 158.014L199.745 157.586C198.559 162.989 196.989 167.35 195.056 170.7L196.788 171.7ZM201.7 158.01C202.919 152.318 203.522 145.309 203.522 137H201.522C201.522 145.224 200.924 152.082 199.744 157.59L201.7 158.01ZM203.522 137C203.522 128.692 202.92 121.747 201.699 116.186L199.745 116.614C200.924 121.986 201.522 128.775 201.522 137H203.522ZM201.699 116.186C200.485 110.656 198.852 106.202 196.77 102.87L195.074 103.93C196.991 106.998 198.559 111.211 199.745 116.614L201.699 116.186ZM196.779 102.885C194.704 99.4262 192.17 96.9342 189.152 95.4971L188.292 97.3029C190.874 98.5324 193.14 100.707 195.064 103.914L196.779 102.885ZM189.169 95.5056C186.354 94.0978 183.265 93.4 179.922 93.4V95.4C182.978 95.4 185.757 96.0355 188.275 97.2944L189.169 95.5056ZM179.922 93.4C176.578 93.4 173.431 94.0978 170.492 95.4971L171.352 97.3029C174.013 96.0355 176.866 95.4 179.922 95.4V93.4ZM170.475 95.5056C167.593 96.9462 165.133 99.4378 163.064 102.885L164.779 103.914C166.711 100.696 168.917 98.5204 171.369 97.2944L170.475 95.5056ZM163.074 102.87C160.991 106.202 159.359 110.656 158.145 116.186L160.099 116.614C161.285 111.211 162.852 106.998 164.77 103.93L163.074 102.87ZM158.145 116.186C156.924 121.747 156.322 128.692 156.322 137H158.322C158.322 128.775 158.92 121.986 160.099 116.614L158.145 116.186ZM156.322 137C156.322 145.309 156.924 152.318 158.144 158.01L160.1 157.59C158.919 152.082 158.322 145.224 158.322 137H156.322ZM158.145 158.014C159.359 163.545 160.989 168.117 163.056 171.7L164.788 170.7C162.855 167.35 161.285 162.989 160.099 157.586L158.145 158.014ZM163.064 171.714C165.131 175.158 167.581 177.704 170.44 179.276L171.404 177.524C168.929 176.163 166.713 173.908 164.779 170.686L163.064 171.714ZM170.458 179.286C173.403 180.828 176.562 181.6 179.922 181.6V179.6C176.881 179.6 174.041 178.905 171.386 177.514L170.458 179.286ZM179.922 150.8C175.883 150.8 172.529 149.546 169.795 147.06L168.449 148.54C171.581 151.387 175.427 152.8 179.922 152.8V150.8ZM169.829 147.093C167.25 144.514 165.922 141.052 165.922 136.6H163.922C163.922 141.481 165.394 145.486 168.415 148.507L169.829 147.093ZM165.922 136.6C165.922 132.146 167.25 128.764 169.812 126.324L168.432 124.876C165.394 127.77 163.922 131.721 163.922 136.6H165.922ZM169.812 126.323C172.549 123.711 175.898 122.4 179.922 122.4V120.4C175.413 120.4 171.561 121.889 168.431 124.877L169.812 126.323ZM179.922 122.4C183.946 122.4 187.218 123.71 189.815 126.307L191.229 124.893C188.226 121.89 184.431 120.4 179.922 120.4V122.4ZM189.849 126.34C192.537 128.783 193.922 132.16 193.922 136.6H195.922C195.922 131.706 194.374 127.75 191.195 124.86L189.849 126.34ZM193.922 136.6C193.922 141.038 192.537 144.494 189.831 147.077L191.212 148.523C194.374 145.506 195.922 141.495 195.922 136.6H193.922ZM189.832 147.076C187.238 149.546 183.961 150.8 179.922 150.8V152.8C184.416 152.8 188.206 151.387 191.212 148.524L189.832 147.076ZM279.844 199.2L279.405 200.098L279.413 200.102L279.421 200.106L279.844 199.2ZM264.444 186.4L265.239 185.794L264.444 186.4ZM254.444 165.6L253.479 165.864L253.481 165.872L253.483 165.879L254.444 165.6ZM254.444 108.6L253.485 108.317L253.482 108.324L253.48 108.332L254.444 108.6ZM264.444 88.2L265.232 88.8153L265.239 88.806L264.444 88.2ZM279.844 75.8L280.25 76.7138L280.258 76.7101L280.267 76.7062L279.844 75.8ZM319.844 75.8L319.421 76.7062L319.429 76.7101L319.438 76.7138L319.844 75.8ZM335.244 88.2L334.448 88.8061L334.455 88.8153L335.244 88.2ZM345.044 108.6L344.08 108.868L344.082 108.876L344.085 108.883L345.044 108.6ZM345.044 165.6L344.083 165.321L344.081 165.328L344.079 165.336L345.044 165.6ZM335.244 186.4L336.039 187.006L335.244 186.4ZM319.844 199.2L320.267 200.106L320.275 200.102L320.283 200.098L319.844 199.2ZM308.644 178.4L308.18 177.514L308.171 177.519L308.162 177.524L308.644 178.4ZM315.844 171.2L316.701 171.714L316.706 171.707L316.71 171.7L315.844 171.2ZM320.644 157.8L321.621 158.014L321.622 158.01L320.644 157.8ZM320.644 116.4L319.667 116.614L320.644 116.4ZM315.844 103.4L314.986 103.914L314.991 103.922L314.996 103.93L315.844 103.4ZM308.644 96.4L308.197 97.2944L308.205 97.2987L308.214 97.3029L308.644 96.4ZM290.844 96.4L290.414 95.4971L290.405 95.5013L290.397 95.5056L290.844 96.4ZM283.844 103.4L284.692 103.93L284.697 103.922L284.701 103.914L283.844 103.4ZM279.044 116.4L280.021 116.614L279.044 116.4ZM279.044 157.8L278.066 158.01L278.067 158.014L279.044 157.8ZM283.844 171.2L282.978 171.7L282.982 171.707L282.986 171.714L283.844 171.2ZM290.844 178.4L290.362 179.276L290.371 179.281L290.38 179.286L290.844 178.4ZM289.044 147.8L288.337 148.507L288.353 148.524L288.371 148.54L289.044 147.8ZM289.044 125.6L289.733 126.324L289.734 126.323L289.044 125.6ZM310.444 125.6L309.737 126.307L309.753 126.324L309.771 126.34L310.444 125.6ZM310.444 147.8L311.133 148.524L311.134 148.523L310.444 147.8ZM299.844 202.4C292.641 202.4 286.121 201.026 280.267 198.294L279.421 200.106C285.567 202.974 292.38 204.4 299.844 204.4V202.4ZM280.283 198.302C274.43 195.44 269.417 191.277 265.239 185.794L263.648 187.006C268.004 192.723 273.257 197.093 279.405 200.098L280.283 198.302ZM265.239 185.794C261.062 180.311 257.777 173.495 255.404 165.321L253.483 165.879C255.91 174.238 259.292 181.289 263.648 187.006L265.239 185.794ZM255.408 165.336C253.17 157.174 252.044 147.733 252.044 137H250.044C250.044 147.867 251.184 157.493 253.479 165.864L255.408 165.336ZM252.044 137C252.044 126.267 253.17 116.894 255.407 108.868L253.48 108.332C251.184 116.573 250.044 126.133 250.044 137H252.044ZM255.403 108.883C257.775 100.844 261.058 94.1635 265.232 88.8153L263.655 87.5847C259.296 93.1698 255.913 100.089 253.485 108.317L255.403 108.883ZM265.239 88.806C269.412 83.3298 274.414 79.3073 280.25 76.7138L279.438 74.8862C273.273 77.626 268.009 81.8702 263.648 87.594L265.239 88.806ZM280.267 76.7062C286.121 73.9743 292.641 72.6 299.844 72.6V70.6C292.38 70.6 285.567 72.0256 279.421 74.8938L280.267 76.7062ZM299.844 72.6C307.047 72.6 313.567 73.9743 319.421 76.7062L320.267 74.8938C314.121 72.0256 307.307 70.6 299.844 70.6V72.6ZM319.438 76.7138C325.273 79.3073 330.276 83.3298 334.448 88.806L336.039 87.594C331.678 81.8702 326.414 77.626 320.25 74.8862L319.438 76.7138ZM334.455 88.8153C338.626 94.1591 341.841 100.834 344.08 108.868L346.007 108.332C343.713 100.099 340.395 93.1742 336.032 87.5847L334.455 88.8153ZM344.085 108.883C346.451 116.903 347.644 126.271 347.644 137H349.644C349.644 126.129 348.436 116.563 346.003 108.317L344.085 108.883ZM347.644 137C347.644 147.729 346.451 157.165 344.083 165.321L346.004 165.879C348.436 157.502 349.644 147.871 349.644 137H347.644ZM344.079 165.336C341.839 173.505 338.622 180.316 334.448 185.794L336.039 187.006C340.398 181.285 343.715 174.229 346.008 165.864L344.079 165.336ZM334.448 185.794C330.271 191.277 325.257 195.44 319.405 198.302L320.283 200.098C326.43 197.093 331.683 192.723 336.039 187.006L334.448 185.794ZM319.421 198.294C313.567 201.026 307.047 202.4 299.844 202.4V204.4C307.307 204.4 314.121 202.974 320.267 200.106L319.421 198.294ZM299.844 181.6C303.203 181.6 306.304 180.828 309.126 179.276L308.162 177.524C305.65 178.905 302.884 179.6 299.844 179.6V181.6ZM309.108 179.286C312.104 177.716 314.628 175.169 316.701 171.714L314.986 170.686C313.059 173.897 310.783 176.15 308.18 177.514L309.108 179.286ZM316.71 171.7C318.777 168.117 320.407 163.545 321.62 158.014L319.667 157.586C318.481 162.989 316.91 167.35 314.978 170.7L316.71 171.7ZM321.622 158.01C322.841 152.318 323.444 145.309 323.444 137H321.444C321.444 145.224 320.846 152.082 319.666 157.59L321.622 158.01ZM323.444 137C323.444 128.692 322.841 121.747 321.62 116.186L319.667 116.614C320.846 121.986 321.444 128.775 321.444 137H323.444ZM321.62 116.186C320.407 110.656 318.774 106.202 316.692 102.87L314.996 103.93C316.913 106.998 318.481 111.211 319.667 116.614L321.62 116.186ZM316.701 102.885C314.626 99.4262 312.092 96.9342 309.074 95.4971L308.214 97.3029C310.796 98.5324 313.062 100.707 314.986 103.914L316.701 102.885ZM309.091 95.5056C306.275 94.0978 303.187 93.4 299.844 93.4V95.4C302.9 95.4 305.679 96.0355 308.197 97.2944L309.091 95.5056ZM299.844 93.4C296.5 93.4 293.352 94.0978 290.414 95.4971L291.274 97.3029C293.935 96.0355 296.788 95.4 299.844 95.4V93.4ZM290.397 95.5056C287.515 96.9462 285.055 99.4378 282.986 102.885L284.701 103.914C286.633 100.696 288.839 98.5204 291.291 97.2944L290.397 95.5056ZM282.996 102.87C280.913 106.202 279.281 110.656 278.067 116.186L280.021 116.614C281.207 111.211 282.774 106.998 284.692 103.93L282.996 102.87ZM278.067 116.186C276.846 121.747 276.244 128.692 276.244 137H278.244C278.244 128.775 278.841 121.986 280.021 116.614L278.067 116.186ZM276.244 137C276.244 145.309 276.846 152.318 278.066 158.01L280.022 157.59C278.841 152.082 278.244 145.224 278.244 137H276.244ZM278.067 158.014C279.281 163.545 280.91 168.117 282.978 171.7L284.71 170.7C282.777 167.35 281.207 162.989 280.021 157.586L278.067 158.014ZM282.986 171.714C285.052 175.158 287.503 177.704 290.362 179.276L291.326 177.524C288.851 176.163 286.635 173.908 284.701 170.686L282.986 171.714ZM290.38 179.286C293.325 180.828 296.484 181.6 299.844 181.6V179.6C296.803 179.6 293.963 178.905 291.308 177.514L290.38 179.286ZM299.844 150.8C295.805 150.8 292.451 149.546 289.716 147.06L288.371 148.54C291.503 151.387 295.349 152.8 299.844 152.8V150.8ZM289.751 147.093C287.172 144.514 285.844 141.052 285.844 136.6H283.844C283.844 141.481 285.316 145.486 288.337 148.507L289.751 147.093ZM285.844 136.6C285.844 132.146 287.172 128.764 289.733 126.324L288.354 124.876C285.316 127.77 283.844 131.721 283.844 136.6H285.844ZM289.734 126.323C292.471 123.711 295.819 122.4 299.844 122.4V120.4C295.335 120.4 291.483 121.889 288.353 124.877L289.734 126.323ZM299.844 122.4C303.868 122.4 307.14 123.71 309.737 126.307L311.151 124.893C308.148 121.89 304.353 120.4 299.844 120.4V122.4ZM309.771 126.34C312.459 128.783 313.844 132.16 313.844 136.6H315.844C315.844 131.706 314.295 127.75 311.116 124.86L309.771 126.34ZM313.844 136.6C313.844 141.038 312.459 144.494 309.753 147.077L311.134 148.523C314.296 145.506 315.844 141.495 315.844 136.6H313.844ZM309.754 147.076C307.16 149.546 303.883 150.8 299.844 150.8V152.8C304.338 152.8 308.128 151.387 311.133 148.524L309.754 147.076ZM382.766 136.2L382.359 137.114L382.766 136.2ZM373.366 129.4L372.626 130.073L373.366 129.4ZM367.166 118.8L366.223 119.134L367.166 118.8ZM367.166 90.8L368.108 91.1344L367.166 90.8ZM373.366 80.4L374.09 81.0896L374.098 81.0812L374.106 81.0727L373.366 80.4ZM382.766 73.8L383.143 74.7261L383.157 74.7202L383.172 74.7138L382.766 73.8ZM406.366 73.8L405.96 74.7138L405.974 74.7202L405.988 74.7261L406.366 73.8ZM415.766 80.4L415.026 81.0727L415.033 81.0812L415.041 81.0896L415.766 80.4ZM421.966 90.8L421.023 91.1344L421.966 90.8ZM421.966 118.8L422.908 119.134L421.966 118.8ZM415.766 129.4L415.026 128.727L415.766 129.4ZM406.366 136.2L406.772 137.114L406.366 136.2ZM401.166 119L400.366 118.4L400.361 118.407L401.166 119ZM401.166 91L400.361 91.5932L400.378 91.6172L400.397 91.6402L401.166 91ZM387.766 91L386.981 90.3803L386.976 90.3861L387.766 91ZM387.766 119L386.946 119.573L386.963 119.597L386.981 119.62L387.766 119ZM378.366 195.4L377.668 196.117L378.451 196.879L379.141 196.031L378.366 195.4ZM363.366 180.8L362.685 180.068L361.915 180.784L362.668 181.517L363.366 180.8ZM400.566 146.2L401.243 145.465L400.562 144.837L399.885 145.468L400.566 146.2ZM410.766 155.6L411.541 156.231L412.135 155.502L411.443 154.865L410.766 155.6ZM439.366 125.6L438.68 126.328L439.364 126.971L440.049 126.33L439.366 125.6ZM429.166 116L428.39 115.369L427.803 116.09L428.48 116.728L429.166 116ZM461.566 76.2L462.263 75.4834L461.48 74.7212L460.79 75.5687L461.566 76.2ZM476.566 90.8L477.249 91.5303L478.014 90.8143L477.263 90.0834L476.566 90.8ZM433.366 201L433.772 200.086L433.366 201ZM423.966 194.2L423.226 194.873L423.966 194.2ZM417.766 183.6L416.823 183.934L417.766 183.6ZM423.966 145.2L424.69 145.89L424.698 145.881L424.706 145.873L423.966 145.2ZM433.366 138.6L433.743 139.526L433.757 139.52L433.772 139.514L433.366 138.6ZM456.966 138.6L456.559 139.514L456.574 139.52L456.588 139.526L456.966 138.6ZM466.366 145.2L465.626 145.873L465.633 145.881L465.642 145.89L466.366 145.2ZM472.566 155.6L471.623 155.934L472.566 155.6ZM472.566 183.6L471.623 183.266L472.566 183.6ZM466.366 194.2L467.106 194.873L467.106 194.873L466.366 194.2ZM456.966 201L457.372 201.914L456.966 201ZM451.766 183.8L450.966 183.2L450.961 183.207L451.766 183.8ZM451.766 155.8L450.961 156.393L450.978 156.417L450.997 156.44L451.766 155.8ZM438.366 155.8L437.581 155.18L437.576 155.186L438.366 155.8ZM438.366 183.8L437.546 184.373L437.563 184.397L437.581 184.42L438.366 183.8ZM394.566 137.6C390.427 137.6 386.634 136.825 383.172 135.286L382.359 137.114C386.098 138.775 390.171 139.6 394.566 139.6V137.6ZM383.172 135.286C379.699 133.743 376.68 131.559 374.106 128.727L372.626 130.073C375.385 133.108 378.632 135.457 382.359 137.114L383.172 135.286ZM374.106 128.727C371.537 125.902 369.535 122.487 368.108 118.466L366.223 119.134C367.73 123.379 369.861 127.031 372.626 130.073L374.106 128.727ZM368.108 118.466C366.686 114.457 365.966 109.907 365.966 104.8H363.966C363.966 110.093 364.712 114.876 366.223 119.134L368.108 118.466ZM365.966 104.8C365.966 99.6933 366.686 95.1425 368.108 91.1344L366.223 90.4656C364.712 94.7241 363.966 99.5067 363.966 104.8H365.966ZM368.108 91.1344C369.534 87.1157 371.532 83.7751 374.09 81.0896L372.641 79.7103C369.866 82.6249 367.731 86.2176 366.223 90.4656L368.108 91.1344ZM374.106 81.0727C376.674 78.2476 379.684 76.1353 383.143 74.7261L382.388 72.8739C378.647 74.3981 375.391 76.6858 372.626 79.7273L374.106 81.0727ZM383.172 74.7138C386.634 73.1752 390.427 72.4 394.566 72.4V70.4C390.171 70.4 386.098 71.2248 382.359 72.8862L383.172 74.7138ZM394.566 72.4C398.704 72.4 402.498 73.1752 405.96 74.7138L406.772 72.8862C403.034 71.2248 398.96 70.4 394.566 70.4V72.4ZM405.988 74.7261C409.447 76.1353 412.457 78.2476 415.026 81.0727L416.506 79.7273C413.741 76.6858 410.484 74.398 406.743 72.8739L405.988 74.7261ZM415.041 81.0896C417.599 83.7751 419.597 87.1157 421.023 91.1344L422.908 90.4656C421.401 86.2176 419.266 82.6249 416.49 79.7103L415.041 81.0896ZM421.023 91.1344C422.445 95.1425 423.166 99.6933 423.166 104.8H425.166C425.166 99.5067 424.419 94.7241 422.908 90.4656L421.023 91.1344ZM423.166 104.8C423.166 109.907 422.445 114.457 421.023 118.466L422.908 119.134C424.419 114.876 425.166 110.093 425.166 104.8H423.166ZM421.023 118.466C419.596 122.487 417.594 125.902 415.026 128.727L416.506 130.073C419.271 127.031 421.402 123.379 422.908 119.134L421.023 118.466ZM415.026 128.727C412.452 131.559 409.432 133.743 405.96 135.286L406.772 137.114C410.499 135.457 413.746 133.108 416.506 130.073L415.026 128.727ZM405.96 135.286C402.498 136.825 398.704 137.6 394.566 137.6V139.6C398.96 139.6 403.034 138.775 406.772 137.114L405.96 135.286ZM394.566 123.8C397.494 123.8 399.966 122.313 401.971 119.593L400.361 118.407C398.632 120.753 396.704 121.8 394.566 121.8V123.8ZM401.966 119.6C404.175 116.655 405.166 111.63 405.166 104.8H403.166C403.166 111.57 402.157 116.012 400.366 118.4L401.966 119.6ZM405.166 104.8C405.166 101.357 404.913 98.4306 404.393 96.0376C403.874 93.6533 403.076 91.7304 401.934 90.3598L400.397 91.6402C401.255 92.6696 401.957 94.2467 402.438 96.4624C402.918 98.6694 403.166 101.443 403.166 104.8H405.166ZM401.971 90.4068C399.966 87.6867 397.494 86.2 394.566 86.2V88.2C396.704 88.2 398.632 89.2466 400.361 91.5932L401.971 90.4068ZM394.566 86.2C391.645 86.2 389.114 87.6787 386.981 90.3804L388.551 91.6196C390.418 89.2546 392.42 88.2 394.566 88.2V86.2ZM386.976 90.3861C385.911 91.7562 385.168 93.6743 384.686 96.0511C384.201 98.4386 383.966 101.36 383.966 104.8H385.966C385.966 101.44 386.197 98.6614 386.646 96.4488C387.097 94.2257 387.754 92.6438 388.555 91.6139L386.976 90.3861ZM383.966 104.8C383.966 111.624 384.889 116.634 386.946 119.573L388.585 118.427C386.909 116.032 385.966 111.576 385.966 104.8H383.966ZM386.981 119.62C389.114 122.321 391.645 123.8 394.566 123.8V121.8C392.42 121.8 390.418 120.745 388.551 118.38L386.981 119.62ZM379.063 194.683L364.063 180.083L362.668 181.517L377.668 196.117L379.063 194.683ZM364.047 181.532L401.247 146.932L399.885 145.468L362.685 180.068L364.047 181.532ZM399.888 146.935L410.088 156.335L411.443 154.865L401.243 145.465L399.888 146.935ZM409.99 154.969L377.59 194.769L379.141 196.031L411.541 156.231L409.99 154.969ZM440.051 124.872L429.851 115.272L428.48 116.728L438.68 126.328L440.051 124.872ZM429.941 116.631L462.341 76.8313L460.79 75.5687L428.39 115.369L429.941 116.631ZM460.868 76.9166L475.868 91.5166L477.263 90.0834L462.263 75.4834L460.868 76.9166ZM475.882 90.0697L438.682 124.87L440.049 126.33L477.249 91.5303L475.882 90.0697ZM445.166 202.4C441.027 202.4 437.234 201.625 433.772 200.086L432.96 201.914C436.698 203.575 440.771 204.4 445.166 204.4V202.4ZM433.772 200.086C430.299 198.543 427.28 196.359 424.706 193.527L423.226 194.873C425.985 197.908 429.232 200.257 432.96 201.914L433.772 200.086ZM424.706 193.527C422.137 190.702 420.135 187.287 418.708 183.266L416.823 183.934C418.33 188.179 420.461 191.831 423.226 194.873L424.706 193.527ZM418.708 183.266C417.286 179.257 416.566 174.707 416.566 169.6H414.566C414.566 174.893 415.312 179.676 416.823 183.934L418.708 183.266ZM416.566 169.6C416.566 164.493 417.286 159.943 418.708 155.934L416.823 155.266C415.312 159.524 414.566 164.307 414.566 169.6H416.566ZM418.708 155.934C420.134 151.916 422.132 148.575 424.69 145.89L423.241 144.51C420.466 147.425 418.331 151.018 416.823 155.266L418.708 155.934ZM424.706 145.873C427.274 143.048 430.284 140.935 433.743 139.526L432.988 137.674C429.247 139.198 425.991 141.486 423.226 144.527L424.706 145.873ZM433.772 139.514C437.234 137.975 441.027 137.2 445.166 137.2V135.2C440.771 135.2 436.698 136.025 432.96 137.686L433.772 139.514ZM445.166 137.2C449.304 137.2 453.098 137.975 456.559 139.514L457.372 137.686C453.634 136.025 449.56 135.2 445.166 135.2V137.2ZM456.588 139.526C460.047 140.935 463.057 143.048 465.626 145.873L467.106 144.527C464.341 141.486 461.084 139.198 457.343 137.674L456.588 139.526ZM465.642 145.89C468.199 148.575 470.197 151.916 471.623 155.934L473.508 155.266C472.001 151.018 469.866 147.425 467.09 144.51L465.642 145.89ZM471.623 155.934C473.045 159.943 473.766 164.493 473.766 169.6H475.766C475.766 164.307 475.019 159.524 473.508 155.266L471.623 155.934ZM473.766 169.6C473.766 174.707 473.045 179.257 471.623 183.266L473.508 183.934C475.019 179.676 475.766 174.893 475.766 169.6H473.766ZM471.623 183.266C470.196 187.287 468.194 190.702 465.626 193.527L467.106 194.873C469.871 191.831 472.002 188.179 473.508 183.934L471.623 183.266ZM465.626 193.527C463.052 196.359 460.032 198.543 456.559 200.086L457.372 201.914C461.099 200.257 464.346 197.908 467.106 194.873L465.626 193.527ZM456.559 200.086C453.098 201.625 449.304 202.4 445.166 202.4V204.4C449.56 204.4 453.634 203.575 457.372 201.914L456.559 200.086ZM445.166 188.6C448.094 188.6 450.566 187.113 452.571 184.393L450.961 183.207C449.232 185.553 447.304 186.6 445.166 186.6V188.6ZM452.566 184.4C454.775 181.455 455.766 176.43 455.766 169.6H453.766C453.766 176.37 452.757 180.812 450.966 183.2L452.566 184.4ZM455.766 169.6C455.766 166.157 455.513 163.231 454.993 160.838C454.474 158.453 453.676 156.53 452.534 155.16L450.997 156.44C451.855 157.47 452.557 159.047 453.038 161.262C453.518 163.469 453.766 166.243 453.766 169.6H455.766ZM452.571 155.207C450.566 152.487 448.094 151 445.166 151V153C447.304 153 449.232 154.047 450.961 156.393L452.571 155.207ZM445.166 151C442.245 151 439.714 152.479 437.581 155.18L439.151 156.42C441.018 154.055 443.02 153 445.166 153V151ZM437.576 155.186C436.511 156.556 435.768 158.474 435.286 160.851C434.801 163.239 434.566 166.16 434.566 169.6H436.566C436.566 166.24 436.797 163.461 437.246 161.249C437.697 159.026 438.354 157.444 439.155 156.414L437.576 155.186ZM434.566 169.6C434.566 176.424 435.489 181.434 437.546 184.373L439.185 183.227C437.509 180.832 436.566 176.376 436.566 169.6H434.566ZM437.581 184.42C439.714 187.121 442.245 188.6 445.166 188.6V186.6C443.02 186.6 441.018 185.545 439.151 183.18L437.581 184.42Z" fill="#405BB8"/>
<path d="M410.5 137L401 145.053L411.45 155L420 145.526L410.5 137Z" fill="#405BB8" stroke="#405BB8"/>
<path d="M471.5 66.5L461.5 75.5L477 91L486.5 81L471.5 66.5Z" fill="#405BB8" stroke="#405BB8"/>
</svg>
