<svg width="250" height="250" viewBox="0 0 250 250" fill="none" xmlns="http://www.w3.org/2000/svg">
<path d="M33 75.5L22 84.5L33.5 88L45.5 76.5L33 75.5Z" fill="#405BB8"/>
<path d="M117.4 167.2V191H26.4V167.2H59.2V93.8H33V75.6C40.4667 74.2667 46.8 72.6667 52 70.8C57.3333 68.9333 62.3333 66.6667 67 64H88.6V167.2H117.4ZM168.522 191C169.055 180.467 170.055 170.8 171.522 162C173.122 153.067 175.322 144.6 178.122 136.6C181.055 128.467 184.789 120.6 189.322 113C193.855 105.267 199.455 97.2 206.122 88.8H142.322V64H237.722V82C229.722 90.9333 223.255 99.3333 218.322 107.2C213.389 114.933 209.522 123 206.722 131.4C203.922 139.667 201.922 148.6 200.722 158.2C199.522 167.667 198.655 178.6 198.122 191H168.522Z" fill="#405BB8"/>
<path d="M26.5 167.5L16.2052 176.324C16.1348 176.384 16.1775 176.5 16.2703 176.5H108V201.23C108 201.323 108.116 201.365 108.176 201.295L117 191V167.5H26.5Z" fill="#405BB8" stroke="#405BB8"/>
<path d="M107.4 177.2V201H16.4V177.2H49.2V103.8H23V85.6C30.4667 84.2667 36.8 82.6667 42 80.8C47.3333 78.9333 52.3333 76.6667 57 74H78.6V177.2H107.4ZM158.522 201C159.055 190.467 160.055 180.8 161.522 172C163.122 163.067 165.322 154.6 168.122 146.6C171.055 138.467 174.789 130.6 179.322 123C183.855 115.267 189.455 107.2 196.122 98.8H132.322V74H227.722V92C219.722 100.933 213.255 109.333 208.322 117.2C203.389 124.933 199.522 133 196.722 141.4C193.922 149.667 191.922 158.6 190.722 168.2C189.522 177.667 188.655 188.6 188.122 201H158.522Z" fill="white"/>
<path d="M107.4 177.2H108.4V176.2H107.4V177.2ZM107.4 201V202H108.4V201H107.4ZM16.4 201H15.4V202H16.4V201ZM16.4 177.2V176.2H15.4V177.2H16.4ZM49.2 177.2V178.2H50.2V177.2H49.2ZM49.2 103.8H50.2V102.8H49.2V103.8ZM23 103.8H22V104.8H23V103.8ZM23 85.6L22.8242 84.6156L22 84.7627V85.6H23ZM42 80.8L41.6696 79.8561L41.6621 79.8588L42 80.8ZM57 74V73H56.7344L56.5039 73.1317L57 74ZM78.6 74H79.6V73H78.6V74ZM78.6 177.2H77.6V178.2H78.6V177.2ZM106.4 177.2V201H108.4V177.2H106.4ZM107.4 200H16.4V202H107.4V200ZM17.4 201V177.2H15.4V201H17.4ZM16.4 178.2H49.2V176.2H16.4V178.2ZM50.2 177.2V103.8H48.2V177.2H50.2ZM49.2 102.8H23V104.8H49.2V102.8ZM24 103.8V85.6H22V103.8H24ZM23.1758 86.5844C30.6788 85.2446 37.0698 83.6323 42.3379 81.7412L41.6621 79.8588C36.5302 81.701 30.2545 83.2887 22.8242 84.6156L23.1758 86.5844ZM42.3304 81.7439C47.7182 79.8581 52.774 77.5666 57.4961 74.8682L56.5039 73.1317C51.8927 75.7667 46.9485 78.0086 41.6697 79.8561L42.3304 81.7439ZM57 75H78.6V73H57V75ZM77.6 74V177.2H79.6V74H77.6ZM78.6 178.2H107.4V176.2H78.6V178.2ZM158.522 201L157.523 200.949L157.47 202H158.522V201ZM161.522 172L160.537 171.824L160.535 171.836L161.522 172ZM168.122 146.6L167.181 146.261L167.178 146.27L168.122 146.6ZM179.322 123L180.181 123.512L180.185 123.506L179.322 123ZM196.122 98.8L196.905 99.4217L198.192 97.8H196.122V98.8ZM132.322 98.8H131.322V99.8H132.322V98.8ZM132.322 74V73H131.322V74H132.322ZM227.722 74H228.722V73H227.722V74ZM227.722 92L228.467 92.6671L228.722 92.3823V92H227.722ZM208.322 117.2L209.165 117.738L209.169 117.731L208.322 117.2ZM196.722 141.4L197.669 141.721L197.671 141.716L196.722 141.4ZM190.722 168.2L191.714 168.326L191.714 168.324L190.722 168.2ZM188.122 201V202H189.08L189.121 201.043L188.122 201ZM159.521 201.051C160.052 190.549 161.049 180.921 162.508 172.164L160.535 171.836C159.062 180.679 158.058 190.385 157.523 200.949L159.521 201.051ZM162.506 172.176C164.097 163.292 166.284 154.877 169.066 146.93L167.178 146.27C164.359 154.323 162.146 162.842 160.538 171.824L162.506 172.176ZM169.063 146.939C171.974 138.867 175.679 131.059 180.181 123.512L178.463 122.488C173.898 130.141 170.137 138.066 167.181 146.261L169.063 146.939ZM180.185 123.506C184.69 115.82 190.262 107.792 196.905 99.4217L195.339 98.1783C188.648 106.608 183.02 114.714 178.459 122.494L180.185 123.506ZM196.122 97.8H132.322V99.8H196.122V97.8ZM133.322 98.8V74H131.322V98.8H133.322ZM132.322 75H227.722V73H132.322V75ZM226.722 74V92H228.722V74H226.722ZM226.977 91.3329C218.949 100.297 212.445 108.742 207.475 116.669L209.169 117.731C214.065 109.924 220.494 101.57 228.467 92.6671L226.977 91.3329ZM207.479 116.662C202.503 124.462 198.6 132.603 195.773 141.084L197.671 141.716C200.444 133.397 204.274 125.404 209.165 117.738L207.479 116.662ZM195.775 141.079C192.951 149.416 190.937 158.416 189.73 168.076L191.714 168.324C192.907 158.784 194.893 149.917 197.669 141.721L195.775 141.079ZM189.73 168.074C188.525 177.575 187.657 188.537 187.123 200.957L189.121 201.043C189.653 188.663 190.518 177.758 191.714 168.326L189.73 168.074ZM188.122 200H158.522V202H188.122V200Z" fill="#405BB8"/>

<path d="M198 190.5L189.193 201.264C189.132 201.339 189.011 201.292 189.016 201.196L190 182L198 183V190.5Z" fill="#405BB8" stroke="#405BB8"/>
<path d="M142 64L131.5 73H149.5L160 64H142Z" fill="#405BB8"/>
</svg>
