<svg width="370" height="250" viewBox="0 0 370 250" fill="none" xmlns="http://www.w3.org/2000/svg">
<path d="M32.4 157C36.6667 160.467 41.2 163.467 46 166C50.9333 168.4 56.4 169.6 62.4 169.6C69.6 169.6 75.4667 167.933 80 164.6C84.6667 161.267 87 156.333 87 149.8C87 143.4 84.8 138.533 80.4 135.2C76.1333 131.867 70.6 130.2 63.8 130.2C61.6667 130.2 59.7333 130.333 58 130.6C56.4 130.733 54.8 131.067 53.2 131.6C51.6 132.133 49.9333 132.8 48.2 133.6C46.4667 134.4 44.5333 135.4 42.4 136.6L29.4 128.2L32.8 64H110.6V88.8H58.2L56 112.6C58.9333 111.533 61.6667 110.8 64.2 110.4C66.7333 109.867 69.6 109.6 72.8 109.6C78.6667 109.6 84.2 110.4 89.4 112C94.7333 113.6 99.4 116 103.4 119.2C107.4 122.4 110.533 126.467 112.8 131.4C115.2 136.333 116.4 142.2 116.4 149C116.4 156.067 115 162.333 112.2 167.8C109.533 173.267 105.867 177.933 101.2 181.8C96.6667 185.533 91.4 188.4 85.4 190.4C79.4 192.4 73.1333 193.4 66.6 193.4C55.5333 193.4 46.1333 191.733 38.4 188.4C30.8 184.933 24.4 180.667 19.2 175.6L32.4 157ZM189.922 193.4C182.589 193.4 175.922 192 169.922 189.2C163.922 186.267 158.789 182 154.522 176.4C150.255 170.8 146.922 163.867 144.522 155.6C142.255 147.333 141.122 137.8 141.122 127C141.122 116.2 142.255 106.733 144.522 98.6C146.922 90.4667 150.255 83.6667 154.522 78.2C158.789 72.6 163.922 68.4667 169.922 65.8C175.922 63 182.589 61.6 189.922 61.6C197.255 61.6 203.922 63 209.922 65.8C215.922 68.4667 221.055 72.6 225.322 78.2C229.589 83.6667 232.855 90.4667 235.122 98.6C237.522 106.733 238.722 116.2 238.722 127C238.722 137.8 237.522 147.333 235.122 155.6C232.855 163.867 229.589 170.8 225.322 176.4C221.055 182 215.922 186.267 209.922 189.2C203.922 192 197.255 193.4 189.922 193.4ZM189.922 84.4C186.722 84.4 183.722 85.0667 180.922 86.4C178.255 87.7333 175.922 90.0667 173.922 93.4C171.922 96.6 170.322 100.933 169.122 106.4C167.922 111.867 167.322 118.733 167.322 127C167.322 135.267 167.922 142.2 169.122 147.8C170.322 153.267 171.922 157.733 173.922 161.2C175.922 164.533 178.255 166.933 180.922 168.4C183.722 169.867 186.722 170.6 189.922 170.6C193.122 170.6 196.055 169.867 198.722 168.4C201.522 166.933 203.922 164.533 205.922 161.2C207.922 157.733 209.522 153.267 210.722 147.8C211.922 142.2 212.522 135.267 212.522 127C212.522 118.733 211.922 111.867 210.722 106.4C209.522 100.933 207.922 96.6 205.922 93.4C203.922 90.0667 201.522 87.7333 198.722 86.4C196.055 85.0667 193.122 84.4 189.922 84.4ZM189.922 141.8C185.655 141.8 182.055 140.467 179.122 137.8C176.322 135 174.922 131.267 174.922 126.6C174.922 121.933 176.322 118.267 179.122 115.6C182.055 112.8 185.655 111.4 189.922 111.4C194.189 111.4 197.722 112.8 200.522 115.6C203.455 118.267 204.922 121.933 204.922 126.6C204.922 131.267 203.455 135 200.522 137.8C197.722 140.467 194.189 141.8 189.922 141.8ZM299.044 135.4H263.844V114.6H299.044V77.8H320.644V114.6H355.844V135.4H320.644V172.2H299.044V135.4Z" fill="#405BB8"/>
<path d="M299 78L288.217 86.8226C288.144 86.8821 288.186 87 288.28 87H311V182.72C311 182.814 311.118 182.856 311.177 182.783L320 172V78H299Z" fill="#405BB8" stroke="#405BB8"/>
<path d="M264 115L253.217 123.823C253.144 123.882 253.186 124 253.28 124H346V145.73C346 145.823 346.116 145.865 346.176 145.795L355 135.5V115H264Z" fill="#405BB8" stroke="#405BB8"/>
<path d="M180.936 115.053L167 126.5L191.926 146.939C191.967 146.973 192.028 146.968 192.064 146.928L203.5 134L181.064 115.054C181.027 115.023 180.973 115.022 180.936 115.053Z" fill="#405BB8" stroke="#405BB8"/>
<path d="M22.4 167C26.6667 170.467 31.2 173.467 36 176C40.9333 178.4 46.4 179.6 52.4 179.6C59.6 179.6 65.4667 177.933 70 174.6C74.6667 171.267 77 166.333 77 159.8C77 153.4 74.8 148.533 70.4 145.2C66.1333 141.867 60.6 140.2 53.8 140.2C51.6667 140.2 49.7333 140.333 48 140.6C46.4 140.733 44.8 141.067 43.2 141.6C41.6 142.133 39.9333 142.8 38.2 143.6C36.4667 144.4 34.5333 145.4 32.4 146.6L19.4 138.2L22.8 74H100.6V98.8H48.2L46 122.6C48.9333 121.533 51.6667 120.8 54.2 120.4C56.7333 119.867 59.6 119.6 62.8 119.6C68.6667 119.6 74.2 120.4 79.4 122C84.7333 123.6 89.4 126 93.4 129.2C97.4 132.4 100.533 136.467 102.8 141.4C105.2 146.333 106.4 152.2 106.4 159C106.4 166.067 105 172.333 102.2 177.8C99.5333 183.267 95.8667 187.933 91.2 191.8C86.6667 195.533 81.4 198.4 75.4 200.4C69.4 202.4 63.1333 203.4 56.6 203.4C45.5333 203.4 36.1333 201.733 28.4 198.4C20.8 194.933 14.4 190.667 9.2 185.6L22.4 167ZM179.922 203.4C172.589 203.4 165.922 202 159.922 199.2C153.922 196.267 148.789 192 144.522 186.4C140.255 180.8 136.922 173.867 134.522 165.6C132.255 157.333 131.122 147.8 131.122 137C131.122 126.2 132.255 116.733 134.522 108.6C136.922 100.467 140.255 93.6667 144.522 88.2C148.789 82.6 153.922 78.4667 159.922 75.8C165.922 73 172.589 71.6 179.922 71.6C187.255 71.6 193.922 73 199.922 75.8C205.922 78.4667 211.055 82.6 215.322 88.2C219.589 93.6667 222.855 100.467 225.122 108.6C227.522 116.733 228.722 126.2 228.722 137C228.722 147.8 227.522 157.333 225.122 165.6C222.855 173.867 219.589 180.8 215.322 186.4C211.055 192 205.922 196.267 199.922 199.2C193.922 202 187.255 203.4 179.922 203.4ZM179.922 94.4C176.722 94.4 173.722 95.0667 170.922 96.4C168.255 97.7333 165.922 100.067 163.922 103.4C161.922 106.6 160.322 110.933 159.122 116.4C157.922 121.867 157.322 128.733 157.322 137C157.322 145.267 157.922 152.2 159.122 157.8C160.322 163.267 161.922 167.733 163.922 171.2C165.922 174.533 168.255 176.933 170.922 178.4C173.722 179.867 176.722 180.6 179.922 180.6C183.122 180.6 186.055 179.867 188.722 178.4C191.522 176.933 193.922 174.533 195.922 171.2C197.922 167.733 199.522 163.267 200.722 157.8C201.922 152.2 202.522 145.267 202.522 137C202.522 128.733 201.922 121.867 200.722 116.4C199.522 110.933 197.922 106.6 195.922 103.4C193.922 100.067 191.522 97.7333 188.722 96.4C186.055 95.0667 183.122 94.4 179.922 94.4ZM179.922 151.8C175.655 151.8 172.055 150.467 169.122 147.8C166.322 145 164.922 141.267 164.922 136.6C164.922 131.933 166.322 128.267 169.122 125.6C172.055 122.8 175.655 121.4 179.922 121.4C184.189 121.4 187.722 122.8 190.522 125.6C193.455 128.267 194.922 131.933 194.922 136.6C194.922 141.267 193.455 145 190.522 147.8C187.722 150.467 184.189 151.8 179.922 151.8ZM289.044 145.4H253.844V124.6H289.044V87.8H310.644V124.6H345.844V145.4H310.644V182.2H289.044V145.4Z" fill="white"/>
<path d="M22.4 167L23.0306 166.224L22.2022 165.551L21.5845 166.421L22.4 167ZM36 176L35.5332 176.884L35.5478 176.892L35.5625 176.899L36 176ZM70 174.6L69.4187 173.786L69.4076 173.794L70 174.6ZM70.4 145.2L69.7844 145.988L69.7902 145.993L69.7962 145.997L70.4 145.2ZM48 140.6L48.083 141.597L48.1177 141.594L48.1521 141.588L48 140.6ZM43.2 141.6L42.8838 140.651L43.2 141.6ZM38.2 143.6L38.6191 144.508L38.2 143.6ZM32.4 146.6L31.8573 147.44L32.3642 147.767L32.8903 147.472L32.4 146.6ZM19.4 138.2L18.4014 138.147L18.3708 138.726L18.8573 139.04L19.4 138.2ZM22.8 74V73H21.8516L21.8014 73.9471L22.8 74ZM100.6 74H101.6V73H100.6V74ZM100.6 98.8V99.8H101.6V98.8H100.6ZM48.2 98.8V97.8H47.2882L47.2042 98.7079L48.2 98.8ZM46 122.6L45.0042 122.508L44.859 124.079L46.3417 123.54L46 122.6ZM54.2 120.4L54.356 121.388L54.3811 121.384L54.406 121.379L54.2 120.4ZM79.4 122L79.1059 122.956L79.1127 122.958L79.4 122ZM93.4 129.2L94.0247 128.419L93.4 129.2ZM102.8 141.4L101.891 141.818L101.896 141.828L101.901 141.837L102.8 141.4ZM102.2 177.8L101.31 177.344L101.306 177.353L101.301 177.362L102.2 177.8ZM91.2 191.8L91.8357 192.572L91.838 192.57L91.2 191.8ZM75.4 200.4L75.0838 199.451L75.4 200.4ZM28.4 198.4L27.985 199.31L27.9945 199.314L28.0042 199.318L28.4 198.4ZM9.2 185.6L8.38449 185.021L7.88927 185.719L8.50214 186.316L9.2 185.6ZM21.7694 167.776C26.0863 171.284 30.6745 174.32 35.5332 176.884L36.4668 175.116C31.7255 172.613 27.247 169.65 23.0306 166.224L21.7694 167.776ZM35.5625 176.899C40.6446 179.372 46.2628 180.6 52.4 180.6V178.6C46.5372 178.6 41.2221 177.428 36.4375 175.101L35.5625 176.899ZM52.4 180.6C59.7533 180.6 65.8447 178.897 70.5924 175.406L69.4076 173.794C65.0887 176.97 59.4467 178.6 52.4 178.6V180.6ZM70.5812 175.414C75.5502 171.864 78 166.604 78 159.8H76C76 166.062 73.7831 170.669 69.4188 173.786L70.5812 175.414ZM78 159.8C78 153.144 75.6953 147.957 71.0039 144.403L69.7962 145.997C73.9047 149.11 76 153.656 76 159.8H78ZM71.0156 144.412C66.5322 140.909 60.765 139.2 53.8 139.2V141.2C60.435 141.2 65.7344 142.824 69.7844 145.988L71.0156 144.412ZM53.8 139.2C51.6262 139.2 49.641 139.336 47.8479 139.612L48.1521 141.588C49.8257 141.331 51.7071 141.2 53.8 141.2V139.2ZM47.917 139.603C46.2337 139.744 44.5555 140.094 42.8838 140.651L43.5162 142.549C45.0445 142.039 46.5663 141.723 48.083 141.597L47.917 139.603ZM42.8838 140.651C41.2446 141.198 39.5435 141.879 37.7809 142.692L38.6191 144.508C40.3232 143.721 41.9554 143.069 43.5162 142.549L42.8838 140.651ZM37.7809 142.692C36.0178 143.506 34.0602 144.519 31.9097 145.728L32.8903 147.472C35.0065 146.281 36.9156 145.294 38.6191 144.508L37.7809 142.692ZM32.9427 145.76L19.9427 137.36L18.8573 139.04L31.8573 147.44L32.9427 145.76ZM20.3986 138.253L23.7986 74.0529L21.8014 73.9471L18.4014 138.147L20.3986 138.253ZM22.8 75H100.6V73H22.8V75ZM99.6 74V98.8H101.6V74H99.6ZM100.6 97.8H48.2V99.8H100.6V97.8ZM47.2042 98.7079L45.0042 122.508L46.9958 122.692L49.1958 98.892L47.2042 98.7079ZM46.3417 123.54C49.2273 122.491 51.8978 121.776 54.356 121.388L54.044 119.412C51.4355 119.824 48.6394 120.576 45.6583 121.66L46.3417 123.54ZM54.406 121.379C56.8579 120.862 59.6537 120.6 62.8 120.6V118.6C59.5463 118.6 56.6087 118.871 53.994 119.421L54.406 121.379ZM62.8 120.6C68.5748 120.6 74.0084 121.387 79.1059 122.956L79.6941 121.044C74.3916 119.413 68.7586 118.6 62.8 118.6V120.6ZM79.1127 122.958C84.334 124.524 88.8838 126.868 92.7753 129.981L94.0247 128.419C89.9162 125.132 85.1327 122.676 79.6873 121.042L79.1127 122.958ZM92.7753 129.981C96.6464 133.078 99.6857 137.017 101.891 141.818L103.709 140.982C101.381 135.916 98.1536 131.722 94.0247 128.419L92.7753 129.981ZM101.901 141.837C104.221 146.606 105.4 152.316 105.4 159H107.4C107.4 152.084 106.179 146.061 103.699 140.963L101.901 141.837ZM105.4 159C105.4 165.932 104.028 172.038 101.31 177.344L103.09 178.256C105.973 172.628 107.4 166.201 107.4 159H105.4ZM101.301 177.362C98.6967 182.701 95.1187 187.254 90.562 191.03L91.838 192.57C96.6146 188.612 100.37 183.832 103.099 178.238L101.301 177.362ZM90.5643 191.028C86.1328 194.678 80.9763 197.487 75.0838 199.451L75.7162 201.349C81.8237 199.313 87.2006 196.389 91.8357 192.572L90.5643 191.028ZM75.0838 199.451C69.1891 201.416 63.0294 202.4 56.6 202.4V204.4C63.2372 204.4 69.6109 203.384 75.7162 201.349L75.0838 199.451ZM56.6 202.4C45.6288 202.4 36.3715 200.747 28.7958 197.482L28.0042 199.318C35.8951 202.72 45.4379 204.4 56.6 204.4V202.4ZM28.815 197.49C21.3042 194.064 15.004 189.859 9.89787 184.884L8.50214 186.316C13.796 191.474 20.2958 195.802 27.985 199.31L28.815 197.49ZM10.0155 186.179L23.2155 167.579L21.5845 166.421L8.38449 185.021L10.0155 186.179ZM159.922 199.2L159.483 200.098L159.491 200.102L159.499 200.106L159.922 199.2ZM144.522 186.4L145.317 185.794L144.522 186.4ZM134.522 165.6L133.557 165.864L133.559 165.872L133.562 165.879L134.522 165.6ZM134.522 108.6L133.563 108.317L133.561 108.324L133.559 108.332L134.522 108.6ZM144.522 88.2L145.31 88.8153L145.317 88.806L144.522 88.2ZM159.922 75.8L160.328 76.7138L160.336 76.7101L160.345 76.7062L159.922 75.8ZM199.922 75.8L199.499 76.7062L199.507 76.7101L199.516 76.7138L199.922 75.8ZM215.322 88.2L214.526 88.8061L214.534 88.8153L215.322 88.2ZM225.122 108.6L224.159 108.868L224.161 108.876L224.163 108.883L225.122 108.6ZM225.122 165.6L224.162 165.321L224.159 165.328L224.157 165.336L225.122 165.6ZM215.322 186.4L216.117 187.006L215.322 186.4ZM199.922 199.2L200.345 200.106L200.353 200.102L200.361 200.098L199.922 199.2ZM170.922 96.4L170.492 95.4971L170.483 95.5013L170.475 95.5056L170.922 96.4ZM163.922 103.4L164.77 103.93L164.775 103.922L164.779 103.914L163.922 103.4ZM159.122 116.4L160.099 116.614L159.122 116.4ZM159.122 157.8L158.144 158.01L158.145 158.014L159.122 157.8ZM163.922 171.2L163.056 171.7L163.06 171.707L163.064 171.714L163.922 171.2ZM170.922 178.4L170.44 179.276L170.449 179.281L170.458 179.286L170.922 178.4ZM188.722 178.4L188.258 177.514L188.249 177.519L188.24 177.524L188.722 178.4ZM195.922 171.2L196.779 171.714L196.784 171.707L196.788 171.7L195.922 171.2ZM200.722 157.8L201.699 158.014L201.7 158.01L200.722 157.8ZM200.722 116.4L199.745 116.614L200.722 116.4ZM195.922 103.4L195.064 103.914L195.069 103.922L195.074 103.93L195.922 103.4ZM188.722 96.4L188.275 97.2944L188.283 97.2987L188.292 97.3029L188.722 96.4ZM169.122 147.8L168.415 148.507L168.432 148.524L168.449 148.54L169.122 147.8ZM169.122 125.6L169.812 126.324L169.812 126.323L169.122 125.6ZM190.522 125.6L189.815 126.307L189.832 126.324L189.849 126.34L190.522 125.6ZM190.522 147.8L191.212 148.524L191.212 148.523L190.522 147.8ZM179.922 202.4C172.719 202.4 166.199 201.026 160.345 198.294L159.499 200.106C165.645 202.974 172.458 204.4 179.922 204.4V202.4ZM160.361 198.302C154.509 195.44 149.495 191.277 145.317 185.794L143.726 187.006C148.082 192.723 153.335 197.093 159.483 200.098L160.361 198.302ZM145.317 185.794C141.14 180.311 137.855 173.495 135.482 165.321L133.562 165.879C135.988 174.238 139.371 181.289 143.726 187.006L145.317 185.794ZM135.486 165.336C133.248 157.174 132.122 147.733 132.122 137H130.122C130.122 147.867 131.262 157.493 133.557 165.864L135.486 165.336ZM132.122 137C132.122 126.267 133.249 116.894 135.485 108.868L133.559 108.332C131.262 116.573 130.122 126.133 130.122 137H132.122ZM135.481 108.883C137.853 100.844 141.136 94.1635 145.31 88.8153L143.734 87.5847C139.374 93.1698 135.991 100.089 133.563 108.317L135.481 108.883ZM145.317 88.806C149.49 83.3298 154.493 79.3073 160.328 76.7138L159.516 74.8862C153.351 77.626 148.087 81.8702 143.726 87.594L145.317 88.806ZM160.345 76.7062C166.199 73.9743 172.719 72.6 179.922 72.6V70.6C172.458 70.6 165.645 72.0256 159.499 74.8938L160.345 76.7062ZM179.922 72.6C187.125 72.6 193.645 73.9743 199.499 76.7062L200.345 74.8938C194.199 72.0256 187.385 70.6 179.922 70.6V72.6ZM199.516 76.7138C205.351 79.3073 210.354 83.3298 214.526 88.806L216.117 87.594C211.756 81.8702 206.493 77.626 200.328 74.8862L199.516 76.7138ZM214.534 88.8153C218.704 94.1591 221.92 100.834 224.159 108.868L226.085 108.332C223.791 100.099 220.473 93.1742 216.11 87.5847L214.534 88.8153ZM224.163 108.883C226.529 116.903 227.722 126.271 227.722 137H229.722C229.722 126.129 228.514 116.563 226.081 108.317L224.163 108.883ZM227.722 137C227.722 147.729 226.53 157.165 224.162 165.321L226.082 165.879C228.514 157.502 229.722 147.871 229.722 137H227.722ZM224.157 165.336C221.918 173.505 218.701 180.316 214.526 185.794L216.117 187.006C220.477 181.285 223.793 174.229 226.086 165.864L224.157 165.336ZM214.526 185.794C210.349 191.277 205.335 195.44 199.483 198.302L200.361 200.098C206.509 197.093 211.762 192.723 216.117 187.006L214.526 185.794ZM199.499 198.294C193.645 201.026 187.125 202.4 179.922 202.4V204.4C187.385 204.4 194.199 202.974 200.345 200.106L199.499 198.294ZM179.922 93.4C176.578 93.4 173.431 94.0978 170.492 95.4971L171.352 97.3029C174.013 96.0355 176.866 95.4 179.922 95.4V93.4ZM170.475 95.5056C167.593 96.9462 165.133 99.4378 163.064 102.885L164.779 103.914C166.711 100.696 168.917 98.5204 171.369 97.2944L170.475 95.5056ZM163.074 102.87C160.991 106.202 159.359 110.656 158.145 116.186L160.099 116.614C161.285 111.211 162.852 106.998 164.77 103.93L163.074 102.87ZM158.145 116.186C156.924 121.747 156.322 128.692 156.322 137H158.322C158.322 128.775 158.92 121.986 160.099 116.614L158.145 116.186ZM156.322 137C156.322 145.309 156.924 152.318 158.144 158.01L160.1 157.59C158.919 152.082 158.322 145.224 158.322 137H156.322ZM158.145 158.014C159.359 163.545 160.989 168.117 163.056 171.7L164.788 170.7C162.855 167.35 161.285 162.989 160.099 157.586L158.145 158.014ZM163.064 171.714C165.131 175.158 167.581 177.704 170.44 179.276L171.404 177.524C168.929 176.163 166.713 173.908 164.779 170.686L163.064 171.714ZM170.458 179.286C173.403 180.828 176.562 181.6 179.922 181.6V179.6C176.881 179.6 174.041 178.905 171.386 177.514L170.458 179.286ZM179.922 181.6C183.281 181.6 186.382 180.828 189.204 179.276L188.24 177.524C185.729 178.905 182.962 179.6 179.922 179.6V181.6ZM189.186 179.286C192.182 177.716 194.707 175.169 196.779 171.714L195.064 170.686C193.137 173.897 190.861 176.15 188.258 177.514L189.186 179.286ZM196.788 171.7C198.855 168.117 200.485 163.545 201.699 158.014L199.745 157.586C198.559 162.989 196.989 167.35 195.056 170.7L196.788 171.7ZM201.7 158.01C202.919 152.318 203.522 145.309 203.522 137H201.522C201.522 145.224 200.924 152.082 199.744 157.59L201.7 158.01ZM203.522 137C203.522 128.692 202.92 121.747 201.699 116.186L199.745 116.614C200.924 121.986 201.522 128.775 201.522 137H203.522ZM201.699 116.186C200.485 110.656 198.852 106.202 196.77 102.87L195.074 103.93C196.991 106.998 198.559 111.211 199.745 116.614L201.699 116.186ZM196.779 102.885C194.704 99.4262 192.17 96.9342 189.152 95.4971L188.292 97.3029C190.874 98.5324 193.14 100.707 195.064 103.914L196.779 102.885ZM189.169 95.5056C186.354 94.0978 183.265 93.4 179.922 93.4V95.4C182.978 95.4 185.757 96.0355 188.275 97.2944L189.169 95.5056ZM179.922 150.8C175.883 150.8 172.529 149.546 169.795 147.06L168.449 148.54C171.581 151.387 175.427 152.8 179.922 152.8V150.8ZM169.829 147.093C167.25 144.514 165.922 141.052 165.922 136.6H163.922C163.922 141.481 165.394 145.486 168.415 148.507L169.829 147.093ZM165.922 136.6C165.922 132.146 167.25 128.764 169.812 126.324L168.432 124.876C165.394 127.77 163.922 131.721 163.922 136.6H165.922ZM169.812 126.323C172.549 123.711 175.898 122.4 179.922 122.4V120.4C175.413 120.4 171.561 121.889 168.431 124.877L169.812 126.323ZM179.922 122.4C183.946 122.4 187.218 123.71 189.815 126.307L191.229 124.893C188.226 121.89 184.431 120.4 179.922 120.4V122.4ZM189.849 126.34C192.537 128.783 193.922 132.16 193.922 136.6H195.922C195.922 131.706 194.374 127.75 191.195 124.86L189.849 126.34ZM193.922 136.6C193.922 141.038 192.537 144.494 189.831 147.077L191.212 148.523C194.374 145.506 195.922 141.495 195.922 136.6H193.922ZM189.832 147.076C187.238 149.546 183.961 150.8 179.922 150.8V152.8C184.416 152.8 188.206 151.387 191.212 148.524L189.832 147.076ZM289.044 145.4H290.044V144.4H289.044V145.4ZM253.844 145.4H252.844V146.4H253.844V145.4ZM253.844 124.6V123.6H252.844V124.6H253.844ZM289.044 124.6V125.6H290.044V124.6H289.044ZM289.044 87.8V86.8H288.044V87.8H289.044ZM310.644 87.8H311.644V86.8H310.644V87.8ZM310.644 124.6H309.644V125.6H310.644V124.6ZM345.844 124.6H346.844V123.6H345.844V124.6ZM345.844 145.4V146.4H346.844V145.4H345.844ZM310.644 145.4V144.4H309.644V145.4H310.644ZM310.644 182.2V183.2H311.644V182.2H310.644ZM289.044 182.2H288.044V183.2H289.044V182.2ZM289.044 144.4H253.844V146.4H289.044V144.4ZM254.844 145.4V124.6H252.844V145.4H254.844ZM253.844 125.6H289.044V123.6H253.844V125.6ZM290.044 124.6V87.8H288.044V124.6H290.044ZM289.044 88.8H310.644V86.8H289.044V88.8ZM309.644 87.8V124.6H311.644V87.8H309.644ZM310.644 125.6H345.844V123.6H310.644V125.6ZM344.844 124.6V145.4H346.844V124.6H344.844ZM345.844 144.4H310.644V146.4H345.844V144.4ZM309.644 145.4V182.2H311.644V145.4H309.644ZM310.644 181.2H289.044V183.2H310.644V181.2ZM290.044 182.2V145.4H288.044V182.2H290.044Z" fill="#405BB8"/>
<path d="M33 64.5L22.2318 72.8209C22.1563 72.8792 22.1976 73 22.293 73H100.5L100.995 99.228C100.997 99.3211 101.113 99.3615 101.172 99.2895L110 88.5V64.5H33Z" fill="#405BB8" stroke="#405BB8"/>
<path d="M32.5 157.5L22.5 166L31.5 172.5L41 164L32.5 157.5Z" fill="#405BB8" stroke="#405BB8"/>
</svg>
