<svg width="490" height="250" viewBox="0 0 490 250" fill="none" xmlns="http://www.w3.org/2000/svg">
<path d="M21.6 174.2C30.6667 166.6 38.9333 159.533 46.4 153C53.8667 146.333 60.2667 140.133 65.6 134.4C70.9333 128.667 75.0667 123.267 78 118.2C80.9333 113.133 82.4 108.333 82.4 103.8C82.4 97.5333 80.6 92.8 77 89.6C73.4 86.2667 68.2667 84.6 61.6 84.6C56.5333 84.6 51.8667 85.9333 47.6 88.6C43.4667 91.1333 39.6 94.1333 36 97.6L20.2 81.8C23.5333 78.4667 26.8 75.5333 30 73C33.3333 70.4667 36.8 68.4 40.4 66.8C44.1333 65.0667 48 63.8 52 63C56.1333 62.0667 60.6667 61.6 65.6 61.6C72.2667 61.6 78.3333 62.6 83.8 64.6C89.2667 66.4667 93.9333 69.2 97.8 72.8C101.8 76.2667 104.867 80.4667 107 85.4C109.267 90.3333 110.4 95.8667 110.4 102C110.4 107.333 109.133 112.8 106.6 118.4C104.067 123.867 100.6 129.4 96.2 135C91.9333 140.467 87 146 81.4 151.6C75.8 157.067 69.9333 162.467 63.8 167.8C67.4 167.4 71.2667 167.067 75.4 166.8C79.6667 166.4 83.4667 166.2 86.8 166.2H117V191H21.6V174.2ZM189.922 193.4C182.589 193.4 175.922 192 169.922 189.2C163.922 186.267 158.789 182 154.522 176.4C150.255 170.8 146.922 163.867 144.522 155.6C142.255 147.333 141.122 137.8 141.122 127C141.122 116.2 142.255 106.733 144.522 98.6C146.922 90.4667 150.255 83.6667 154.522 78.2C158.789 72.6 163.922 68.4667 169.922 65.8C175.922 63 182.589 61.6 189.922 61.6C197.255 61.6 203.922 63 209.922 65.8C215.922 68.4667 221.055 72.6 225.322 78.2C229.589 83.6667 232.855 90.4667 235.122 98.6C237.522 106.733 238.722 116.2 238.722 127C238.722 137.8 237.522 147.333 235.122 155.6C232.855 163.867 229.589 170.8 225.322 176.4C221.055 182 215.922 186.267 209.922 189.2C203.922 192 197.255 193.4 189.922 193.4ZM189.922 84.4C186.722 84.4 183.722 85.0667 180.922 86.4C178.255 87.7333 175.922 90.0667 173.922 93.4C171.922 96.6 170.322 100.933 169.122 106.4C167.922 111.867 167.322 118.733 167.322 127C167.322 135.267 167.922 142.2 169.122 147.8C170.322 153.267 171.922 157.733 173.922 161.2C175.922 164.533 178.255 166.933 180.922 168.4C183.722 169.867 186.722 170.6 189.922 170.6C193.122 170.6 196.055 169.867 198.722 168.4C201.522 166.933 203.922 164.533 205.922 161.2C207.922 157.733 209.522 153.267 210.722 147.8C211.922 142.2 212.522 135.267 212.522 127C212.522 118.733 211.922 111.867 210.722 106.4C209.522 100.933 207.922 96.6 205.922 93.4C203.922 90.0667 201.522 87.7333 198.722 86.4C196.055 85.0667 193.122 84.4 189.922 84.4ZM189.922 141.8C185.655 141.8 182.055 140.467 179.122 137.8C176.322 135 174.922 131.267 174.922 126.6C174.922 121.933 176.322 118.267 179.122 115.6C182.055 112.8 185.655 111.4 189.922 111.4C194.189 111.4 197.722 112.8 200.522 115.6C203.455 118.267 204.922 121.933 204.922 126.6C204.922 131.267 203.455 135 200.522 137.8C197.722 140.467 194.189 141.8 189.922 141.8ZM309.844 193.4C302.51 193.4 295.844 192 289.844 189.2C283.844 186.267 278.71 182 274.444 176.4C270.177 170.8 266.844 163.867 264.444 155.6C262.177 147.333 261.044 137.8 261.044 127C261.044 116.2 262.177 106.733 264.444 98.6C266.844 90.4667 270.177 83.6667 274.444 78.2C278.71 72.6 283.844 68.4667 289.844 65.8C295.844 63 302.51 61.6 309.844 61.6C317.177 61.6 323.844 63 329.844 65.8C335.844 68.4667 340.977 72.6 345.244 78.2C349.51 83.6667 352.777 90.4667 355.044 98.6C357.444 106.733 358.644 116.2 358.644 127C358.644 137.8 357.444 147.333 355.044 155.6C352.777 163.867 349.51 170.8 345.244 176.4C340.977 182 335.844 186.267 329.844 189.2C323.844 192 317.177 193.4 309.844 193.4ZM309.844 84.4C306.644 84.4 303.644 85.0667 300.844 86.4C298.177 87.7333 295.844 90.0667 293.844 93.4C291.844 96.6 290.244 100.933 289.044 106.4C287.844 111.867 287.244 118.733 287.244 127C287.244 135.267 287.844 142.2 289.044 147.8C290.244 153.267 291.844 157.733 293.844 161.2C295.844 164.533 298.177 166.933 300.844 168.4C303.644 169.867 306.644 170.6 309.844 170.6C313.044 170.6 315.977 169.867 318.644 168.4C321.444 166.933 323.844 164.533 325.844 161.2C327.844 157.733 329.444 153.267 330.644 147.8C331.844 142.2 332.444 135.267 332.444 127C332.444 118.733 331.844 111.867 330.644 106.4C329.444 100.933 327.844 96.6 325.844 93.4C323.844 90.0667 321.444 87.7333 318.644 86.4C315.977 85.0667 313.044 84.4 309.844 84.4ZM309.844 141.8C305.577 141.8 301.977 140.467 299.044 137.8C296.244 135 294.844 131.267 294.844 126.6C294.844 121.933 296.244 118.267 299.044 115.6C301.977 112.8 305.577 111.4 309.844 111.4C314.11 111.4 317.644 112.8 320.444 115.6C323.377 118.267 324.844 121.933 324.844 126.6C324.844 131.267 323.377 135 320.444 137.8C317.644 140.467 314.11 141.8 309.844 141.8ZM418.966 135.4H383.766V114.6H418.966V77.8H440.566V114.6H475.766V135.4H440.566V172.2H418.966V135.4Z" fill="#405BB8"/>
<path d="M181.929 114.06L165.5 128L189.923 148.934C189.965 148.97 190.029 148.965 190.065 148.922L202 134.5L182.065 114.067C182.028 114.029 181.969 114.026 181.929 114.06Z" fill="#405BB8" stroke="#405BB8"/>
<path d="M300.433 115.06L287 127L310.925 147.935C310.967 147.971 311.029 147.967 311.066 147.926L322.5 135L300.567 115.06C300.529 115.026 300.471 115.026 300.433 115.06Z" fill="#405BB8" stroke="#405BB8"/>
<path d="M384 115L373.217 123.823C373.144 123.882 373.186 124 373.28 124H466V145.73C466 145.823 466.116 145.865 466.176 145.795L475 135.5V115H384Z" fill="#405BB8" stroke="#405BB8"/>
<path d="M419 78L408.217 86.8226C408.144 86.8821 408.186 87 408.28 87H431V182.72C431 182.814 431.118 182.856 431.177 182.783L440 172V78H419Z" fill="#405BB8" stroke="#405BB8"/>
<path d="M11.6 184.2C20.6667 176.6 28.9333 169.533 36.4 163C43.8667 156.333 50.2667 150.133 55.6 144.4C60.9333 138.667 65.0667 133.267 68 128.2C70.9333 123.133 72.4 118.333 72.4 113.8C72.4 107.533 70.6 102.8 67 99.6C63.4 96.2667 58.2667 94.6 51.6 94.6C46.5333 94.6 41.8667 95.9333 37.6 98.6C33.4667 101.133 29.6 104.133 26 107.6L10.2 91.8C13.5333 88.4667 16.8 85.5333 20 83C23.3333 80.4667 26.8 78.4 30.4 76.8C34.1333 75.0667 38 73.8 42 73C46.1333 72.0667 50.6667 71.6 55.6 71.6C62.2667 71.6 68.3333 72.6 73.8 74.6C79.2667 76.4667 83.9333 79.2 87.8 82.8C91.8 86.2667 94.8667 90.4667 97 95.4C99.2667 100.333 100.4 105.867 100.4 112C100.4 117.333 99.1333 122.8 96.6 128.4C94.0667 133.867 90.6 139.4 86.2 145C81.9333 150.467 77 156 71.4 161.6C65.8 167.067 59.9333 172.467 53.8 177.8C57.4 177.4 61.2667 177.067 65.4 176.8C69.6667 176.4 73.4667 176.2 76.8 176.2H107V201H11.6V184.2ZM179.922 203.4C172.589 203.4 165.922 202 159.922 199.2C153.922 196.267 148.789 192 144.522 186.4C140.255 180.8 136.922 173.867 134.522 165.6C132.255 157.333 131.122 147.8 131.122 137C131.122 126.2 132.255 116.733 134.522 108.6C136.922 100.467 140.255 93.6667 144.522 88.2C148.789 82.6 153.922 78.4667 159.922 75.8C165.922 73 172.589 71.6 179.922 71.6C187.255 71.6 193.922 73 199.922 75.8C205.922 78.4667 211.055 82.6 215.322 88.2C219.589 93.6667 222.855 100.467 225.122 108.6C227.522 116.733 228.722 126.2 228.722 137C228.722 147.8 227.522 157.333 225.122 165.6C222.855 173.867 219.589 180.8 215.322 186.4C211.055 192 205.922 196.267 199.922 199.2C193.922 202 187.255 203.4 179.922 203.4ZM179.922 94.4C176.722 94.4 173.722 95.0667 170.922 96.4C168.255 97.7333 165.922 100.067 163.922 103.4C161.922 106.6 160.322 110.933 159.122 116.4C157.922 121.867 157.322 128.733 157.322 137C157.322 145.267 157.922 152.2 159.122 157.8C160.322 163.267 161.922 167.733 163.922 171.2C165.922 174.533 168.255 176.933 170.922 178.4C173.722 179.867 176.722 180.6 179.922 180.6C183.122 180.6 186.055 179.867 188.722 178.4C191.522 176.933 193.922 174.533 195.922 171.2C197.922 167.733 199.522 163.267 200.722 157.8C201.922 152.2 202.522 145.267 202.522 137C202.522 128.733 201.922 121.867 200.722 116.4C199.522 110.933 197.922 106.6 195.922 103.4C193.922 100.067 191.522 97.7333 188.722 96.4C186.055 95.0667 183.122 94.4 179.922 94.4ZM179.922 151.8C175.655 151.8 172.055 150.467 169.122 147.8C166.322 145 164.922 141.267 164.922 136.6C164.922 131.933 166.322 128.267 169.122 125.6C172.055 122.8 175.655 121.4 179.922 121.4C184.189 121.4 187.722 122.8 190.522 125.6C193.455 128.267 194.922 131.933 194.922 136.6C194.922 141.267 193.455 145 190.522 147.8C187.722 150.467 184.189 151.8 179.922 151.8ZM299.844 203.4C292.51 203.4 285.844 202 279.844 199.2C273.844 196.267 268.71 192 264.444 186.4C260.177 180.8 256.844 173.867 254.444 165.6C252.177 157.333 251.044 147.8 251.044 137C251.044 126.2 252.177 116.733 254.444 108.6C256.844 100.467 260.177 93.6667 264.444 88.2C268.71 82.6 273.844 78.4667 279.844 75.8C285.844 73 292.51 71.6 299.844 71.6C307.177 71.6 313.844 73 319.844 75.8C325.844 78.4667 330.977 82.6 335.244 88.2C339.51 93.6667 342.777 100.467 345.044 108.6C347.444 116.733 348.644 126.2 348.644 137C348.644 147.8 347.444 157.333 345.044 165.6C342.777 173.867 339.51 180.8 335.244 186.4C330.977 192 325.844 196.267 319.844 199.2C313.844 202 307.177 203.4 299.844 203.4ZM299.844 94.4C296.644 94.4 293.644 95.0667 290.844 96.4C288.177 97.7333 285.844 100.067 283.844 103.4C281.844 106.6 280.244 110.933 279.044 116.4C277.844 121.867 277.244 128.733 277.244 137C277.244 145.267 277.844 152.2 279.044 157.8C280.244 163.267 281.844 167.733 283.844 171.2C285.844 174.533 288.177 176.933 290.844 178.4C293.644 179.867 296.644 180.6 299.844 180.6C303.044 180.6 305.977 179.867 308.644 178.4C311.444 176.933 313.844 174.533 315.844 171.2C317.844 167.733 319.444 163.267 320.644 157.8C321.844 152.2 322.444 145.267 322.444 137C322.444 128.733 321.844 121.867 320.644 116.4C319.444 110.933 317.844 106.6 315.844 103.4C313.844 100.067 311.444 97.7333 308.644 96.4C305.977 95.0667 303.044 94.4 299.844 94.4ZM299.844 151.8C295.577 151.8 291.977 150.467 289.044 147.8C286.244 145 284.844 141.267 284.844 136.6C284.844 131.933 286.244 128.267 289.044 125.6C291.977 122.8 295.577 121.4 299.844 121.4C304.11 121.4 307.644 122.8 310.444 125.6C313.377 128.267 314.844 131.933 314.844 136.6C314.844 141.267 313.377 145 310.444 147.8C307.644 150.467 304.11 151.8 299.844 151.8ZM408.966 145.4H373.766V124.6H408.966V87.8H430.566V124.6H465.766V145.4H430.566V182.2H408.966V145.4Z" fill="white"/>
<path d="M11.6 184.2L10.9576 183.434L10.6 183.733V184.2H11.6ZM36.4 163L37.0585 163.753L37.066 163.746L36.4 163ZM55.6 144.4L56.3322 145.081L55.6 144.4ZM68 128.2L67.1346 127.699L68 128.2ZM67 99.6L66.3206 100.334L66.328 100.341L66.3356 100.347L67 99.6ZM37.6 98.6L38.1226 99.4526L38.13 99.448L37.6 98.6ZM26 107.6L25.2929 108.307L25.9868 109.001L26.6936 108.32L26 107.6ZM10.2 91.8L9.49289 91.0929L8.78579 91.8L9.49289 92.5071L10.2 91.8ZM20 83L19.3949 82.2038L19.387 82.2098L19.3793 82.216L20 83ZM30.4 76.8L30.8061 77.7138L30.8137 77.7105L30.8211 77.707L30.4 76.8ZM42 73L42.1961 73.9806L42.2082 73.9781L42.2203 73.9754L42 73ZM73.8 74.6L73.4564 75.5391L73.4666 75.5428L73.4769 75.5463L73.8 74.6ZM87.8 82.8L87.1186 83.5319L87.1316 83.544L87.1451 83.5557L87.8 82.8ZM97 95.4L96.0821 95.7969L96.0866 95.8073L96.0913 95.8175L97 95.4ZM96.6 128.4L97.5073 128.82L97.5111 128.812L96.6 128.4ZM86.2 145L85.4137 144.382L85.4117 144.385L86.2 145ZM71.4 161.6L72.0986 162.316L72.1071 162.307L71.4 161.6ZM53.8 177.8L53.1438 177.045L50.7262 179.148L53.9104 178.794L53.8 177.8ZM65.4 176.8L65.4644 177.798L65.4789 177.797L65.4933 177.796L65.4 176.8ZM107 176.2H108V175.2H107V176.2ZM107 201V202H108V201H107ZM11.6 201H10.6V202H11.6V201ZM12.2424 184.966C21.3135 177.363 29.5856 170.291 37.0585 163.753L35.7415 162.247C28.281 168.775 20.0198 175.837 10.9576 183.434L12.2424 184.966ZM37.066 163.746C44.5497 157.064 50.973 150.842 56.3322 145.081L54.8678 143.719C49.5604 149.424 43.1836 155.603 35.734 162.254L37.066 163.746ZM56.3322 145.081C61.7006 139.31 65.8844 133.85 68.8654 128.701L67.1346 127.699C64.2489 132.683 60.1661 138.023 54.8678 143.719L56.3322 145.081ZM68.8654 128.701C71.8618 123.525 73.4 118.553 73.4 113.8H71.4C71.4 118.113 70.0049 122.741 67.1346 127.699L68.8654 128.701ZM73.4 113.8C73.4 107.339 71.5377 102.296 67.6644 98.8526L66.3356 100.347C69.6623 103.304 71.4 107.728 71.4 113.8H73.4ZM67.6794 98.8662C63.8368 95.3083 58.4269 93.6 51.6 93.6V95.6C58.1064 95.6 62.9632 97.2251 66.3206 100.334L67.6794 98.8662ZM51.6 93.6C46.3473 93.6 41.4968 94.9853 37.07 97.752L38.13 99.448C42.2366 96.8814 46.7194 95.6 51.6 95.6V93.6ZM37.0774 97.7474C32.8806 100.32 28.9568 103.364 25.3064 106.88L26.6936 108.32C30.2432 104.902 34.0527 101.947 38.1226 99.4526L37.0774 97.7474ZM26.7071 106.893L10.9071 91.0929L9.49289 92.5071L25.2929 108.307L26.7071 106.893ZM10.9071 92.5071C14.2172 89.197 17.4552 86.2901 20.6207 83.784L19.3793 82.216C16.1448 84.7766 12.8494 87.7363 9.49289 91.0929L10.9071 92.5071ZM20.6051 83.7962C23.8807 81.3067 27.2811 79.2805 30.8061 77.7138L29.9939 75.8862C26.3189 77.5195 22.786 79.6266 19.3949 82.2038L20.6051 83.7962ZM30.8211 77.707C34.4833 76.0067 38.2745 74.7649 42.1961 73.9806L41.8039 72.0194C37.7255 72.8351 33.7834 74.1266 29.9789 75.893L30.8211 77.707ZM42.2203 73.9754C46.2707 73.0608 50.729 72.6 55.6 72.6V70.6C50.6043 70.6 45.996 71.0725 41.7797 72.0246L42.2203 73.9754ZM55.6 72.6C62.1663 72.6 68.1146 73.5848 73.4564 75.5391L74.1436 73.6609C68.5521 71.6152 62.3671 70.6 55.6 70.6V72.6ZM73.4769 75.5463C78.8229 77.3718 83.3642 80.0364 87.1186 83.5319L88.4814 82.0681C84.5025 78.3635 79.7104 75.5615 74.1231 73.6536L73.4769 75.5463ZM87.1451 83.5557C91.0298 86.9225 94.0075 90.9992 96.0821 95.7969L97.9179 95.0031C95.7259 89.9341 92.5702 85.6109 88.4549 82.0443L87.1451 83.5557ZM96.0913 95.8175C98.2905 100.604 99.4 105.992 99.4 112H101.4C101.4 105.741 100.243 100.063 97.9087 94.9825L96.0913 95.8175ZM99.4 112C99.4 117.171 98.1725 122.498 95.6889 127.988L97.5111 128.812C100.094 123.102 101.4 117.496 101.4 112H99.4ZM95.6927 127.98C93.1972 133.365 89.7742 138.832 85.4137 144.382L86.9863 145.618C91.4258 139.968 94.9362 134.369 97.5073 128.82L95.6927 127.98ZM85.4117 144.385C81.1734 149.815 76.268 155.318 70.6929 160.893L72.1071 162.307C77.7321 156.682 82.6933 151.118 86.9883 145.615L85.4117 144.385ZM70.7015 160.884C65.1157 166.337 59.2632 171.724 53.1438 177.045L54.4562 178.555C60.6035 173.209 66.4843 167.796 72.0985 162.316L70.7015 160.884ZM53.9104 178.794C57.4931 178.396 61.3443 178.064 65.4644 177.798L65.3356 175.802C61.189 176.07 57.3069 176.404 53.6896 176.806L53.9104 178.794ZM65.4933 177.796C69.7372 177.398 73.5051 177.2 76.8 177.2V175.2C73.4282 175.2 69.5961 175.402 65.3067 175.804L65.4933 177.796ZM76.8 177.2H107V175.2H76.8V177.2ZM106 176.2V201H108V176.2H106ZM107 200H11.6V202H107V200ZM12.6 201V184.2H10.6V201H12.6ZM159.922 199.2L159.483 200.098L159.491 200.102L159.499 200.106L159.922 199.2ZM144.522 186.4L145.317 185.794L144.522 186.4ZM134.522 165.6L133.557 165.864L133.559 165.872L133.562 165.879L134.522 165.6ZM134.522 108.6L133.563 108.317L133.561 108.324L133.559 108.332L134.522 108.6ZM144.522 88.2L145.31 88.8153L145.317 88.806L144.522 88.2ZM159.922 75.8L160.328 76.7138L160.336 76.7101L160.345 76.7062L159.922 75.8ZM199.922 75.8L199.499 76.7062L199.507 76.7101L199.516 76.7138L199.922 75.8ZM215.322 88.2L214.526 88.8061L214.534 88.8153L215.322 88.2ZM225.122 108.6L224.159 108.868L224.161 108.876L224.163 108.883L225.122 108.6ZM225.122 165.6L224.162 165.321L224.159 165.328L224.157 165.336L225.122 165.6ZM215.322 186.4L216.117 187.006L215.322 186.4ZM199.922 199.2L200.345 200.106L200.353 200.102L200.361 200.098L199.922 199.2ZM170.922 96.4L170.492 95.4971L170.483 95.5013L170.475 95.5056L170.922 96.4ZM163.922 103.4L164.77 103.93L164.775 103.922L164.779 103.914L163.922 103.4ZM159.122 116.4L160.099 116.614L159.122 116.4ZM159.122 157.8L158.144 158.01L158.145 158.014L159.122 157.8ZM163.922 171.2L163.056 171.7L163.06 171.707L163.064 171.714L163.922 171.2ZM170.922 178.4L170.44 179.276L170.449 179.281L170.458 179.286L170.922 178.4ZM188.722 178.4L188.258 177.514L188.249 177.519L188.24 177.524L188.722 178.4ZM195.922 171.2L196.779 171.714L196.784 171.707L196.788 171.7L195.922 171.2ZM200.722 157.8L201.699 158.014L201.7 158.01L200.722 157.8ZM200.722 116.4L199.745 116.614L200.722 116.4ZM195.922 103.4L195.064 103.914L195.069 103.922L195.074 103.93L195.922 103.4ZM188.722 96.4L188.275 97.2944L188.283 97.2987L188.292 97.3029L188.722 96.4ZM169.122 147.8L168.415 148.507L168.432 148.524L168.449 148.54L169.122 147.8ZM169.122 125.6L169.812 126.324L169.812 126.323L169.122 125.6ZM190.522 125.6L189.815 126.307L189.832 126.324L189.849 126.34L190.522 125.6ZM190.522 147.8L191.212 148.524L191.212 148.523L190.522 147.8ZM179.922 202.4C172.719 202.4 166.199 201.026 160.345 198.294L159.499 200.106C165.645 202.974 172.458 204.4 179.922 204.4V202.4ZM160.361 198.302C154.509 195.44 149.495 191.277 145.317 185.794L143.726 187.006C148.082 192.723 153.335 197.093 159.483 200.098L160.361 198.302ZM145.317 185.794C141.14 180.311 137.855 173.495 135.482 165.321L133.562 165.879C135.988 174.238 139.371 181.289 143.726 187.006L145.317 185.794ZM135.486 165.336C133.248 157.174 132.122 147.733 132.122 137H130.122C130.122 147.867 131.262 157.493 133.557 165.864L135.486 165.336ZM132.122 137C132.122 126.267 133.249 116.894 135.485 108.868L133.559 108.332C131.262 116.573 130.122 126.133 130.122 137H132.122ZM135.481 108.883C137.853 100.844 141.136 94.1635 145.31 88.8153L143.734 87.5847C139.374 93.1698 135.991 100.089 133.563 108.317L135.481 108.883ZM145.317 88.806C149.49 83.3298 154.493 79.3073 160.328 76.7138L159.516 74.8862C153.351 77.626 148.087 81.8702 143.726 87.594L145.317 88.806ZM160.345 76.7062C166.199 73.9743 172.719 72.6 179.922 72.6V70.6C172.458 70.6 165.645 72.0256 159.499 74.8938L160.345 76.7062ZM179.922 72.6C187.125 72.6 193.645 73.9743 199.499 76.7062L200.345 74.8938C194.199 72.0256 187.385 70.6 179.922 70.6V72.6ZM199.516 76.7138C205.351 79.3073 210.354 83.3298 214.526 88.806L216.117 87.594C211.756 81.8702 206.493 77.626 200.328 74.8862L199.516 76.7138ZM214.534 88.8153C218.704 94.1591 221.92 100.834 224.159 108.868L226.085 108.332C223.791 100.099 220.473 93.1742 216.11 87.5847L214.534 88.8153ZM224.163 108.883C226.529 116.903 227.722 126.271 227.722 137H229.722C229.722 126.129 228.514 116.563 226.081 108.317L224.163 108.883ZM227.722 137C227.722 147.729 226.53 157.165 224.162 165.321L226.082 165.879C228.514 157.502 229.722 147.871 229.722 137H227.722ZM224.157 165.336C221.918 173.505 218.701 180.316 214.526 185.794L216.117 187.006C220.477 181.285 223.793 174.229 226.086 165.864L224.157 165.336ZM214.526 185.794C210.349 191.277 205.335 195.44 199.483 198.302L200.361 200.098C206.509 197.093 211.762 192.723 216.117 187.006L214.526 185.794ZM199.499 198.294C193.645 201.026 187.125 202.4 179.922 202.4V204.4C187.385 204.4 194.199 202.974 200.345 200.106L199.499 198.294ZM179.922 93.4C176.578 93.4 173.431 94.0978 170.492 95.4971L171.352 97.3029C174.013 96.0355 176.866 95.4 179.922 95.4V93.4ZM170.475 95.5056C167.593 96.9462 165.133 99.4378 163.064 102.885L164.779 103.914C166.711 100.696 168.917 98.5204 171.369 97.2944L170.475 95.5056ZM163.074 102.87C160.991 106.202 159.359 110.656 158.145 116.186L160.099 116.614C161.285 111.211 162.852 106.998 164.77 103.93L163.074 102.87ZM158.145 116.186C156.924 121.747 156.322 128.692 156.322 137H158.322C158.322 128.775 158.92 121.986 160.099 116.614L158.145 116.186ZM156.322 137C156.322 145.309 156.924 152.318 158.144 158.01L160.1 157.59C158.919 152.082 158.322 145.224 158.322 137H156.322ZM158.145 158.014C159.359 163.545 160.989 168.117 163.056 171.7L164.788 170.7C162.855 167.35 161.285 162.989 160.099 157.586L158.145 158.014ZM163.064 171.714C165.131 175.158 167.581 177.704 170.44 179.276L171.404 177.524C168.929 176.163 166.713 173.908 164.779 170.686L163.064 171.714ZM170.458 179.286C173.403 180.828 176.562 181.6 179.922 181.6V179.6C176.881 179.6 174.041 178.905 171.386 177.514L170.458 179.286ZM179.922 181.6C183.281 181.6 186.382 180.828 189.204 179.276L188.24 177.524C185.729 178.905 182.962 179.6 179.922 179.6V181.6ZM189.186 179.286C192.182 177.716 194.707 175.169 196.779 171.714L195.064 170.686C193.137 173.897 190.861 176.15 188.258 177.514L189.186 179.286ZM196.788 171.7C198.855 168.117 200.485 163.545 201.699 158.014L199.745 157.586C198.559 162.989 196.989 167.35 195.056 170.7L196.788 171.7ZM201.7 158.01C202.919 152.318 203.522 145.309 203.522 137H201.522C201.522 145.224 200.924 152.082 199.744 157.59L201.7 158.01ZM203.522 137C203.522 128.692 202.92 121.747 201.699 116.186L199.745 116.614C200.924 121.986 201.522 128.775 201.522 137H203.522ZM201.699 116.186C200.485 110.656 198.852 106.202 196.77 102.87L195.074 103.93C196.991 106.998 198.559 111.211 199.745 116.614L201.699 116.186ZM196.779 102.885C194.704 99.4262 192.17 96.9342 189.152 95.4971L188.292 97.3029C190.874 98.5324 193.14 100.707 195.064 103.914L196.779 102.885ZM189.169 95.5056C186.354 94.0978 183.265 93.4 179.922 93.4V95.4C182.978 95.4 185.757 96.0355 188.275 97.2944L189.169 95.5056ZM179.922 150.8C175.883 150.8 172.529 149.546 169.795 147.06L168.449 148.54C171.581 151.387 175.427 152.8 179.922 152.8V150.8ZM169.829 147.093C167.25 144.514 165.922 141.052 165.922 136.6H163.922C163.922 141.481 165.394 145.486 168.415 148.507L169.829 147.093ZM165.922 136.6C165.922 132.146 167.25 128.764 169.812 126.324L168.432 124.876C165.394 127.77 163.922 131.721 163.922 136.6H165.922ZM169.812 126.323C172.549 123.711 175.898 122.4 179.922 122.4V120.4C175.413 120.4 171.561 121.889 168.431 124.877L169.812 126.323ZM179.922 122.4C183.946 122.4 187.218 123.71 189.815 126.307L191.229 124.893C188.226 121.89 184.431 120.4 179.922 120.4V122.4ZM189.849 126.34C192.537 128.783 193.922 132.16 193.922 136.6H195.922C195.922 131.706 194.374 127.75 191.195 124.86L189.849 126.34ZM193.922 136.6C193.922 141.038 192.537 144.494 189.831 147.077L191.212 148.523C194.374 145.506 195.922 141.495 195.922 136.6H193.922ZM189.832 147.076C187.238 149.546 183.961 150.8 179.922 150.8V152.8C184.416 152.8 188.206 151.387 191.212 148.524L189.832 147.076ZM279.844 199.2L279.405 200.098L279.413 200.102L279.421 200.106L279.844 199.2ZM264.444 186.4L265.239 185.794L264.444 186.4ZM254.444 165.6L253.479 165.864L253.481 165.872L253.483 165.879L254.444 165.6ZM254.444 108.6L253.485 108.317L253.482 108.324L253.48 108.332L254.444 108.6ZM264.444 88.2L265.232 88.8153L265.239 88.806L264.444 88.2ZM279.844 75.8L280.25 76.7138L280.258 76.7101L280.267 76.7062L279.844 75.8ZM319.844 75.8L319.421 76.7062L319.429 76.7101L319.438 76.7138L319.844 75.8ZM335.244 88.2L334.448 88.8061L334.455 88.8153L335.244 88.2ZM345.044 108.6L344.08 108.868L344.082 108.876L344.085 108.883L345.044 108.6ZM345.044 165.6L344.083 165.321L344.081 165.328L344.079 165.336L345.044 165.6ZM335.244 186.4L336.039 187.006L335.244 186.4ZM319.844 199.2L320.267 200.106L320.275 200.102L320.283 200.098L319.844 199.2ZM290.844 96.4L290.414 95.4971L290.405 95.5013L290.397 95.5056L290.844 96.4ZM283.844 103.4L284.692 103.93L284.697 103.922L284.701 103.914L283.844 103.4ZM279.044 116.4L280.021 116.614L279.044 116.4ZM279.044 157.8L278.066 158.01L278.067 158.014L279.044 157.8ZM283.844 171.2L282.978 171.7L282.982 171.707L282.986 171.714L283.844 171.2ZM290.844 178.4L290.362 179.276L290.371 179.281L290.38 179.286L290.844 178.4ZM308.644 178.4L308.18 177.514L308.171 177.519L308.162 177.524L308.644 178.4ZM315.844 171.2L316.701 171.714L316.706 171.707L316.71 171.7L315.844 171.2ZM320.644 157.8L321.621 158.014L321.622 158.01L320.644 157.8ZM320.644 116.4L319.667 116.614L320.644 116.4ZM315.844 103.4L314.986 103.914L314.991 103.922L314.996 103.93L315.844 103.4ZM308.644 96.4L308.197 97.2944L308.205 97.2987L308.214 97.3029L308.644 96.4ZM289.044 147.8L288.337 148.507L288.353 148.524L288.371 148.54L289.044 147.8ZM289.044 125.6L289.733 126.324L289.734 126.323L289.044 125.6ZM310.444 125.6L309.737 126.307L309.753 126.324L309.771 126.34L310.444 125.6ZM310.444 147.8L311.133 148.524L311.134 148.523L310.444 147.8ZM299.844 202.4C292.641 202.4 286.121 201.026 280.267 198.294L279.421 200.106C285.567 202.974 292.38 204.4 299.844 204.4V202.4ZM280.283 198.302C274.43 195.44 269.417 191.277 265.239 185.794L263.648 187.006C268.004 192.723 273.257 197.093 279.405 200.098L280.283 198.302ZM265.239 185.794C261.062 180.311 257.777 173.495 255.404 165.321L253.483 165.879C255.91 174.238 259.292 181.289 263.648 187.006L265.239 185.794ZM255.408 165.336C253.17 157.174 252.044 147.733 252.044 137H250.044C250.044 147.867 251.184 157.493 253.479 165.864L255.408 165.336ZM252.044 137C252.044 126.267 253.17 116.894 255.407 108.868L253.48 108.332C251.184 116.573 250.044 126.133 250.044 137H252.044ZM255.403 108.883C257.775 100.844 261.058 94.1635 265.232 88.8153L263.655 87.5847C259.296 93.1698 255.913 100.089 253.485 108.317L255.403 108.883ZM265.239 88.806C269.412 83.3298 274.414 79.3073 280.25 76.7138L279.438 74.8862C273.273 77.626 268.009 81.8702 263.648 87.594L265.239 88.806ZM280.267 76.7062C286.121 73.9743 292.641 72.6 299.844 72.6V70.6C292.38 70.6 285.567 72.0256 279.421 74.8938L280.267 76.7062ZM299.844 72.6C307.047 72.6 313.567 73.9743 319.421 76.7062L320.267 74.8938C314.121 72.0256 307.307 70.6 299.844 70.6V72.6ZM319.438 76.7138C325.273 79.3073 330.276 83.3298 334.448 88.806L336.039 87.594C331.678 81.8702 326.414 77.626 320.25 74.8862L319.438 76.7138ZM334.455 88.8153C338.626 94.1591 341.841 100.834 344.08 108.868L346.007 108.332C343.713 100.099 340.395 93.1742 336.032 87.5847L334.455 88.8153ZM344.085 108.883C346.451 116.903 347.644 126.271 347.644 137H349.644C349.644 126.129 348.436 116.563 346.003 108.317L344.085 108.883ZM347.644 137C347.644 147.729 346.451 157.165 344.083 165.321L346.004 165.879C348.436 157.502 349.644 147.871 349.644 137H347.644ZM344.079 165.336C341.839 173.505 338.622 180.316 334.448 185.794L336.039 187.006C340.398 181.285 343.715 174.229 346.008 165.864L344.079 165.336ZM334.448 185.794C330.271 191.277 325.257 195.44 319.405 198.302L320.283 200.098C326.43 197.093 331.683 192.723 336.039 187.006L334.448 185.794ZM319.421 198.294C313.567 201.026 307.047 202.4 299.844 202.4V204.4C307.307 204.4 314.121 202.974 320.267 200.106L319.421 198.294ZM299.844 93.4C296.5 93.4 293.352 94.0978 290.414 95.4971L291.274 97.3029C293.935 96.0355 296.788 95.4 299.844 95.4V93.4ZM290.397 95.5056C287.515 96.9462 285.055 99.4378 282.986 102.885L284.701 103.914C286.633 100.696 288.839 98.5204 291.291 97.2944L290.397 95.5056ZM282.996 102.87C280.913 106.202 279.281 110.656 278.067 116.186L280.021 116.614C281.207 111.211 282.774 106.998 284.692 103.93L282.996 102.87ZM278.067 116.186C276.846 121.747 276.244 128.692 276.244 137H278.244C278.244 128.775 278.841 121.986 280.021 116.614L278.067 116.186ZM276.244 137C276.244 145.309 276.846 152.318 278.066 158.01L280.022 157.59C278.841 152.082 278.244 145.224 278.244 137H276.244ZM278.067 158.014C279.281 163.545 280.91 168.117 282.978 171.7L284.71 170.7C282.777 167.35 281.207 162.989 280.021 157.586L278.067 158.014ZM282.986 171.714C285.052 175.158 287.503 177.704 290.362 179.276L291.326 177.524C288.851 176.163 286.635 173.908 284.701 170.686L282.986 171.714ZM290.38 179.286C293.325 180.828 296.484 181.6 299.844 181.6V179.6C296.803 179.6 293.963 178.905 291.308 177.514L290.38 179.286ZM299.844 181.6C303.203 181.6 306.304 180.828 309.126 179.276L308.162 177.524C305.65 178.905 302.884 179.6 299.844 179.6V181.6ZM309.108 179.286C312.104 177.716 314.628 175.169 316.701 171.714L314.986 170.686C313.059 173.897 310.783 176.15 308.18 177.514L309.108 179.286ZM316.71 171.7C318.777 168.117 320.407 163.545 321.62 158.014L319.667 157.586C318.481 162.989 316.91 167.35 314.978 170.7L316.71 171.7ZM321.622 158.01C322.841 152.318 323.444 145.309 323.444 137H321.444C321.444 145.224 320.846 152.082 319.666 157.59L321.622 158.01ZM323.444 137C323.444 128.692 322.841 121.747 321.62 116.186L319.667 116.614C320.846 121.986 321.444 128.775 321.444 137H323.444ZM321.62 116.186C320.407 110.656 318.774 106.202 316.692 102.87L314.996 103.93C316.913 106.998 318.481 111.211 319.667 116.614L321.62 116.186ZM316.701 102.885C314.626 99.4262 312.092 96.9342 309.074 95.4971L308.214 97.3029C310.796 98.5324 313.062 100.707 314.986 103.914L316.701 102.885ZM309.091 95.5056C306.275 94.0978 303.187 93.4 299.844 93.4V95.4C302.9 95.4 305.679 96.0355 308.197 97.2944L309.091 95.5056ZM299.844 150.8C295.805 150.8 292.451 149.546 289.716 147.06L288.371 148.54C291.503 151.387 295.349 152.8 299.844 152.8V150.8ZM289.751 147.093C287.172 144.514 285.844 141.052 285.844 136.6H283.844C283.844 141.481 285.316 145.486 288.337 148.507L289.751 147.093ZM285.844 136.6C285.844 132.146 287.172 128.764 289.733 126.324L288.354 124.876C285.316 127.77 283.844 131.721 283.844 136.6H285.844ZM289.734 126.323C292.471 123.711 295.819 122.4 299.844 122.4V120.4C295.335 120.4 291.483 121.889 288.353 124.877L289.734 126.323ZM299.844 122.4C303.868 122.4 307.14 123.71 309.737 126.307L311.151 124.893C308.148 121.89 304.353 120.4 299.844 120.4V122.4ZM309.771 126.34C312.459 128.783 313.844 132.16 313.844 136.6H315.844C315.844 131.706 314.295 127.75 311.116 124.86L309.771 126.34ZM313.844 136.6C313.844 141.038 312.459 144.494 309.753 147.077L311.134 148.523C314.296 145.506 315.844 141.495 315.844 136.6H313.844ZM309.754 147.076C307.16 149.546 303.883 150.8 299.844 150.8V152.8C304.338 152.8 308.128 151.387 311.133 148.524L309.754 147.076ZM408.966 145.4H409.966V144.4H408.966V145.4ZM373.766 145.4H372.766V146.4H373.766V145.4ZM373.766 124.6V123.6H372.766V124.6H373.766ZM408.966 124.6V125.6H409.966V124.6H408.966ZM408.966 87.8V86.8H407.966V87.8H408.966ZM430.566 87.8H431.566V86.8H430.566V87.8ZM430.566 124.6H429.566V125.6H430.566V124.6ZM465.766 124.6H466.766V123.6H465.766V124.6ZM465.766 145.4V146.4H466.766V145.4H465.766ZM430.566 145.4V144.4H429.566V145.4H430.566ZM430.566 182.2V183.2H431.566V182.2H430.566ZM408.966 182.2H407.966V183.2H408.966V182.2ZM408.966 144.4H373.766V146.4H408.966V144.4ZM374.766 145.4V124.6H372.766V145.4H374.766ZM373.766 125.6H408.966V123.6H373.766V125.6ZM409.966 124.6V87.8H407.966V124.6H409.966ZM408.966 88.8H430.566V86.8H408.966V88.8ZM429.566 87.8V124.6H431.566V87.8H429.566ZM430.566 125.6H465.766V123.6H430.566V125.6ZM464.766 124.6V145.4H466.766V124.6H464.766ZM465.766 144.4H430.566V146.4H465.766V144.4ZM429.566 145.4V182.2H431.566V145.4H429.566ZM430.566 181.2H408.966V183.2H430.566V181.2ZM409.966 182.2V145.4H407.966V182.2H409.966Z" fill="#405BB8"/>
<path d="M107.5 201.722V176L116.829 166.671C116.892 166.608 117 166.652 117 166.741V190.5L107.677 201.786C107.617 201.858 107.5 201.816 107.5 201.722Z" fill="#405BB8" stroke="#405BB8"/>
</svg>
