<svg width="101" height="101" viewBox="0 0 101 101" fill="none" xmlns="http://www.w3.org/2000/svg">
<path fill-rule="evenodd" clip-rule="evenodd" d="M37.0275 49.7576C37.0275 49.5935 36.9308 49.4293 36.7697 49.3308L32.7408 46.967C32.7086 46.9014 32.6441 46.9014 32.5475 46.9014H32.5152C32.4508 46.9014 32.3541 46.9342 32.2896 46.967L28.293 49.298C28.1318 49.3965 28.0352 49.5607 28.0352 49.7576V56.094C28.0352 56.1925 28.0674 56.2582 28.1641 56.3238C28.2285 56.3566 28.3252 56.3566 28.3897 56.3238L30.7748 54.9449C30.9359 54.8464 31.0326 54.6823 31.0326 54.5181V51.5633C31.0326 51.3992 31.1293 51.235 31.2905 51.1365L32.3218 50.5456C32.3863 50.5128 32.483 50.4799 32.5797 50.4799C32.6764 50.4799 32.7408 50.5128 32.8053 50.5456L33.8367 51.1365C33.9978 51.235 34.0945 51.3992 34.0945 51.5633V54.5181C34.0945 54.6823 34.1912 54.8464 34.3524 54.9449L36.7374 56.3238C36.8019 56.3566 36.8986 56.3566 36.9953 56.3238C37.0598 56.291 37.1242 56.1925 37.1242 56.094L37.0275 49.7576Z" fill="#213461"/>
<path fill-rule="evenodd" clip-rule="evenodd" d="M58.4608 40.9261C58.3963 40.8933 58.2996 40.8933 58.2352 40.9261C58.1707 40.9589 58.1062 41.0574 58.1062 41.1231V47.3938C58.1062 47.4594 58.074 47.5251 58.0095 47.5579C57.9451 47.5908 57.8806 47.5908 57.8484 47.5579L56.8492 46.967C56.6881 46.8685 56.5269 46.8685 56.3658 46.967L52.3369 49.3308C52.1758 49.4293 52.1113 49.5934 52.1113 49.7576V54.4852C52.1113 54.6494 52.208 54.8135 52.3692 54.912L56.3658 57.3087C56.5269 57.4072 56.6881 57.4072 56.8492 57.3087L60.8781 54.9449C61.0392 54.8464 61.1359 54.6822 61.1359 54.5181V42.7318C61.1359 42.5677 61.0392 42.4035 60.8781 42.305L58.4608 40.9261ZM58.1062 52.9422C58.1062 52.975 58.074 53.0407 58.0418 53.0407L56.6559 53.8615C56.6236 53.8943 56.5592 53.8943 56.5269 53.8615L55.141 53.0407C55.1088 53.0078 55.0766 52.975 55.0766 52.9422V51.3335C55.0766 51.3006 55.1088 51.235 55.141 51.235L56.5269 50.4142C56.5592 50.3814 56.6236 50.3814 56.6559 50.4142L58.0418 51.235C58.074 51.2678 58.1062 51.3006 58.1062 51.3335V52.9422Z" fill="#213461"/>
<path fill-rule="evenodd" clip-rule="evenodd" d="M72.9005 49.3636L68.9039 46.9998C68.7428 46.9013 68.5816 46.9013 68.4205 46.9998L64.3916 49.3636C64.2305 49.4621 64.1338 49.6262 64.1338 49.7904V54.518C64.1338 54.6822 64.2305 54.8463 64.3916 54.9448L68.3882 57.2758C68.5494 57.3743 68.7105 57.3743 68.8717 57.2758L71.289 55.8969C71.3535 55.8641 71.4179 55.7656 71.4179 55.6671C71.4179 55.5686 71.3857 55.503 71.289 55.4373L67.2602 53.0735C67.1957 53.0406 67.1312 52.9422 67.1312 52.8437V51.3663C67.1312 51.2678 67.1635 51.2021 67.2602 51.1365L68.5172 50.3813C68.5816 50.3485 68.6783 50.3485 68.775 50.3813L70.032 51.1365C70.0965 51.1693 70.1609 51.2678 70.1609 51.3663V52.5154C70.1609 52.6138 70.1932 52.6795 70.2899 52.7452C70.3543 52.778 70.451 52.778 70.5477 52.7452L72.965 51.3334" fill="#213461"/>
<path fill-rule="evenodd" clip-rule="evenodd" d="M68.5812 51.1694C68.6134 51.1366 68.6456 51.1366 68.6778 51.1694L69.4514 51.629C69.4836 51.6619 69.4836 51.6619 69.4836 51.7275V52.6468C69.4836 52.6796 69.4514 52.7124 69.4514 52.7453L68.6778 53.2049C68.6456 53.2377 68.6134 53.2377 68.5812 53.2049L67.8076 52.7453C67.7754 52.7124 67.7754 52.7124 67.7754 52.6468V51.7275C67.7754 51.6947 67.8076 51.6619 67.8076 51.629L68.5812 51.1694Z" fill="#213461"/>
<path fill-rule="evenodd" clip-rule="evenodd" d="M44.8273 46.9998C44.6661 46.9013 44.505 46.9013 44.3438 46.9998L40.315 49.3636C40.1538 49.4621 40.0571 49.6262 40.0571 49.7904V54.518C40.0571 54.6822 40.1538 54.8463 40.315 54.9448L44.3438 57.3087C44.505 57.4071 44.6661 57.4071 44.8273 57.3087L48.8561 54.9448C49.0173 54.8463 49.114 54.6822 49.114 54.518V49.7904C49.114 49.6262 49.0173 49.4621 48.8561 49.3636L44.8273 46.9998ZM46.1004 52.939C46.1004 52.9719 46.0729 53.014 46.0359 53.0375L44.65 53.8583C44.6178 53.8911 44.5533 53.8911 44.5211 53.8583L43.1351 53.0375C43.1029 53.0047 43.0707 52.9719 43.0707 52.939V51.3303C43.0707 51.2975 43.1002 51.2562 43.1351 51.2318L44.5211 50.4111C44.5729 50.3851 44.608 50.3773 44.65 50.4111L46.0359 51.2318C46.0681 51.2647 46.1004 51.2975 46.1004 51.3303V52.939Z" fill="#213461"/>
<mask id="path-6-inside-1" fill="white">
<path d="M49.0375 17.8166C49.9465 17.3091 51.0535 17.3091 51.9625 17.8166L78.9625 32.8916C79.9118 33.4216 80.5 34.4237 80.5 35.5109V65.4891C80.5 66.5763 79.9118 67.5784 78.9625 68.1084L51.9625 83.1834C51.0535 83.6909 49.9465 83.6909 49.0375 83.1834L22.0375 68.1085C21.0882 67.5784 20.5 66.5763 20.5 65.4891V35.5109C20.5 34.4237 21.0882 33.4216 22.0375 32.8916L49.0375 17.8166Z"/>
</mask>
<path d="M22.0375 32.8916L23.5 35.5109L22.0375 32.8916ZM22.0375 68.1085L20.575 70.7278L22.0375 68.1085ZM51.9625 83.1834L50.5 80.5641L51.9625 83.1834ZM49.0375 83.1834L47.575 85.8028L49.0375 83.1834ZM78.9625 68.1084L77.5 65.4891L78.9625 68.1084ZM78.9625 32.8916L77.5 35.5109L78.9625 32.8916ZM50.5 20.4359L77.5 35.5109L80.425 30.2722L53.425 15.1972L50.5 20.4359ZM77.5 35.5109V65.4891H83.5V35.5109H77.5ZM77.5 65.4891L50.5 80.5641L53.425 85.8028L80.425 70.7278L77.5 65.4891ZM50.5 80.5641L23.5 65.4891L20.575 70.7278L47.575 85.8028L50.5 80.5641ZM23.5 65.4891V35.5109H17.5V65.4891H23.5ZM23.5 35.5109L50.5 20.4359L47.575 15.1972L20.575 30.2722L23.5 35.5109ZM23.5 35.5109V35.5109L20.575 30.2722C18.6765 31.3322 17.5 33.3365 17.5 35.5109H23.5ZM23.5 65.4891L23.5 65.4891H17.5C17.5 67.6635 18.6765 69.6678 20.575 70.7278L23.5 65.4891ZM50.5 80.5641H50.5L47.575 85.8028C49.3929 86.8178 51.6071 86.8178 53.425 85.8028L50.5 80.5641ZM77.5 65.4891V65.4891L80.425 70.7278C82.3235 69.6678 83.5 67.6635 83.5 65.4891H77.5ZM77.5 35.5109H77.5H83.5C83.5 33.3365 82.3235 31.3322 80.425 30.2722L77.5 35.5109ZM53.425 15.1972C51.6071 14.1822 49.3929 14.1822 47.575 15.1972L50.5 20.4359V20.4359L53.425 15.1972Z" fill="#213461" mask="url(#path-6-inside-1)"/>
</svg>
