<svg width="101" height="101" viewBox="0 0 101 101" fill="none" xmlns="http://www.w3.org/2000/svg">
<path fill-rule="evenodd" clip-rule="evenodd" d="M62.6779 73.473L52.4386 73.5097V73.5175H38.1011C33.8625 73.5444 28.7984 71.6246 26.1576 68.0924C23.6594 65.2193 22.2417 61.5147 22.2243 57.6325C22.1802 48.7582 29.2684 41.5479 38.1011 41.4813C42.8038 41.4604 47.2516 43.5278 50.2619 47.1266C50.5803 47.5072 50.5386 48.0649 50.1885 48.4166L44.7128 53.9181C44.2183 54.4149 43.3715 54.2589 42.9435 53.7037C42.3354 52.9148 41.5422 52.2834 40.6184 51.8642C37.5269 50.4665 33.8835 51.842 32.4923 54.948C31.5351 57.0852 31.8847 59.485 33.203 61.2294C33.2124 61.2419 33.2219 61.2543 33.2314 61.2666C33.3406 61.3787 33.451 61.4882 33.5629 61.595C34.8284 62.8022 36.2741 63.6448 38.1011 63.6448L50.3733 63.6448L50.3741 63.644L62.6779 63.6226C66.0785 63.6226 68.8166 60.9381 68.8166 57.5215C68.8166 54.4458 66.5976 51.9095 63.6739 51.434C63.1288 51.3453 62.6779 50.9062 62.6779 50.3539V50.1337C62.7303 47.152 61.7061 44.2812 59.8346 42.0256C59.3388 41.4281 58.7836 40.8738 58.1732 40.372L65.0627 33.4501C65.6852 34.0027 66.274 34.5893 66.827 35.2061C66.9409 35.3332 67.0534 35.4616 67.1643 35.5912C69.3019 38.0904 70.8675 41.055 71.7314 44.2545C76.1698 47.2717 78.7975 52.3079 78.7754 57.6325C78.7092 66.4845 71.4885 73.5396 62.6779 73.473ZM68.8351 45.0365L69.125 46.1102L70.0448 46.7355C73.6521 49.1878 75.7917 53.2847 75.7755 57.6148C75.7191 64.7985 69.8619 70.5272 62.7005 70.4731L62.6838 70.473L52.4386 70.5097L52.4386 66.6404L62.6779 66.6226H62.6812C67.7078 66.6208 71.8166 62.623 71.8166 57.5215C71.8166 53.4992 69.2485 50.08 65.6425 48.8454C65.4269 45.7526 64.2818 42.8114 62.3781 40.3999L65.04 37.7255C66.8071 39.8453 68.1079 42.3432 68.8351 45.0365ZM30.53 68.1678L33.411 65.2731C34.7022 66.0796 36.2494 66.6448 38.1011 66.6448H49.1639V70.5175H38.0915L38.082 70.5175C35.4923 70.534 32.635 69.6522 30.53 68.1678ZM30.9396 63.2081C28.8729 60.6009 28.3073 56.9526 29.7544 53.7217C31.8253 49.098 37.2513 47.0495 41.8543 49.1306L41.858 49.1323C42.6147 49.4757 43.3143 49.9161 43.942 50.4399L46.66 47.7091C44.3281 45.6315 41.2971 44.4683 38.119 44.4813C30.9553 44.5378 25.1883 50.3857 25.2243 57.6176L25.2243 57.6191C25.2379 60.6768 26.3191 63.5964 28.2289 65.8972L30.9396 63.2081Z" fill="#213461"/>
<path d="M60.3136 40.5648C56.7356 37.3266 52.4819 35.8651 48.5879 36.2383C44.5943 36.621 41.1035 38.9341 39.332 42.9504C39.0928 42.935 38.8252 42.9221 38.5365 42.9149C37.4079 42.8866 35.8672 42.9428 34.4232 43.3335C33.0218 43.7128 31.16 44.5701 29.7319 45.2786C29.7243 45.2824 29.7166 45.2862 29.709 45.29C31.2479 37.8696 37.0231 32.5852 43.928 30.4572C51.2728 28.1937 59.6337 29.584 65.1815 35.6113L60.3136 40.5648Z" stroke="#213461" stroke-width="3"/>
</svg>
