<svg width="101" height="101" viewBox="0 0 101 101" fill="none" xmlns="http://www.w3.org/2000/svg">
<path d="M62.0988 64.0596L62.4626 65.5149L62.0988 64.0596ZM62.1526 63.9002L60.9813 64.8372L62.1526 63.9002ZM37.2479 70.4765L37.1798 68.978L37.2479 70.4765ZM37.2191 70.2796L36.8553 68.8244L37.2191 70.2796ZM80.1669 68.3791L78.8706 69.1339L80.1669 68.3791ZM80.085 68.5294L80.0169 67.0309L80.085 68.5294ZM57.1783 29.2266L55.7626 28.7311L57.1783 29.2266ZM57.3591 29.2093L56.0629 29.9641L57.3591 29.2093ZM50.2683 48.9696L48.8525 48.4741L50.2683 48.9696ZM50.2846 49.0651L51.4559 48.128L50.2846 49.0651ZM34.277 64.9644L35.6346 65.6023L34.277 64.9644ZM53.4053 23.8074L52.4483 22.6524L53.4053 23.8074ZM53.5597 23.927L52.2021 23.289L53.5597 23.927ZM36.2412 38.0377L37.5512 38.7683L36.2412 38.0377ZM36.2644 38.0099L37.2214 39.1649L36.2644 38.0099ZM20.8929 64.8412L22.1137 65.7128L20.8929 64.8412ZM22.1137 65.7128C22.8997 64.6118 25.631 59.8908 28.6773 54.5354C31.7554 49.1242 35.2307 42.9291 37.5512 38.7683L34.9311 37.3071C32.6132 41.4633 29.1422 47.6505 26.0697 53.0521C22.9653 58.5095 20.3417 63.0318 19.6721 63.9696L22.1137 65.7128ZM37.2214 39.1649L54.3624 24.9625L52.4483 22.6524L35.3074 36.8549L37.2214 39.1649ZM52.2021 23.289L32.9194 64.3265L35.6346 65.6023L54.9172 24.5649L52.2021 23.289ZM34.1865 63.5219H20.9914V66.5219H34.1865V63.5219ZM51.6841 49.4651L58.5941 29.7221L55.7626 28.7311L48.8525 48.4741L51.6841 49.4651ZM56.0629 29.9641L78.8706 69.1339L81.4632 67.6243L58.6554 28.4545L56.0629 29.9641ZM80.0169 67.0309L37.1798 68.978L37.316 71.9749L80.1531 70.0278L80.0169 67.0309ZM37.5829 71.7348L62.4626 65.5149L61.735 62.6044L36.8553 68.8244L37.5829 71.7348ZM63.324 62.9631L51.4559 48.128L49.1133 50.0021L60.9813 64.8372L63.324 62.9631ZM62.4626 65.5149C63.5937 65.2321 64.0522 63.8735 63.324 62.9631L60.9813 64.8372C60.3441 64.0406 60.7454 62.8518 61.735 62.6044L62.4626 65.5149ZM37.1798 68.978C38.8669 68.9014 39.2218 71.3251 37.5829 71.7348L36.8553 68.8244C34.9822 69.2926 35.3878 72.0626 37.316 71.9749L37.1798 68.978ZM78.8706 69.1339C78.3413 68.2249 78.9661 67.0787 80.0169 67.0309L80.1531 70.0278C81.3541 69.9732 82.0681 68.6632 81.4632 67.6243L78.8706 69.1339ZM58.5941 29.7221C58.1994 30.85 56.6641 30.9967 56.0629 29.9641L58.6554 28.4545C57.9683 27.2744 56.2137 27.4421 55.7626 28.7311L58.5941 29.7221ZM48.8525 48.4741C48.6704 48.9943 48.7689 49.5717 49.1133 50.0021L51.4559 48.128C51.7572 48.5047 51.8434 49.0099 51.6841 49.4651L48.8525 48.4741ZM32.9194 64.3265C33.1502 63.8354 33.6439 63.5219 34.1865 63.5219V66.5219C34.8066 66.5219 35.3709 66.1636 35.6346 65.6023L32.9194 64.3265ZM54.3624 24.9625C53.2107 25.9167 51.566 24.6427 52.2021 23.289L54.9172 24.5649C55.6442 23.0178 53.7645 21.5618 52.4483 22.6524L54.3624 24.9625ZM37.5512 38.7683C37.4627 38.927 37.3481 39.06 37.2214 39.1649L35.3074 36.8549C35.1616 36.9756 35.0317 37.1268 34.9311 37.3071L37.5512 38.7683ZM19.6721 63.9696C19.2443 64.5687 19.3366 65.2506 19.5768 65.6849C19.8139 66.1134 20.3104 66.5219 20.9914 66.5219V63.5219C21.5834 63.5219 22.0047 63.8763 22.2019 64.2326C22.4022 64.5946 22.4897 65.1862 22.1137 65.7128L19.6721 63.9696Z" fill="#213461"/>
</svg>
